<svg width="399" height="238" viewBox="0 0 399 238" fill="none" xmlns="http://www.w3.org/2000/svg">
<path d="M9.49609 233.614H398.374" stroke="#263238" stroke-linecap="round" stroke-linejoin="round"/>
<g opacity="0.15">
<path d="M102.39 26.0845C100.044 28.3918 93.0996 30.8714 93.0941 30.8714C93.0885 30.8714 92.8494 25.7954 92.8772 25.4729C93.1775 21.7367 95.9574 14.687 100.049 13.7251C102.996 13.0302 105.609 15.2374 106.004 18.1173C106.399 20.9973 104.392 24.1163 102.39 26.0845Z" fill="black"/>
<path d="M98.1847 119.6C98.2181 119.767 98.2514 119.922 98.2792 120.089L96.0998 122.102C95.9775 121.429 95.8552 120.751 95.7384 120.045C95.3881 118.054 95.0601 115.919 94.7432 113.723C92.6268 113.69 90.5141 113.532 88.4162 113.25C87.2375 116.197 83.0677 120.712 82.5229 121.29C83.8794 122.741 85.2193 124.142 86.5036 125.449C87.3821 126.346 88.2346 127.202 89.0611 128.017L86.4592 129.018L84.7023 127.172C83.3179 125.699 81.8668 124.098 80.3879 122.446C79.7096 122.88 74.1443 126.416 71.0864 126.861C68.3065 127.261 64.6649 127 62.5578 124.909C60.4506 122.819 60.3338 119.439 62.6634 117.515C65.9047 114.841 73.1991 116.892 76.3571 118.916C76.5461 119.038 78.4253 120.556 79.5929 121.535C78.9924 120.856 78.4031 120.2 77.7971 119.494C76.5795 118.104 75.4119 116.681 74.1498 115.152L72.3763 112.856C71.7703 112.1 71.2254 111.221 70.6416 110.404C69.3184 108.475 68.0786 106.451 66.8721 104.388C65.6545 105.45 61.2623 109.147 58.5714 109.948C55.8805 110.749 52.2499 111.06 49.8481 109.314C47.4463 107.568 46.8181 104.244 48.8307 101.986C51.6106 98.8507 59.1552 99.7625 62.58 101.297C62.7968 101.392 65.1319 102.759 66.4051 103.521C65.6879 102.276 64.9707 101.036 64.2868 99.7514C62.3131 96.0486 60.4339 92.2346 58.5436 88.4373C57.9876 87.2753 57.3705 86.1244 56.7812 84.968C56.3531 85.3516 51.2214 89.8606 48.2136 90.7779C45.5338 91.5952 41.8921 91.8899 39.4959 90.1441C37.0996 88.3984 36.4602 85.0736 38.4784 82.8164C41.2583 79.6807 48.7973 80.5925 52.2277 82.1269C52.4835 82.2437 55.8471 84.2174 56.6755 84.7567C55.3801 82.2159 54.068 79.6918 52.6725 77.2566C50.8042 73.96 48.7242 70.788 46.4456 67.7605C46.2454 67.9384 40.9247 72.6698 37.8335 73.6094C35.1537 74.4267 31.512 74.7214 29.1102 72.9756C26.7084 71.2298 26.0801 67.9051 28.0983 65.6478C30.8782 62.5121 38.4173 63.4239 41.8476 64.9584C42.1145 65.0807 45.7395 67.1823 46.3566 67.6327C46.2232 67.4603 46.1064 67.2657 45.9674 67.0767C43.6003 64.1025 40.9711 61.3468 38.1115 58.8427C36.5547 57.436 34.9813 56.1795 33.4301 54.9953C32.5239 55.9738 28.3596 60.4216 25.6743 61.5725C23.0946 62.6845 19.5085 63.3683 16.9343 61.9005C14.3602 60.4328 13.365 57.197 15.1163 54.7284C17.557 51.3092 25.1239 51.3926 28.7099 52.5379C28.9045 52.5991 30.8115 53.4441 32.1903 54.0779C31.4787 53.5553 30.7559 52.9994 30.0665 52.5101C27.4812 50.6643 24.996 49.1409 22.7888 47.801C21.5267 47.0504 20.3703 46.3999 19.2806 45.7995C17.8906 46.2998 12.2753 48.2569 9.41197 48.0234C6.54869 47.7899 3.11276 46.8669 1.50599 44.3595C-0.100783 41.852 0.505231 38.5273 3.20172 37.1596C6.93788 35.247 13.6207 38.8275 16.2727 41.474C16.5007 41.7075 19.6697 45.7049 19.6086 45.7327L19.5252 45.7605C20.5871 46.3165 21.7157 46.9281 22.9333 47.6175C25.1572 48.9074 27.7036 50.3974 30.3389 52.1821C33.199 54.0835 35.9447 56.1516 38.5618 58.3756C41.5113 60.85 44.2335 63.5833 46.6957 66.5429C46.7266 66.5776 46.7545 66.6148 46.7791 66.6541C46.3177 65.5088 45.1112 62.273 45.0779 62.0173C44.1994 58.3701 44.6442 50.8032 48.2302 48.6127C50.8155 47.0393 54.0013 48.3125 55.2578 50.9311C56.5143 53.5498 55.5969 57.1358 54.3071 59.6266C52.8615 62.4343 47.4797 66.6764 47.0516 67.0155C49.4876 70.0867 51.7164 73.3167 53.7233 76.6839C54.8964 78.641 56.025 80.648 57.1259 82.6718C56.7589 81.671 56.442 80.7759 56.4087 80.648C55.5302 77.0008 55.975 69.434 59.561 67.249C62.1463 65.6701 65.3321 66.9488 66.5886 69.5619C67.8451 72.175 66.9277 75.7666 65.6434 78.2574C64.3591 80.7481 59.8223 84.4954 58.6159 85.4573C59.0273 86.2412 59.4554 87.014 59.8668 87.7979C61.8405 91.5563 63.7976 95.3147 65.8325 98.9174C66.5441 100.196 67.3002 101.425 68.0564 102.665C67.7339 101.775 67.467 101.025 67.4392 100.908C66.5608 97.2606 67.0056 89.6938 70.5916 87.5032C73.1713 85.9298 76.3626 87.203 77.6191 89.8217C78.8756 92.4403 77.9527 96.0264 76.6684 98.5171C75.3841 101.008 71.2866 104.388 69.8577 105.545C70.6639 106.784 71.4645 108.03 72.2984 109.203C72.8878 109.987 73.4104 110.782 74.0331 111.538L75.8567 113.801C77.0632 115.191 78.303 116.642 79.515 117.971C80.3546 118.905 81.183 119.772 81.9891 120.656C81.2608 119.394 79.8875 116.887 79.7986 116.664C78.6606 113.566 78.3371 110.227 78.859 106.968C78.7188 106.628 78.6091 106.276 78.5309 105.917C77.9361 103.076 79.6929 100.124 82.7008 99.8014C86.8817 99.3567 91.8299 105.094 93.3477 108.525C93.4422 108.725 94.165 111.032 94.5987 112.489C94.4763 111.594 94.3429 110.721 94.2262 109.798C93.9815 107.969 93.7925 106.134 93.5812 104.166C93.5145 103.21 93.4422 102.242 93.3755 101.269C93.3088 100.296 93.3144 99.2733 93.2754 98.2669C93.2421 95.9318 93.3199 93.5578 93.4533 91.1727C91.8521 91.384 86.1478 92.0456 83.4458 91.245C80.7437 90.4444 77.5636 88.6819 76.5183 85.902C75.4731 83.1222 76.7907 80.0031 79.7152 79.2303C83.7794 78.1628 89.5448 83.0832 91.563 86.2412C91.6909 86.4413 92.8863 88.8709 93.5145 90.2164C93.609 88.782 93.6924 87.3531 93.8314 85.9076C94.2262 81.7266 94.7599 77.5124 95.2769 73.3036C95.4382 72.0137 95.5772 70.7239 95.7273 69.4118C95.1713 69.4896 88.3995 70.4236 85.375 69.5285C82.6896 68.7279 79.4928 66.9655 78.4531 64.1856C77.4134 61.4057 78.72 58.2867 81.65 57.5139C85.7086 56.4464 91.4741 61.3668 93.4923 64.5247C93.6479 64.7638 95.3603 68.2665 95.7551 69.1727C96.0776 66.3428 96.3722 63.5129 96.5501 60.7107C96.8138 56.9315 96.8306 53.1391 96.6002 49.3577C96.3333 49.3911 89.2835 50.4029 86.1867 49.48C83.5014 48.685 80.3045 46.917 79.2648 44.1427C78.2252 41.3683 79.5317 38.2382 82.4617 37.4709C86.5203 36.3979 92.2858 41.3183 94.304 44.4762C94.4652 44.7264 96.3055 48.4959 96.5946 49.202C96.5946 48.9796 96.5946 48.7517 96.5946 48.5349C96.2367 44.7756 95.5502 41.0549 94.5431 37.4153C93.9871 35.3805 93.3978 33.4679 92.7584 31.6221C91.463 31.9445 85.5307 33.3512 82.6563 32.8285C79.8764 32.3337 76.5406 30.9327 75.1895 28.2862C73.8385 25.6398 74.8059 22.3873 77.6303 21.3032C81.5499 19.7909 87.8213 24.0497 90.1786 26.9685C90.3065 27.1242 91.4296 28.8867 92.2302 30.1765C91.9244 29.3481 91.6297 28.5086 91.324 27.6969C90.212 24.7335 88.9555 22.0871 87.8491 19.752C87.2097 18.4288 86.6037 17.2501 86.0255 16.1493C84.5911 15.799 78.8312 14.3312 76.5739 12.5799C74.3166 10.8286 72.0093 8.06536 72.0427 5.10201C72.0761 2.13865 74.4223 -0.307644 77.4301 0.0315017C81.6055 0.498522 85.2138 7.16468 85.9532 10.8397C86.0144 11.1566 86.4481 16.2438 86.3758 16.2271H86.2924C86.8484 17.2723 87.471 18.4065 88.1104 19.6519C89.2668 21.9648 90.5567 24.5945 91.7687 27.5468C93.1042 30.6994 94.2588 33.9256 95.2269 37.2096C96.3192 40.9007 97.082 44.6813 97.5064 48.5071C97.5036 48.5534 97.5036 48.5998 97.5064 48.6461C97.7511 47.4396 98.5517 44.0926 98.6462 43.8424C99.9249 40.312 104.467 34.2518 108.654 34.3908C111.678 34.502 113.658 37.3264 113.235 40.2008C112.812 43.0752 110.094 45.5604 107.675 46.9281C104.895 48.4737 98.0846 49.0408 97.5453 49.0853C97.8776 52.9902 97.9501 56.9129 97.7622 60.8275C97.6676 63.107 97.4953 65.4032 97.3007 67.6994C97.5453 66.6653 97.7733 65.7423 97.8178 65.6145C99.0965 62.0896 103.644 56.0239 107.825 56.1629C110.85 56.2685 112.829 59.0929 112.407 61.9673C111.984 64.8417 109.265 67.3324 106.847 68.7001C104.428 70.0678 98.5572 70.6905 97.0172 70.8295C96.9282 71.708 96.8559 72.592 96.767 73.4704C96.3444 77.6958 95.8997 81.9101 95.5939 86.0577C95.4882 87.5144 95.4326 88.9599 95.377 90.4054C95.5939 89.4825 95.7885 88.7097 95.8274 88.5985C97.1061 85.0681 101.654 79.0079 105.835 79.1469C108.859 79.2581 110.839 82.0825 110.416 84.9569C109.994 87.8313 107.275 90.3165 104.829 91.6842C102.382 93.0519 97.1006 93.6134 95.2714 93.7858C95.2714 95.2702 95.238 96.7491 95.2714 98.1835C95.327 99.1676 95.3159 100.113 95.4271 101.091C95.5383 102.07 95.6105 103.026 95.6995 103.982C95.9386 105.812 96.1721 107.702 96.4501 109.481C96.6335 110.721 96.8337 111.899 97.006 113.084C97.1006 111.627 97.3341 108.78 97.3841 108.547C98.1124 104.866 101.687 98.1891 105.857 97.6998C108.865 97.3496 111.222 99.8459 111.267 102.748C111.311 105.65 108.976 108.525 106.769 110.248C104.334 112.144 97.9401 113.706 97.1395 113.895C97.4897 115.897 97.8344 117.804 98.1847 119.6Z" fill="black"/>
<path d="M33.3073 54.2503C33.2628 54.3114 30.2995 50.1527 30.1438 49.8692C28.3369 46.5833 26.769 39.1722 29.649 36.1143C31.7228 33.8904 35.1309 34.3018 37.0379 36.4924C38.9449 38.6829 39.0005 42.3857 38.4167 45.1267C37.7329 48.3458 33.3073 54.2447 33.3073 54.2503Z" fill="black"/>
</g>
<g opacity="0.15">
<path d="M259.724 40.6846C262.07 42.9919 269.014 45.4715 269.02 45.4715C269.025 45.4715 269.264 40.3955 269.236 40.073C268.936 36.3368 266.156 29.2871 262.064 28.3252C259.118 27.6303 256.504 29.8375 256.115 32.7174C255.726 35.5974 257.728 38.7164 259.724 40.6846Z" fill="black"/>
<path d="M263.927 134.2C263.893 134.367 263.866 134.523 263.832 134.69L266.017 136.702C266.134 136.029 266.256 135.351 266.379 134.645C266.723 132.655 267.051 130.52 267.368 128.324C269.487 128.29 271.601 128.132 273.701 127.851C274.874 130.798 279.049 135.312 279.589 135.89C278.232 137.342 276.892 138.743 275.613 140.044C274.729 140.944 273.879 141.8 273.05 142.618L275.652 143.613C276.208 143.018 276.809 142.406 277.409 141.773C278.794 140.299 280.245 138.698 281.724 137.047C282.402 137.481 287.973 141.017 291.031 141.461C293.811 141.862 297.447 141.6 299.554 139.51C301.661 137.419 301.778 134.039 299.448 132.115C296.207 129.441 288.885 131.493 285.754 133.516C285.565 133.633 283.692 135.157 282.519 136.135C283.119 135.457 283.708 134.801 284.32 134.095C285.532 132.705 286.7 131.281 287.962 129.752L289.735 127.456C290.341 126.7 290.886 125.822 291.475 125.004C292.793 123.075 294.033 121.051 295.239 118.989C296.463 120.051 300.849 123.748 303.54 124.549C306.231 125.349 309.862 125.66 312.263 123.915C314.665 122.169 315.294 118.844 313.281 116.587C310.501 113.451 302.962 114.363 299.532 115.898C299.315 115.992 296.98 117.36 295.706 118.121C296.424 116.876 297.146 115.636 297.825 114.352C299.798 110.644 301.678 106.835 303.574 103.038C304.129 101.876 304.741 100.725 305.33 99.5685C305.759 99.9521 310.89 104.461 313.898 105.378C316.578 106.19 320.219 106.49 322.616 104.745C325.012 102.999 325.651 99.6741 323.633 97.4169C320.853 94.2812 313.314 95.193 309.884 96.7275C309.628 96.8387 306.264 98.8124 305.436 99.3572C306.731 96.8164 308.044 94.2923 309.439 91.8571C311.307 88.5605 313.387 85.3885 315.666 82.361C315.866 82.5389 321.187 87.2703 324.278 88.2099C326.958 89.0216 330.6 89.3219 333.001 87.5761C335.403 85.8303 336.031 82.5056 334.013 80.2483C331.233 77.1126 323.694 78.0244 320.264 79.5589C319.997 79.6757 316.372 81.7828 315.755 82.2332C315.888 82.0608 316.005 81.8662 316.144 81.6772C318.511 78.703 321.14 75.9473 324 73.4432C325.557 72.0366 327.13 70.7801 328.687 69.5958C329.588 70.5743 333.752 75.0222 336.471 76.173C339.045 77.285 342.631 77.9688 345.205 76.501C347.779 75.0333 348.78 71.7919 347.023 69.3289C344.582 65.9097 337.015 65.9931 333.429 67.1384C333.235 67.1996 331.333 68.0446 329.949 68.6785C330.661 68.1558 331.383 67.5999 332.073 67.1106C334.658 65.2648 337.143 63.7358 339.351 62.4015C340.618 61.6509 341.769 61.0004 342.859 60.4C344.249 60.9003 349.864 62.8574 352.727 62.6239C355.591 62.3904 359.027 61.3785 360.633 58.8877C362.24 56.3969 361.634 53.0666 358.938 51.66C355.201 49.7475 348.519 53.328 345.867 55.9744C345.639 56.2024 342.47 60.2054 342.531 60.2332L342.614 60.261C341.552 60.817 340.424 61.4285 339.206 62.1179C336.982 63.4078 334.441 64.8978 331.8 66.6825C328.929 68.624 326.174 70.7329 323.55 72.9984C320.594 75.4647 317.864 78.1906 315.394 81.1434L315.31 81.2491C315.772 80.1093 316.978 76.8735 317.011 76.6178C317.89 72.9706 317.445 65.4038 313.859 63.2132C311.279 61.6398 308.088 62.913 306.832 65.5316C305.575 68.1503 306.498 71.7363 307.782 74.2271C309.228 77.007 314.61 81.2769 315.01 81.616C312.572 84.6858 310.343 87.9159 308.338 91.2845C307.16 93.2415 306.031 95.2486 304.93 97.2723C305.297 96.2716 305.614 95.3764 305.647 95.2486C306.526 91.6014 306.081 84.0345 302.495 81.844C299.91 80.2706 296.724 81.5438 295.467 84.1624C294.211 86.7811 295.128 90.3671 296.413 92.8579C297.697 95.3486 302.234 99.0959 303.44 100.058C303.029 100.842 302.606 101.614 302.189 102.398C300.215 106.157 298.258 109.915 296.224 113.546C295.512 114.824 294.756 116.053 294 117.293C294.322 116.403 294.589 115.653 294.617 115.536C295.495 111.883 295.05 104.322 291.47 102.132C288.885 100.558 285.693 101.831 284.442 104.45C283.191 107.069 284.103 110.655 285.388 113.145C286.672 115.636 290.769 119.017 292.198 120.173C291.392 121.413 290.591 122.658 289.758 123.831C289.168 124.615 288.646 125.41 288.023 126.166L286.205 128.424C284.993 129.819 283.753 131.265 282.541 132.599C281.701 133.533 280.873 134.4 280.067 135.284C280.795 134.017 282.168 131.515 282.257 131.293C283.395 128.194 283.719 124.856 283.197 121.596C283.337 121.256 283.447 120.905 283.525 120.545C284.12 117.704 282.363 114.752 279.355 114.43C275.174 113.991 270.226 119.728 268.708 123.159C268.619 123.359 267.891 125.666 267.457 127.123C267.58 126.228 267.713 125.355 267.83 124.432C268.074 122.603 268.263 120.768 268.475 118.8C268.541 117.843 268.614 116.876 268.68 115.903C268.747 114.93 268.747 113.907 268.781 112.901C268.814 110.566 268.736 108.192 268.603 105.807C270.209 106.018 275.908 106.679 278.61 105.879C281.312 105.078 284.498 103.316 285.538 100.536C286.577 97.756 285.265 94.637 282.341 93.8642C278.277 92.7967 272.511 97.7171 270.493 100.875C270.365 101.075 269.17 103.505 268.541 104.85C268.453 103.416 268.369 101.987 268.23 100.541C267.83 96.3605 267.296 92.1462 266.779 87.9319C266.618 86.6476 266.479 85.3577 266.329 84.0734C266.885 84.1513 273.656 85.0853 276.681 84.1902C279.366 83.3896 282.563 81.6272 283.603 78.8473C284.643 76.0674 283.336 72.9484 280.412 72.1756C276.347 71.1081 270.582 76.0285 268.564 79.1864C268.408 79.4255 266.696 82.9226 266.301 83.8344C265.978 81.0045 265.684 78.1745 265.506 75.3724C265.242 71.5932 265.225 67.8008 265.456 64.0194C265.723 64.0527 272.772 65.0646 275.869 64.1417C278.555 63.3411 281.751 61.5786 282.791 58.8043C283.831 56.03 282.524 52.8999 279.6 52.1326C275.536 51.0651 269.77 55.9855 267.752 59.1435C267.591 59.3937 265.75 63.1632 265.467 63.8693C265.467 63.6469 265.467 63.4189 265.467 63.2021C265.837 59.4106 266.544 55.6596 267.58 51.9936C268.108 49.9587 268.725 48.0462 269.364 46.2003C270.66 46.5228 276.592 47.9294 279.466 47.4068C282.246 46.912 285.582 45.5054 286.939 42.8645C288.295 40.2236 287.317 36.9656 284.492 35.8759C280.601 34.3692 274.301 38.6557 271.95 41.5468C271.822 41.7025 270.693 43.4649 269.898 44.7548C270.198 43.9264 270.493 43.0869 270.799 42.2751C271.938 39.3118 273.167 36.6653 274.274 34.3302C274.913 33.007 275.519 31.8228 276.097 30.7275C277.532 30.3773 283.292 28.9095 285.549 27.1582C287.806 25.4068 290.113 22.6436 290.08 19.6803C290.047 16.7169 287.706 14.2706 284.704 14.6209C280.528 15.0879 276.92 21.7541 276.181 25.4291C276.114 25.746 275.68 30.8332 275.752 30.8165H275.841C275.285 31.8617 274.657 32.9959 274.018 34.2413C272.861 36.5542 271.572 39.1839 270.365 42.1362C269.025 45.3015 267.872 48.5429 266.912 51.8435C265.815 55.5332 265.052 59.3143 264.633 63.1409C264.633 63.1854 264.633 63.2355 264.633 63.2799C264.388 62.0735 263.588 58.7265 263.493 58.4763C262.214 54.9459 257.672 48.8857 253.486 49.0247C250.461 49.1359 248.482 51.9603 248.904 54.8347C249.327 57.709 252.046 60.1943 254.464 61.562C257.244 63.1076 264.055 63.6747 264.6 63.7192C264.263 67.6238 264.188 71.5467 264.377 75.4614C264.472 77.7409 264.644 80.037 264.839 82.3332C264.594 81.2991 264.366 80.3762 264.322 80.2483C263.043 76.7234 258.495 70.6577 254.314 70.7967C251.29 70.9024 249.338 73.7267 249.733 76.6011C250.128 79.4755 252.874 81.9663 255.32 83.334C257.767 84.7017 263.61 85.3244 265.156 85.4634C265.239 86.3418 265.311 87.2203 265.4 88.1043C265.828 92.3297 266.268 96.544 266.573 100.692C266.679 102.148 266.735 103.594 266.796 105.039C266.573 104.116 266.379 103.344 266.34 103.232C265.061 99.7019 260.519 93.6418 256.332 93.7808C253.308 93.892 251.356 96.7163 251.751 99.5907C252.146 102.465 254.892 104.95 257.311 106.318C259.729 107.686 265.039 108.247 266.868 108.42C266.868 109.904 266.901 111.383 266.868 112.817C266.807 113.801 266.823 114.747 266.707 115.725C266.59 116.704 266.529 117.66 266.44 118.616C266.201 120.445 265.962 122.336 265.684 124.115C265.5 125.355 265.3 126.533 265.128 127.718C265.039 126.261 264.8 123.414 264.75 123.181C264.021 119.5 260.446 112.823 256.277 112.334C253.269 111.983 250.911 114.48 250.867 117.382C250.822 120.284 253.158 123.159 255.37 124.877C257.8 126.778 264.194 128.34 264.994 128.529C264.622 130.497 264.277 132.404 263.927 134.2Z" fill="black"/>
<path d="M328.804 68.8508C328.854 68.912 331.812 64.7533 331.967 64.4698C333.78 61.1839 335.348 53.7728 332.468 50.7149C330.388 48.491 326.98 48.9024 325.079 51.093C323.177 53.2835 323.111 56.9863 323.694 59.7273C324.378 62.9464 328.804 68.8453 328.804 68.8508Z" fill="black"/>
</g>
<path d="M264.347 221.589V201.062C264.348 197.873 265.616 194.815 267.871 192.56C270.126 190.305 273.184 189.038 276.373 189.036H162.987C159.797 189.036 156.738 190.303 154.483 192.558C152.228 194.814 150.961 197.872 150.961 201.062V221.589C150.96 223.168 151.271 224.732 151.875 226.191C152.479 227.651 153.365 228.977 154.482 230.094C155.598 231.211 156.924 232.096 158.384 232.7C159.843 233.304 161.407 233.615 162.987 233.614H276.373C273.183 233.614 270.124 232.347 267.869 230.092C265.614 227.837 264.347 224.778 264.347 221.589Z" fill="#263238" stroke="#263238" stroke-linecap="round" stroke-linejoin="round"/>
<path d="M377.344 190.665L378.695 189.776C378.766 189.727 378.819 189.657 378.847 189.576C378.876 189.495 378.878 189.407 378.853 189.325C378.828 189.243 378.778 189.171 378.71 189.119C378.642 189.067 378.559 189.038 378.473 189.036H276.373C273.184 189.038 270.126 190.305 267.872 192.56C265.617 194.815 264.349 197.873 264.348 201.062V221.589C264.348 224.778 265.615 227.837 267.87 230.092C270.125 232.347 273.184 233.614 276.373 233.614H378.473C378.561 233.616 378.647 233.59 378.718 233.538C378.789 233.487 378.841 233.413 378.866 233.329C378.891 233.245 378.888 233.155 378.858 233.073C378.827 232.991 378.77 232.921 378.695 232.875L377.344 231.985V190.665Z" fill="#949494" stroke="#263238" stroke-linecap="round" stroke-linejoin="round"/>
<path d="M282.39 190.665H377.345V232.007H282.39C278.196 232.007 274.175 230.342 271.209 227.376C268.244 224.411 266.578 220.389 266.578 216.195V206.477C266.578 202.283 268.244 198.262 271.209 195.296C274.175 192.331 278.196 190.665 282.39 190.665Z" fill="white" stroke="#263238" stroke-linecap="round" stroke-linejoin="round"/>
<path d="M270.043 198.271H309.879" stroke="#263238" stroke-linecap="round" stroke-linejoin="round"/>
<path d="M299.418 202.052H336.585" stroke="#263238" stroke-linecap="round" stroke-linejoin="round"/>
<path d="M321.895 206.727H286.285" stroke="#263238" stroke-linecap="round" stroke-linejoin="round"/>
<path d="M270.93 220.971H294.297" stroke="#263238" stroke-linecap="round" stroke-linejoin="round"/>
<path d="M288.293 224.307H323.23" stroke="#263238" stroke-linecap="round" stroke-linejoin="round"/>
<path d="M284.062 227.426H293.408" stroke="#263238" stroke-linecap="round" stroke-linejoin="round"/>
<path d="M310.324 217.858H369.741" stroke="#263238" stroke-linecap="round" stroke-linejoin="round"/>
<path d="M376.643 208.283H364.406" stroke="#263238" stroke-linecap="round" stroke-linejoin="round"/>
<path d="M374.645 205.171H362.18" stroke="#263238" stroke-linecap="round" stroke-linejoin="round"/>
<path d="M374.641 225.202H343.484" stroke="#263238" stroke-linecap="round" stroke-linejoin="round"/>
<path d="M258.999 176.799V156.273C258.998 154.693 259.309 153.129 259.913 151.67C260.517 150.211 261.403 148.885 262.52 147.768C263.637 146.651 264.963 145.765 266.422 145.161C267.881 144.557 269.445 144.246 271.025 144.247H157.633C156.055 144.247 154.491 144.558 153.032 145.163C151.574 145.767 150.248 146.653 149.132 147.77C148.016 148.886 147.13 150.212 146.527 151.671C145.923 153.13 145.613 154.694 145.613 156.273V176.799C145.613 179.988 146.88 183.046 149.134 185.301C151.388 187.556 154.445 188.824 157.633 188.825H271.053C269.471 188.829 267.904 188.521 266.442 187.918C264.98 187.315 263.651 186.43 262.531 185.313C261.412 184.196 260.523 182.869 259.917 181.408C259.311 179.947 258.999 178.381 258.999 176.799Z" fill="#8C8C8C" stroke="#263238" stroke-linecap="round" stroke-linejoin="round"/>
<path d="M371.991 145.876L373.348 144.987C373.422 144.94 373.479 144.87 373.51 144.788C373.541 144.706 373.544 144.616 373.519 144.532C373.493 144.448 373.441 144.375 373.37 144.323C373.299 144.272 373.213 144.245 373.125 144.247H271.026C269.446 144.246 267.882 144.557 266.423 145.161C264.963 145.765 263.637 146.651 262.521 147.768C261.404 148.885 260.518 150.211 259.914 151.67C259.31 153.129 258.999 154.694 259 156.273V176.8C259 179.989 260.267 183.048 262.522 185.303C264.778 187.558 267.836 188.825 271.026 188.825H373.125C373.211 188.824 373.294 188.795 373.362 188.743C373.43 188.691 373.481 188.619 373.505 188.537C373.53 188.454 373.528 188.367 373.5 188.286C373.471 188.205 373.418 188.135 373.348 188.086L371.991 187.196V145.876Z" fill="#949494" stroke="#263238" stroke-linecap="round" stroke-linejoin="round"/>
<path d="M277.029 145.876H371.99V187.196H277.029C272.84 187.195 268.823 185.531 265.86 182.571C262.896 179.61 261.229 175.595 261.223 171.406V161.688C261.223 157.495 262.888 153.474 265.852 150.509C268.816 147.544 272.836 145.877 277.029 145.876Z" fill="white" stroke="#263238" stroke-linecap="round" stroke-linejoin="round"/>
<path d="M264.691 153.481H304.527" stroke="#263238" stroke-linecap="round" stroke-linejoin="round"/>
<path d="M294.07 157.262H331.237" stroke="#263238" stroke-linecap="round" stroke-linejoin="round"/>
<path d="M316.548 161.938H280.938" stroke="#263238" stroke-linecap="round" stroke-linejoin="round"/>
<path d="M265.582 176.182H288.95" stroke="#263238" stroke-linecap="round" stroke-linejoin="round"/>
<path d="M282.938 179.518H317.881" stroke="#263238" stroke-linecap="round" stroke-linejoin="round"/>
<path d="M278.715 182.631H288.061" stroke="#263238" stroke-linecap="round" stroke-linejoin="round"/>
<path d="M304.973 173.063H364.395" stroke="#263238" stroke-linecap="round" stroke-linejoin="round"/>
<path d="M371.296 163.494H359.059" stroke="#263238" stroke-linecap="round" stroke-linejoin="round"/>
<path d="M369.293 160.381H356.828" stroke="#263238" stroke-linecap="round" stroke-linejoin="round"/>
<path d="M369.294 180.408H338.137" stroke="#263238" stroke-linecap="round" stroke-linejoin="round"/>
<path d="M353.038 212.565L343.881 203.409L334.746 212.565V160.348H353.038V212.565Z" fill="#263238" stroke="#263238" stroke-linecap="round" stroke-linejoin="round"/>
<path d="M268.936 132.009V111.477C268.934 108.289 267.667 105.231 265.412 102.977C263.157 100.723 260.099 99.457 256.91 99.457H370.296C371.875 99.4563 373.439 99.7667 374.898 100.37C376.357 100.974 377.682 101.859 378.799 102.976C379.916 104.092 380.802 105.417 381.406 106.876C382.011 108.335 382.322 109.898 382.322 111.477V132.009C382.322 133.588 382.011 135.152 381.406 136.611C380.802 138.069 379.916 139.395 378.799 140.511C377.682 141.627 376.357 142.513 374.898 143.116C373.439 143.72 371.875 144.03 370.296 144.03H256.91C260.099 144.03 263.157 142.763 265.412 140.509C267.667 138.255 268.934 135.198 268.936 132.009Z" fill="#9EB4FF" stroke="#263238" stroke-linecap="round" stroke-linejoin="round"/>
<path d="M155.937 101.081L154.586 100.197C154.512 100.15 154.455 100.08 154.424 99.9982C154.393 99.9161 154.39 99.8261 154.415 99.742C154.441 99.658 154.493 99.5846 154.564 99.5332C154.635 99.4817 154.721 99.455 154.809 99.4572H256.908C260.097 99.4572 263.155 100.723 265.41 102.977C267.665 105.232 268.932 108.289 268.934 111.477V132.01C268.932 135.198 267.665 138.255 265.41 140.509C263.155 142.764 260.097 144.03 256.908 144.03H154.809C154.721 144.032 154.635 144.005 154.564 143.954C154.493 143.902 154.441 143.829 154.415 143.745C154.39 143.661 154.393 143.571 154.424 143.489C154.455 143.407 154.512 143.337 154.586 143.29L155.937 142.406V101.081Z" fill="#949494" stroke="#263238" stroke-linecap="round" stroke-linejoin="round"/>
<path d="M250.895 142.407H155.94V101.087L250.895 101.087C255.088 101.087 259.109 102.752 262.074 105.716C265.039 108.68 266.706 112.7 266.707 116.893V126.567C266.711 128.646 266.304 130.705 265.511 132.626C264.718 134.548 263.554 136.294 262.086 137.766C260.617 139.237 258.873 140.404 256.952 141.2C255.032 141.997 252.974 142.407 250.895 142.407Z" fill="white" stroke="#263238" stroke-linecap="round" stroke-linejoin="round"/>
<path d="M263.24 108.687H223.398" stroke="#263238" stroke-linecap="round" stroke-linejoin="round"/>
<path d="M233.862 112.472H196.695" stroke="#263238" stroke-linecap="round" stroke-linejoin="round"/>
<path d="M211.387 117.143H246.991" stroke="#263238" stroke-linecap="round" stroke-linejoin="round"/>
<path d="M262.348 131.387H238.98" stroke="#263238" stroke-linecap="round" stroke-linejoin="round"/>
<path d="M244.986 134.729H210.043" stroke="#263238" stroke-linecap="round" stroke-linejoin="round"/>
<path d="M249.219 137.841H239.867" stroke="#263238" stroke-linecap="round" stroke-linejoin="round"/>
<path d="M222.954 128.273H163.531" stroke="#263238" stroke-linecap="round" stroke-linejoin="round"/>
<path d="M156.633 118.705H168.875" stroke="#263238" stroke-linecap="round" stroke-linejoin="round"/>
<path d="M158.641 115.586H171.1" stroke="#263238" stroke-linecap="round" stroke-linejoin="round"/>
<path d="M158.641 135.619H189.798" stroke="#263238" stroke-linecap="round" stroke-linejoin="round"/>
<path d="M363.856 133.633H282.75V135.495H363.856V133.633Z" fill="#263238" stroke="#263238" stroke-linecap="round" stroke-linejoin="round"/>
<path d="M363.856 108.636H282.75V110.499H363.856V108.636Z" fill="#263238" stroke="#263238" stroke-linecap="round" stroke-linejoin="round"/>
<path d="M267.853 65.8982C267.851 65.2842 267.607 64.696 267.172 64.2624C266.737 63.8288 266.148 63.5853 265.535 63.5853H92.8483C92.5347 63.5699 92.2212 63.6184 91.9268 63.7279C91.6325 63.8373 91.3635 64.0054 91.1361 64.2219C90.9086 64.4385 90.7276 64.6989 90.6039 64.9876C90.4802 65.2762 90.4164 65.5869 90.4164 65.9009C90.4164 66.215 90.4802 66.5257 90.6039 66.8143C90.7276 67.1029 90.9086 67.3634 91.1361 67.58C91.3635 67.7965 91.6325 67.9646 91.9268 68.074C92.2212 68.1835 92.5347 68.2319 92.8483 68.2166H262.977L250.534 228.894H147.317L141.48 222.717L133.696 228.894H62.5921C62.2784 228.878 61.9649 228.927 61.6706 229.036C61.3763 229.146 61.1073 229.314 60.8798 229.53C60.6524 229.747 60.4714 230.007 60.3477 230.296C60.2239 230.585 60.1602 230.895 60.1602 231.209C60.1602 231.523 60.2239 231.834 60.3477 232.123C60.4714 232.411 60.6524 232.672 60.8798 232.888C61.1073 233.105 61.3763 233.273 61.6706 233.382C61.9649 233.492 62.2784 233.54 62.5921 233.525H252.013C252.164 233.569 252.318 233.597 252.475 233.608C252.778 233.632 253.083 233.595 253.373 233.501C253.662 233.406 253.93 233.255 254.16 233.057C254.391 232.858 254.581 232.617 254.718 232.345C254.855 232.073 254.937 231.777 254.96 231.473L267.747 66.4986C267.808 66.3038 267.844 66.102 267.853 65.8982Z" fill="#263238" stroke="#263238" stroke-linecap="round" stroke-linejoin="round"/>
<path d="M142.018 225.079C142.935 225.446 144.725 228.554 145.793 230.528H252.88L244.267 210.012C244.267 210.012 236.022 206.276 214.495 199.193C192.968 192.11 179.346 189.658 164.902 192.655C150.458 195.651 144.742 197.536 144.742 197.536C144.742 197.536 139.838 193.45 124.849 193.177C109.86 192.905 65.321 209.99 65.321 209.99L62.1797 230.505H137.403C138.788 228.226 141.089 224.707 142.018 225.079Z" fill="white" stroke="#263238" stroke-linecap="round" stroke-linejoin="round"/>
<path d="M161.046 47.5449L143.527 206.432C143.527 206.432 162.642 198.47 174.984 198.092C185.103 197.764 215.571 204.936 226.218 207.544C228.749 208.162 231.317 208.616 233.907 208.9L244.27 210.057L256.613 52.7655C256.613 52.7655 236.309 47.9897 221.586 43.2083C206.864 38.4269 177.77 34.8019 161.046 47.5449Z" fill="white" stroke="#263238" stroke-linecap="round" stroke-linejoin="round"/>
<path d="M231.148 59.2371L232.505 49.2295L234.607 49.9467C235.215 50.1383 235.787 50.4275 236.302 50.8029C236.712 51.1055 237.025 51.5208 237.203 51.9983C237.377 52.5364 237.419 53.1084 237.325 53.6662C237.281 54.0126 237.19 54.3512 237.053 54.6725C236.943 54.9372 236.762 55.1663 236.53 55.3341C236.291 55.495 236.006 55.5731 235.719 55.5565L236.525 61.0662L235.118 60.5881L234.379 55.4342L233.267 55.045L232.633 59.7319L231.148 59.2371ZM233.372 54.0498L233.928 54.2388C234.256 54.3674 234.605 54.4352 234.957 54.439C235.08 54.4382 235.201 54.4098 235.312 54.356C235.423 54.3021 235.52 54.2241 235.596 54.1276C235.777 53.8452 235.884 53.5223 235.908 53.188C236.006 52.7232 235.949 52.2389 235.746 51.8092C235.433 51.387 234.98 51.0895 234.468 50.9697L233.823 50.7473L233.372 54.0498Z" fill="black"/>
<path d="M238.113 58.2478L238.247 57.2471L241.132 58.2312L240.993 59.2319L238.113 58.2478Z" fill="black"/>
<path d="M243.151 63.3401L244.363 54.3833L242.59 53.7773L242.734 52.7432L247.683 54.4111L247.538 55.4452L245.82 54.8614L244.608 63.8126L243.151 63.3401Z" fill="black"/>
<path d="M161.043 47.5449L143.524 206.432C143.524 206.432 131.187 198.47 121.652 198.092C114.369 197.786 92.0739 203.98 81.9218 206.927C78.3796 207.951 74.7673 208.715 71.1136 209.212L65.3203 210.018L86.7699 55.134C86.7699 55.134 96.455 51.8982 108.875 47.1168C121.296 42.3354 150.535 34.8019 161.043 47.5449Z" fill="white" stroke="#263238" stroke-linecap="round" stroke-linejoin="round"/>
<path d="M95.1367 61.3661L96.2153 53.41L98.0278 52.8541C98.4987 52.6951 98.993 52.6161 99.49 52.6205C99.6449 52.6157 99.7984 52.6517 99.935 52.7249C100.072 52.7981 100.187 52.9059 100.268 53.0375C100.427 53.3857 100.469 53.7753 100.391 54.1495C100.35 54.4504 100.274 54.7453 100.163 55.0279C100.057 55.2994 99.907 55.5513 99.718 55.7729C99.5226 55.9996 99.287 56.1881 99.023 56.3289L99.7624 59.9372L98.5504 60.2986L97.8777 56.9182L96.8992 57.2129L96.3932 60.9435L95.1367 61.3661ZM97.0048 56.4623L97.4829 56.3178C97.7929 56.2311 98.0901 56.104 98.3669 55.9397C98.5966 55.8048 98.788 55.6134 98.9229 55.3838C99.0645 55.1234 99.155 54.8385 99.1898 54.5442C99.2509 54.0772 99.1898 53.7714 99.0341 53.6213C98.8784 53.4712 98.4781 53.4879 97.9222 53.6547L97.3662 53.8215L97.0048 56.4623Z" fill="black"/>
<path d="M101.098 57.1182L101.209 56.3231L103.689 55.5781L103.566 56.3732L101.098 57.1182Z" fill="black"/>
<path d="M105.47 58.2696L106.437 51.1364L104.914 51.5979L105.025 50.7695L109.284 49.4907L109.173 50.3191L107.694 50.7639L106.727 57.8915L105.47 58.2696Z" fill="black"/>
<path d="M256.612 52.7207L264.357 68.4048L252.882 230.527L244.27 210.012L256.612 52.7207Z" fill="white" stroke="#263238" stroke-linecap="round" stroke-linejoin="round"/>
<path d="M137.405 230.528C137.405 230.528 132.112 226.903 126.808 225.58C121.504 224.257 106.376 226.108 91.7812 227.437" stroke="#263238" stroke-linecap="round" stroke-linejoin="round"/>
<path d="M137.681 226.903C137.681 226.903 132.121 222.394 124.949 221.866" stroke="#263238" stroke-linecap="round" stroke-linejoin="round"/>
<path d="M140.074 224.252C140.074 224.252 131.318 217.091 120.437 217.091C112.175 217.091 102.129 218.948 102.129 218.948" stroke="#263238" stroke-linecap="round" stroke-linejoin="round"/>
<path d="M140.868 217.885C140.868 217.885 133.969 212.842 127.864 212.325C121.759 211.808 114.07 213.104 114.07 213.104" stroke="#263238" stroke-linecap="round" stroke-linejoin="round"/>
<path d="M141.375 211.519C141.375 211.519 136.338 207.005 129.438 205.959C125.126 205.329 120.745 205.329 116.434 205.959" stroke="#263238" stroke-linecap="round" stroke-linejoin="round"/>
<path d="M144.051 213.376C144.051 213.376 152.546 207.261 166.846 208.862" stroke="#263238" stroke-linecap="round" stroke-linejoin="round"/>
<path d="M143.52 219.219C143.52 219.219 147.767 216.039 158.642 216.039" stroke="#263238" stroke-linecap="round" stroke-linejoin="round"/>
<path d="M144.316 224.779C144.316 224.779 153.073 221.327 161.035 222.122C168.996 222.917 170.053 223.451 179.871 224.513" stroke="#263238" stroke-linecap="round" stroke-linejoin="round"/>
<path d="M149.09 228.499C153.424 226.961 158.049 226.416 162.622 226.903" stroke="#263238" stroke-linecap="round" stroke-linejoin="round"/>
<path d="M163.684 216.295C163.684 216.295 172.173 216.823 176.415 218.413" stroke="#263238" stroke-linecap="round" stroke-linejoin="round"/>
<path d="M112.742 206.477L107.438 207.8" stroke="#263238" stroke-linecap="round" stroke-linejoin="round"/>
<path d="M98.9456 220.008L94.9648 221.065" stroke="#263238" stroke-linecap="round" stroke-linejoin="round"/>
<path d="M170.051 209.657L174.298 210.457" stroke="#263238" stroke-linecap="round" stroke-linejoin="round"/>
<path d="M232.137 226.108C232.137 226.108 243.545 226.903 247.787 226.903" stroke="#263238" stroke-linecap="round" stroke-linejoin="round"/>
<path d="M247.79 225.046L243.281 224.785" stroke="#263238" stroke-linecap="round" stroke-linejoin="round"/>
<path d="M231.871 219.475C231.871 219.475 240.895 220.031 245.404 220.537" stroke="#263238" stroke-linecap="round" stroke-linejoin="round"/>
<path d="M66.5781 215.232C71.9685 214.648 77.2957 213.582 82.4957 212.047" stroke="#263238" stroke-linecap="round" stroke-linejoin="round"/>
<path d="M72.6758 217.618C72.6758 217.618 79.0473 217.09 82.7612 215.761" stroke="#263238" stroke-linecap="round" stroke-linejoin="round"/>
<path d="M242.217 214.699C242.217 214.699 234.789 215.761 224.175 213.376C218.134 211.988 212.022 210.925 205.867 210.19" stroke="#263238" stroke-linecap="round" stroke-linejoin="round"/>
<path d="M219.668 226.642L226.829 226.903" stroke="#263238" stroke-linecap="round" stroke-linejoin="round"/>
<path d="M260.259 62.1392L257.34 99.8177" stroke="#263238" stroke-linecap="round" stroke-linejoin="round"/>
<path d="M261.852 71.958L260.523 88.4093" stroke="#263238" stroke-linecap="round" stroke-linejoin="round"/>
<path d="M257.076 133.777L254.418 168.536" stroke="#263238" stroke-linecap="round" stroke-linejoin="round"/>
<path d="M253.097 178.616L250.445 213.376" stroke="#263238" stroke-linecap="round" stroke-linejoin="round"/>
<path d="M255.081 129.796L253.363 152.352" stroke="#263238" stroke-linecap="round" stroke-linejoin="round"/>
<path d="M252.956 156.328L251.238 178.884" stroke="#263238" stroke-linecap="round" stroke-linejoin="round"/>
<path d="M165.555 65.8087C165.555 65.8087 176.802 57.9305 197.056 61.3053" stroke="#B2B2B2" stroke-linecap="round" stroke-linejoin="round"/>
<path d="M164.957 70.8295C164.957 70.8295 176.238 62.9235 196.492 66.226" stroke="#B2B2B2" stroke-linecap="round" stroke-linejoin="round"/>
<path d="M164.367 75.8497C164.367 75.8497 175.676 67.9159 195.93 71.1406" stroke="#B2B2B2" stroke-linecap="round" stroke-linejoin="round"/>
<path d="M163.781 80.8645C163.781 80.8645 175.118 72.9029 195.366 76.0553" stroke="#B2B2B2" stroke-linecap="round" stroke-linejoin="round"/>
<path d="M163.184 85.8847C163.184 85.8847 174.553 77.8954 194.802 80.9755" stroke="#B2B2B2" stroke-linecap="round" stroke-linejoin="round"/>
<path d="M162.594 90.9058C162.594 90.9058 173.986 82.8886 194.24 85.902" stroke="#B2B2B2" stroke-linecap="round" stroke-linejoin="round"/>
<path d="M162 95.926C162 95.926 173.425 87.8755 193.691 90.8055" stroke="#B2B2B2" stroke-linecap="round" stroke-linejoin="round"/>
<path d="M161.387 100.946C161.387 100.946 172.84 92.8675 193.077 95.7197" stroke="#B2B2B2" stroke-linecap="round" stroke-linejoin="round"/>
<path d="M160.832 105.966C160.832 105.966 172.313 97.8602 192.562 100.64" stroke="#B2B2B2" stroke-linecap="round" stroke-linejoin="round"/>
<path d="M160.227 110.987C160.227 110.987 171.741 102.848 191.989 105.556" stroke="#B2B2B2" stroke-linecap="round" stroke-linejoin="round"/>
<path d="M159.637 116.008C159.637 116.008 171.173 107.84 191.427 110.448" stroke="#B2B2B2" stroke-linecap="round" stroke-linejoin="round"/>
<path d="M159.047 121.023C159.047 121.023 170.611 112.833 190.865 115.385" stroke="#B2B2B2" stroke-linecap="round" stroke-linejoin="round"/>
<path d="M158.453 126.043C158.453 126.043 170.051 117.82 190.305 120.305" stroke="#B2B2B2" stroke-linecap="round" stroke-linejoin="round"/>
<path d="M157.863 131.064C157.863 131.064 169.489 122.813 189.743 125.221" stroke="#B2B2B2" stroke-linecap="round" stroke-linejoin="round"/>
<path d="M157.27 136.084C157.27 136.084 168.945 127.806 189.177 130.135" stroke="#B2B2B2" stroke-linecap="round" stroke-linejoin="round"/>
<path d="M156.68 141.105C156.68 141.105 168.355 132.799 188.615 135.051" stroke="#B2B2B2" stroke-linecap="round" stroke-linejoin="round"/>
<path d="M156.09 146.125C156.09 146.125 167.799 137.785 188.053 139.97" stroke="#B2B2B2" stroke-linecap="round" stroke-linejoin="round"/>
<path d="M155.496 151.146C155.496 151.146 167.238 142.778 187.52 144.885" stroke="#B2B2B2" stroke-linecap="round" stroke-linejoin="round"/>
<path d="M154.906 156.167C154.906 156.167 166.676 147.771 186.93 149.801" stroke="#B2B2B2" stroke-linecap="round" stroke-linejoin="round"/>
<path d="M154.316 161.181C154.316 161.181 166.114 152.758 186.363 154.726" stroke="#B2B2B2" stroke-linecap="round" stroke-linejoin="round"/>
<path d="M153.723 166.201C153.723 166.201 165.554 157.75 185.802 159.635" stroke="#B2B2B2" stroke-linecap="round" stroke-linejoin="round"/>
<path d="M153.133 171.222C153.133 171.222 164.986 162.743 185.24 164.55" stroke="#B2B2B2" stroke-linecap="round" stroke-linejoin="round"/>
<path d="M152.539 176.242C152.539 176.242 164.426 167.73 184.68 169.465" stroke="#B2B2B2" stroke-linecap="round" stroke-linejoin="round"/>
<path d="M151.938 181.263C151.938 181.263 163.852 172.723 184.106 174.386" stroke="#B2B2B2" stroke-linecap="round" stroke-linejoin="round"/>
<path d="M151.383 186.284C151.383 186.284 163.325 177.716 183.579 179.301" stroke="#B2B2B2" stroke-linecap="round" stroke-linejoin="round"/>
<path d="M150.766 191.304C150.766 191.304 162.741 182.703 183.012 184.215" stroke="#B2B2B2" stroke-linecap="round" stroke-linejoin="round"/>
<path d="M150.176 196.324C150.176 196.324 162.179 187.695 182.422 189.13" stroke="#B2B2B2" stroke-linecap="round" stroke-linejoin="round"/>
<path d="M206.422 62.056C206.422 62.056 222.173 59.8321 244.301 71.4353" stroke="#B2B2B2" stroke-linecap="round" stroke-linejoin="round"/>
<path d="M205.867 67.0208C205.867 67.0208 221.863 64.897 243.818 76.3668" stroke="#B2B2B2" stroke-linecap="round" stroke-linejoin="round"/>
<path d="M205.312 71.9801C205.312 71.9801 221.553 69.9897 243.336 81.2983" stroke="#B2B2B2" stroke-linecap="round" stroke-linejoin="round"/>
<path d="M204.789 76.9449C204.789 76.9449 221.274 75.0824 242.879 86.2352" stroke="#B2B2B2" stroke-linecap="round" stroke-linejoin="round"/>
<path d="M204.238 81.8935C204.238 81.8935 220.973 80.1644 242.406 91.156" stroke="#B2B2B2" stroke-linecap="round" stroke-linejoin="round"/>
<path d="M203.688 86.8964C203.688 86.8964 220.667 85.2952 241.928 96.1256" stroke="#B2B2B2" stroke-linecap="round" stroke-linejoin="round"/>
<path d="M203.145 91.8285C203.145 91.8285 220.38 90.3608 241.457 101.036" stroke="#B2B2B2" stroke-linecap="round" stroke-linejoin="round"/>
<path d="M202.594 96.7931C202.594 96.7931 220.063 95.4477 240.956 105.967" stroke="#B2B2B2" stroke-linecap="round" stroke-linejoin="round"/>
<path d="M202.047 101.753C202.047 101.753 219.76 100.541 240.498 110.898" stroke="#B2B2B2" stroke-linecap="round" stroke-linejoin="round"/>
<path d="M201.496 106.718C201.496 106.718 219.454 105.606 240.025 115.83" stroke="#B2B2B2" stroke-linecap="round" stroke-linejoin="round"/>
<path d="M200.945 111.676C200.945 111.676 219.154 110.726 239.547 120.767" stroke="#B2B2B2" stroke-linecap="round" stroke-linejoin="round"/>
<path d="M200.402 116.641C200.402 116.641 218.85 115.818 239.076 125.698" stroke="#B2B2B2" stroke-linecap="round" stroke-linejoin="round"/>
<path d="M199.852 121.601C199.852 121.601 218.549 120.912 238.598 130.631" stroke="#B2B2B2" stroke-linecap="round" stroke-linejoin="round"/>
<path d="M199.305 126.566C199.305 126.566 218.241 126.01 238.117 135.567" stroke="#B2B2B2" stroke-linecap="round" stroke-linejoin="round"/>
<path d="M198.758 131.525C198.758 131.525 217.945 131.091 237.676 140.498" stroke="#B2B2B2" stroke-linecap="round" stroke-linejoin="round"/>
<path d="M198.207 136.489C198.207 136.489 217.638 136.184 237.17 145.43" stroke="#B2B2B2" stroke-linecap="round" stroke-linejoin="round"/>
<path d="M197.66 141.449C197.66 141.449 217.336 141.277 236.69 150.345" stroke="#B2B2B2" stroke-linecap="round" stroke-linejoin="round"/>
<path d="M197.109 146.415C197.109 146.415 217.03 146.37 236.217 155.31" stroke="#B2B2B2" stroke-linecap="round" stroke-linejoin="round"/>
<path d="M196.566 151.39C196.566 151.39 216.732 151.479 235.741 160.247" stroke="#B2B2B2" stroke-linecap="round" stroke-linejoin="round"/>
<path d="M196.016 156.338C196.016 156.338 216.426 156.555 235.268 165.162" stroke="#B2B2B2" stroke-linecap="round" stroke-linejoin="round"/>
<path d="M195.469 161.298C195.469 161.298 216.123 161.643 234.787 170.099" stroke="#B2B2B2" stroke-linecap="round" stroke-linejoin="round"/>
<path d="M194.918 166.263C194.918 166.263 215.817 166.735 234.309 175.03" stroke="#B2B2B2" stroke-linecap="round" stroke-linejoin="round"/>
<path d="M194.371 171.222C194.371 171.222 215.498 171.828 233.845 179.962" stroke="#B2B2B2" stroke-linecap="round" stroke-linejoin="round"/>
<path d="M193.824 176.187C193.824 176.187 215.213 176.92 233.36 184.899" stroke="#B2B2B2" stroke-linecap="round" stroke-linejoin="round"/>
<path d="M193.273 181.146C193.273 181.146 214.912 182.013 232.887 189.83" stroke="#B2B2B2" stroke-linecap="round" stroke-linejoin="round"/>
<path d="M192.73 186.111C192.73 186.111 214.608 187.106 232.41 194.762" stroke="#B2B2B2" stroke-linecap="round" stroke-linejoin="round"/>
<path d="M192.18 191.07C192.18 191.07 214.308 192.182 231.932 199.699" stroke="#B2B2B2" stroke-linecap="round" stroke-linejoin="round"/>
<path d="M92.8477 68.216C92.8477 68.216 98.4074 61.6832 116.421 61.3052" stroke="#B2B2B2" stroke-linecap="round" stroke-linejoin="round"/>
<path d="M92.1719 73.198C92.1719 73.198 97.7316 66.7598 115.773 66.2705" stroke="#B2B2B2" stroke-linecap="round" stroke-linejoin="round"/>
<path d="M91.4844 78.1852C91.4844 78.1852 97.0441 71.836 115.119 71.23" stroke="#B2B2B2" stroke-linecap="round" stroke-linejoin="round"/>
<path d="M90.8086 83.1723C90.8086 83.1723 96.3684 76.9176 114.476 76.1948" stroke="#B2B2B2" stroke-linecap="round" stroke-linejoin="round"/>
<path d="M90.1289 88.1531C90.1289 88.1531 95.6887 81.9928 113.825 81.1533" stroke="#B2B2B2" stroke-linecap="round" stroke-linejoin="round"/>
<path d="M89.4453 93.1406C89.4453 93.1406 95.0051 87.0694 113.174 86.1187" stroke="#B2B2B2" stroke-linecap="round" stroke-linejoin="round"/>
<path d="M88.7656 98.1223C88.7656 98.1223 94.3254 92.1456 112.522 91.0781" stroke="#B2B2B2" stroke-linecap="round" stroke-linejoin="round"/>
<path d="M88.0859 103.109C88.0859 103.109 93.6457 97.2267 111.876 96.0425" stroke="#B2B2B2" stroke-linecap="round" stroke-linejoin="round"/>
<path d="M87.4062 108.097C87.4062 108.097 92.9994 102.303 111.23 101.002" stroke="#B2B2B2" stroke-linecap="round" stroke-linejoin="round"/>
<path d="M86.7266 113.078C86.7266 113.078 92.3197 107.379 110.578 105.967" stroke="#B2B2B2" stroke-linecap="round" stroke-linejoin="round"/>
<path d="M86.0508 118.065C86.0508 118.037 91.6439 112.455 109.93 110.926" stroke="#B2B2B2" stroke-linecap="round" stroke-linejoin="round"/>
<path d="M85.3711 123.035C85.3711 123.007 90.9642 117.526 109.278 115.88" stroke="#B2B2B2" stroke-linecap="round" stroke-linejoin="round"/>
<path d="M84.6641 128.039C84.6919 128.005 90.2627 122.618 108.61 120.855" stroke="#B2B2B2" stroke-linecap="round" stroke-linejoin="round"/>
<path d="M84.0078 133.044C84.0356 133.005 89.6065 127.712 107.982 125.816" stroke="#B2B2B2" stroke-linecap="round" stroke-linejoin="round"/>
<path d="M83.3281 138.002C83.3559 137.963 88.9268 132.765 107.33 130.774" stroke="#B2B2B2" stroke-linecap="round" stroke-linejoin="round"/>
<path d="M82.6484 142.989C82.6818 142.945 88.2527 137.847 106.689 135.762" stroke="#B2B2B2" stroke-linecap="round" stroke-linejoin="round"/>
<path d="M81.9688 147.97C82.0021 147.926 87.573 142.922 106.037 140.698" stroke="#B2B2B2" stroke-linecap="round" stroke-linejoin="round"/>
<path d="M81.2891 152.957C81.3224 152.907 86.8933 147.998 105.385 145.663" stroke="#B2B2B2" stroke-linecap="round" stroke-linejoin="round"/>
<path d="M80.6055 157.945C80.6444 157.895 86.2153 153.074 104.735 150.623" stroke="#B2B2B2" stroke-linecap="round" stroke-linejoin="round"/>
<path d="M79.9258 162.927C79.9647 162.877 85.5356 158.157 104.089 155.588" stroke="#B2B2B2" stroke-linecap="round" stroke-linejoin="round"/>
<path d="M79.25 167.914C79.2889 167.858 84.8598 163.233 103.441 160.547" stroke="#B2B2B2" stroke-linecap="round" stroke-linejoin="round"/>
<path d="M78.5508 172.895C78.6008 172.839 84.1661 168.308 102.775 165.512" stroke="#B2B2B2" stroke-linecap="round" stroke-linejoin="round"/>
<path d="M77.8867 177.882C77.9368 177.821 83.5021 173.385 102.138 170.471" stroke="#B2B2B2" stroke-linecap="round" stroke-linejoin="round"/>
<path d="M77.2109 182.869C77.261 182.803 82.8263 178.466 101.496 175.436" stroke="#B2B2B2" stroke-linecap="round" stroke-linejoin="round"/>
<path d="M76.5234 187.851C76.579 187.784 82.1499 183.542 100.842 180.396" stroke="#B2B2B2" stroke-linecap="round" stroke-linejoin="round"/>
<path d="M75.8477 192.838C75.9033 192.766 81.4741 188.619 100.194 185.361" stroke="#B2B2B2" stroke-linecap="round" stroke-linejoin="round"/>
<path d="M75.168 197.819C75.2236 197.747 80.7944 193.694 99.542 190.319" stroke="#B2B2B2" stroke-linecap="round" stroke-linejoin="round"/>
<path d="M123.547 59.8103C123.547 59.8103 137.096 54.9344 149.8 63.5576" stroke="#B2B2B2" stroke-linecap="round" stroke-linejoin="round"/>
<path d="M122.926 64.7578C122.926 64.7578 136.43 59.9097 149.296 68.4495" stroke="#B2B2B2" stroke-linecap="round" stroke-linejoin="round"/>
<path d="M122.305 69.7002C122.305 69.7002 135.765 64.8855 148.791 73.3363" stroke="#B2B2B2" stroke-linecap="round" stroke-linejoin="round"/>
<path d="M121.688 74.6653C121.688 74.6653 135.103 69.8784 148.285 78.2458" stroke="#B2B2B2" stroke-linecap="round" stroke-linejoin="round"/>
<path d="M121.062 79.5969C125.51 78.2845 130.182 77.9195 134.779 78.5257C139.376 79.132 143.795 80.6958 147.749 83.1163" stroke="#B2B2B2" stroke-linecap="round" stroke-linejoin="round"/>
<path d="M120.449 84.5454C124.917 83.235 129.608 82.8663 134.226 83.4625C138.843 84.0587 143.287 85.6069 147.275 88.0091" stroke="#B2B2B2" stroke-linecap="round" stroke-linejoin="round"/>
<path d="M119.824 89.4935C124.31 88.1893 129.016 87.8184 133.651 88.4036C138.286 88.9888 142.751 90.5177 146.772 92.8961" stroke="#B2B2B2" stroke-linecap="round" stroke-linejoin="round"/>
<path d="M119.207 94.4418C119.207 94.4418 132.439 89.766 146.266 97.7776" stroke="#B2B2B2" stroke-linecap="round" stroke-linejoin="round"/>
<path d="M118.578 99.3896C118.578 99.3896 131.766 94.7416 145.754 102.675" stroke="#B2B2B2" stroke-linecap="round" stroke-linejoin="round"/>
<path d="M117.965 104.338C117.965 104.338 131.108 99.7177 145.252 107.568" stroke="#B2B2B2" stroke-linecap="round" stroke-linejoin="round"/>
<path d="M117.344 109.286C117.344 109.286 130.443 104.699 144.748 112.455" stroke="#B2B2B2" stroke-linecap="round" stroke-linejoin="round"/>
<path d="M116.723 114.229C116.723 114.229 129.777 109.675 144.249 117.348" stroke="#B2B2B2" stroke-linecap="round" stroke-linejoin="round"/>
<path d="M116.105 119.177C116.105 119.177 129.115 114.651 143.743 122.235" stroke="#B2B2B2" stroke-linecap="round" stroke-linejoin="round"/>
<path d="M115.484 124.147C115.484 124.147 128.45 119.649 143.239 127.149" stroke="#B2B2B2" stroke-linecap="round" stroke-linejoin="round"/>
<path d="M114.867 129.073C114.867 129.073 127.783 124.626 142.733 132.014" stroke="#B2B2B2" stroke-linecap="round" stroke-linejoin="round"/>
<path d="M114.242 134.022C114.242 134.022 127.119 129.574 142.224 136.907" stroke="#B2B2B2" stroke-linecap="round" stroke-linejoin="round"/>
<path d="M113.625 138.971C113.625 138.971 126.451 134.556 141.724 141.795" stroke="#B2B2B2" stroke-linecap="round" stroke-linejoin="round"/>
<path d="M113.02 143.918C113.02 143.918 125.807 139.531 141.235 146.698" stroke="#B2B2B2" stroke-linecap="round" stroke-linejoin="round"/>
<path d="M112.387 148.865C112.387 148.865 125.124 144.506 140.714 151.578" stroke="#B2B2B2" stroke-linecap="round" stroke-linejoin="round"/>
<path d="M111.762 153.814C111.762 153.814 124.455 149.483 140.205 156.466" stroke="#B2B2B2" stroke-linecap="round" stroke-linejoin="round"/>
<path d="M111.141 158.763C111.141 158.763 123.789 154.459 139.701 161.359" stroke="#B2B2B2" stroke-linecap="round" stroke-linejoin="round"/>
<path d="M110.523 163.705C110.523 163.705 123.122 159.435 139.201 166.246" stroke="#B2B2B2" stroke-linecap="round" stroke-linejoin="round"/>
<path d="M109.902 168.654C109.902 168.654 122.462 164.417 138.696 171.139" stroke="#B2B2B2" stroke-linecap="round" stroke-linejoin="round"/>
<path d="M109.285 173.63C109.285 173.63 121.795 169.421 138.196 176.054" stroke="#B2B2B2" stroke-linecap="round" stroke-linejoin="round"/>
<path d="M108.66 178.55C108.66 178.55 121.125 174.369 137.682 180.918" stroke="#B2B2B2" stroke-linecap="round" stroke-linejoin="round"/>
<path d="M108.043 183.498C108.043 183.498 120.463 179.345 137.176 185.805" stroke="#B2B2B2" stroke-linecap="round" stroke-linejoin="round"/>
<path d="M107.422 188.446C107.422 188.446 119.798 184.32 136.677 190.697" stroke="#B2B2B2" stroke-linecap="round" stroke-linejoin="round"/>
<path d="M165.053 44.7378L157.309 115.458L164.242 105.678L169.54 111.36L176.879 40.4346C176.879 40.4346 170.352 40.8682 165.053 44.7378Z" fill="#263238" stroke="#263238" stroke-linecap="round" stroke-linejoin="round"/>
<path d="M36.192 235.176C36.192 235.176 35.4804 235.443 36.1031 236.066C36.7258 236.688 39.2277 237.139 41.4571 236.961C43.3914 236.715 45.2828 236.204 47.0781 235.443C47.9676 235.087 47.3449 233.125 47.3449 233.125L36.192 235.176Z" fill="#263238" stroke="#263238" stroke-linecap="round" stroke-linejoin="round"/>
<path d="M40.1879 218.958C40.1879 218.958 41.5278 228.844 41.5278 229.288C41.5278 229.733 38.0474 233.658 36.3517 234.548C34.6559 235.438 39.0315 236.244 40.9051 236.066C42.7787 235.888 45.5419 235.354 46.0757 234.998C46.6094 234.642 47.2377 234.37 47.3266 233.125C47.4156 231.879 46.7039 228.037 46.7039 228.037L46.8596 218.63L40.1879 218.958Z" fill="white" stroke="#263238" stroke-linecap="round" stroke-linejoin="round"/>
<path d="M46.7427 228.171C44.9992 228.565 43.1955 228.614 41.4331 228.315C41.4998 228.871 41.5443 229.211 41.5443 229.288C41.2925 229.803 40.9582 230.272 40.5547 230.678C41.4387 230.517 43.2345 230.35 44.3798 231.284C45.2304 231.979 45.5974 233.214 45.4584 234.948C45.4532 235.045 45.4683 235.141 45.5029 235.232C45.7083 235.179 45.9063 235.1 46.0922 234.998C46.3226 234.858 46.542 234.7 46.7483 234.526C46.8039 232.619 46.2812 231.19 45.1804 230.295C44.9292 230.091 44.6549 229.917 44.3631 229.778C45.237 229.739 46.1058 229.624 46.9595 229.433C46.8595 228.855 46.7816 228.388 46.7427 228.171Z" fill="#263238"/>
<path d="M43.7 232.319C42.5541 231.629 41.2174 231.325 39.886 231.451C39.4524 231.924 38.9742 232.413 38.4961 232.874C39.8471 232.647 41.832 232.558 42.9439 233.375C43.288 233.632 43.5648 233.969 43.7507 234.356C43.9365 234.743 44.026 235.169 44.0114 235.599C44.0114 235.599 44.0114 235.599 44.0114 235.627C44.4784 235.532 44.9121 235.432 45.2623 235.332C45.2464 234.744 45.0976 234.168 44.827 233.646C44.5564 233.124 44.1711 232.67 43.7 232.319Z" fill="#263238"/>
<path d="M71.0753 234.57C70.9911 234.627 70.9194 234.701 70.8646 234.787C70.8097 234.872 70.7728 234.968 70.7562 235.069C70.7396 235.169 70.7435 235.272 70.7678 235.37C70.792 235.469 70.8361 235.562 70.8974 235.643C71.3422 236.266 72.9489 236.266 73.8385 236.266C74.7281 236.266 79.3705 236.355 79.3705 236.355C79.3705 236.355 86.1478 236.266 87.1541 235.999C88.1604 235.732 88.2216 235.198 87.8658 234.926C87.5365 234.759 87.1639 234.697 86.7983 234.748C85.1691 234.944 83.5243 234.973 81.889 234.837C79.9264 234.57 74.0386 234.659 73.1491 234.57C72.4588 234.519 71.7656 234.519 71.0753 234.57Z" fill="#263238" stroke="#263238" stroke-linecap="round" stroke-linejoin="round"/>
<path d="M67.9141 219.369C67.9141 219.369 70.8941 228.326 70.9831 228.771C71.1161 229.691 71.1756 230.621 71.161 231.551C71.161 232.796 70.3548 234.136 71.7837 235.026C73.2125 235.915 77.1377 235.298 79.1003 235.476C81.12 235.61 83.1463 235.61 85.166 235.476C87.8403 235.387 88.8243 233.958 88.1961 233.691C87.5678 233.424 87.3065 234.136 84.3598 232.44C81.4132 230.745 76.2426 228.248 76.0647 227.714C75.8868 227.181 74.9082 219.33 74.9082 219.33L67.9141 219.369Z" fill="white" stroke="#263238" stroke-linecap="round" stroke-linejoin="round"/>
<path d="M81.3311 230.773C80.7731 232.303 80.4944 233.92 80.5083 235.549C80.9308 235.549 81.3534 235.549 81.7871 235.549C81.7792 234.127 82.0084 232.714 82.4653 231.368L81.3311 230.773Z" fill="#263238"/>
<path d="M75.0645 235.51C75.2905 233.075 76.2392 230.763 77.7888 228.871C77.344 228.621 76.9604 228.393 76.6768 228.204C75.0139 230.289 74.0111 232.823 73.7969 235.482C74.1916 235.51 74.6197 235.515 75.0645 235.51Z" fill="#263238"/>
<path d="M76.0639 227.704C76.0361 227.621 75.9917 227.359 75.9305 226.981C74.2362 227.467 72.4882 227.739 70.7266 227.793C70.8711 228.321 70.9656 228.688 70.9823 228.771L71.0268 229.066C72.8983 228.994 74.7523 228.678 76.5421 228.127C76.3545 228.021 76.1914 227.877 76.0639 227.704Z" fill="#263238"/>
<path d="M60.9022 93.647C60.9022 93.647 61.3248 97.4387 62.1143 99.0677C62.9037 100.697 64.7996 102.02 64.3382 105.389C63.8767 108.758 61.3859 110.499 60.0683 110.765C59.3377 110.922 58.5912 110.991 57.8444 110.971L58.1057 114.713C60.2669 114.632 62.4294 114.834 64.5383 115.313C67.2848 116.075 71.766 117.598 73.7564 117.904C75.7468 118.21 83.3525 118.599 84.8759 120.273C86.3993 121.946 86.0157 123.475 85.1039 124.387C84.1921 125.299 79.394 125.065 73.0725 125.065H66.7566C66.7566 125.065 68.2022 128.796 67.9742 131.464C67.7463 134.133 65.4612 138.853 65.4612 138.853C65.4612 138.853 65.6892 144.185 66.1451 148.305C66.601 152.425 66.7011 155.082 66.7011 155.082C66.7011 155.082 69.2141 172.067 72.183 183.343C75.1519 194.618 74.8517 211.447 75.6133 214.416C76.375 217.385 76.8087 220.332 76.8087 220.332C76.8087 220.332 69.4976 221.777 66.9068 221.933C65.6395 222.025 64.3683 222.051 63.0983 222.011L61.575 207.155C61.575 207.155 58.606 187.429 58.4504 187.14C58.2947 186.851 54.0359 172.362 54.0359 172.362L51.3672 198.093L48.8542 221.549L37.4067 220.126L37.6346 191.716C37.6346 191.716 37.0286 175.186 37.1787 168.331C37.3288 161.476 39.4638 155.383 41.3652 152.942C43.2667 150.501 47.9925 143.49 47.9925 143.49L47.1585 138.692L42.7107 129.936C42.7107 129.936 32.4696 137.297 30.7183 138.52C28.9669 139.743 26.8264 138.826 26.2705 135.929C25.7145 133.032 39.3303 121.023 41.4653 119.5C43.6002 117.976 50.9169 113.862 50.9169 113.862L50.6111 110.204C50.6111 110.204 48.0203 109.37 47.1084 107.313C46.1966 105.256 49.5436 102.665 49.6215 100.991C49.6993 99.3179 48.4039 96.2656 50.5333 95.5039C52.6627 94.7422 60.9022 93.647 60.9022 93.647Z" fill="white" stroke="#263238" stroke-linecap="round" stroke-linejoin="round"/>
<path d="M63.0998 222.033C64.3697 222.073 65.6409 222.047 66.9082 221.955C69.4991 221.8 76.8101 220.354 76.8101 220.354C76.8101 220.354 76.3542 217.385 75.5926 214.411C74.8309 211.436 75.1367 194.607 72.1622 183.337C69.1877 172.068 66.6803 155.077 66.6803 155.077C66.6803 155.077 66.6024 152.408 66.1243 148.3C65.9297 146.565 65.7796 144.613 65.6684 142.94L47.9272 143.096L47.9939 143.496C47.9939 143.496 43.2737 150.507 41.3667 152.948C39.4597 155.388 37.3303 161.482 37.1802 168.337C37.03 175.192 37.6361 191.721 37.6361 191.721L37.4081 220.126L48.8334 221.572L51.3687 198.093L54.0374 172.346C54.0374 172.346 58.3017 186.801 58.4518 187.123C58.6019 187.446 61.5764 207.139 61.5764 207.139L63.0998 222.033Z" fill="#9EB4FF" stroke="#263238" stroke-linecap="round" stroke-linejoin="round"/>
<path d="M59.6875 148.862L65.125 148.784" stroke="#263238" stroke-linecap="round" stroke-linejoin="round"/>
<path d="M51.8164 148.978L58.3491 148.883" stroke="#263238" stroke-linecap="round" stroke-linejoin="round"/>
<path d="M62.1445 148.877L63.44 160.302" stroke="#263238" stroke-linecap="round" stroke-linejoin="round"/>
<path d="M63.0391 150.368L66.0191 163.783" stroke="#263238" stroke-linecap="round" stroke-linejoin="round"/>
<path d="M50.9196 149.973L48.3398 159.708" stroke="#263238" stroke-linecap="round" stroke-linejoin="round"/>
<path d="M50.1791 161.948L50.0234 163.483" stroke="#263238" stroke-linecap="round" stroke-linejoin="round"/>
<path d="M51.2195 151.562L50.3633 160.108" stroke="#263238" stroke-linecap="round" stroke-linejoin="round"/>
<path d="M53.7031 98.6446C54.029 98.3256 54.4194 98.0802 54.8481 97.9248C55.2768 97.7695 55.7338 97.7078 56.1883 97.7439" stroke="#263238" stroke-miterlimit="10"/>
<path d="M59.3672 96.5324C59.7324 96.1136 60.2432 95.8493 60.796 95.793" stroke="#263238" stroke-miterlimit="10"/>
<path d="M64.7433 98.7623C64.7433 99.2978 64.5845 99.8213 64.287 100.267C63.9895 100.712 63.5666 101.059 63.0719 101.264C62.5771 101.469 62.0327 101.522 61.5075 101.418C60.9823 101.313 60.4998 101.056 60.1212 100.677C59.7425 100.298 59.4846 99.8157 59.3802 99.2905C59.2757 98.7653 59.3293 98.2209 59.5342 97.7261C59.7392 97.2314 60.0862 96.8085 60.5315 96.511C60.9767 96.2135 61.5002 96.0547 62.0357 96.0547C62.7538 96.0547 63.4425 96.34 63.9503 96.8477C64.4581 97.3555 64.7433 98.0442 64.7433 98.7623Z" stroke="#263238" stroke-linecap="round" stroke-linejoin="round"/>
<path d="M57.918 105.033C58.4105 105.318 58.9588 105.492 59.5251 105.543C60.0915 105.595 60.6623 105.524 61.1982 105.333" stroke="#263238" stroke-linecap="round" stroke-linejoin="round"/>
<path d="M58.4549 101.031C58.4549 101.565 58.2964 102.087 57.9995 102.532C57.7026 102.976 57.2806 103.323 56.7869 103.527C56.2931 103.732 55.7498 103.785 55.2257 103.681C54.7015 103.577 54.2201 103.319 53.8422 102.941C53.4643 102.563 53.207 102.082 53.1027 101.558C52.9984 101.034 53.052 100.49 53.2565 99.9966C53.461 99.5029 53.8073 99.0809 54.2517 98.784C54.696 98.4871 55.2184 98.3286 55.7528 98.3286C56.4695 98.3286 57.1567 98.6133 57.6635 99.12C58.1702 99.6268 58.4549 100.314 58.4549 101.031Z" stroke="#263238" stroke-linecap="round" stroke-linejoin="round"/>
<path d="M57.0025 100.875C57.0859 101.353 56.958 101.775 56.7078 101.82C56.4576 101.864 56.1908 101.514 56.1018 101.041C56.0129 100.569 56.1463 100.141 56.3965 100.096C56.6467 100.052 56.9135 100.396 57.0025 100.875Z" fill="#263238"/>
<path d="M61.4401 99.2901C61.5291 99.7627 61.4012 100.185 61.151 100.23C60.9008 100.274 60.6284 99.9295 60.545 99.4513C60.4616 98.9732 60.5895 98.5562 60.8341 98.5062C61.0787 98.4561 61.3567 98.8119 61.4401 99.2901Z" fill="#263238"/>
<path d="M53.2005 101.987L49.1641 103.888" stroke="#263238" stroke-linecap="round" stroke-linejoin="round"/>
<path d="M58.3789 100.241C58.4724 100.102 58.6001 99.9897 58.7497 99.9141C58.8993 99.8386 59.0657 99.8027 59.2331 99.81C59.4005 99.8173 59.5633 99.8674 59.7057 99.9556C59.8482 100.044 59.9657 100.167 60.0468 100.314" stroke="#263238" stroke-linecap="round" stroke-linejoin="round"/>
<path d="M59.0898 99.5459C59.3222 99.9061 59.6718 100.175 60.0795 100.308C60.6911 100.463 62.4424 100.613 62.3034 101.453C62.2463 101.798 62.1055 102.124 61.8932 102.402C61.6809 102.68 61.4037 102.902 61.0858 103.049" stroke="#263238" stroke-linecap="round" stroke-linejoin="round"/>
<path d="M50.4217 96.599C50.4217 96.599 50.8943 99.7458 50.4995 101.797C50.1048 103.849 48.3757 104.627 48.6092 106.284C48.8427 107.941 51.3891 110.376 51.3891 110.376C50.7168 111.186 49.8748 111.838 48.9228 112.287C47.9708 112.735 46.9318 112.969 45.8794 112.972C42.1543 113.028 39.0742 111.633 39.0742 105.417C39.0742 99.201 39.9415 92.1901 44.4283 89.9884C48.915 87.7868 57.338 88.6485 59.2284 89.3602C61.1187 90.0718 63.2425 92.507 62.5309 93.6857C61.8192 94.8643 53.5685 96.9937 50.4217 96.599Z" fill="#263238" stroke="#263238" stroke-linecap="round" stroke-linejoin="round"/>
<path d="M50.3811 104.878C50.3811 104.878 48.0961 102.899 47.1842 103.888C46.2724 104.878 47.4122 106.629 48.2462 107.619C48.3784 107.792 48.55 107.931 48.7466 108.024C48.9432 108.117 49.1592 108.162 49.3767 108.155C49.5942 108.148 49.8068 108.089 49.997 107.983C50.1871 107.877 50.3493 107.728 50.4701 107.547" fill="white"/>
<path d="M50.3811 104.878C50.3811 104.878 48.0961 102.899 47.1842 103.888C46.2724 104.878 47.4122 106.629 48.2462 107.619C48.3784 107.792 48.55 107.931 48.7466 108.024C48.9432 108.117 49.1592 108.162 49.3767 108.155C49.5942 108.148 49.8068 108.089 49.997 107.983C50.1871 107.877 50.3493 107.728 50.4701 107.547" stroke="#263238" stroke-linecap="round" stroke-linejoin="round"/>
<path d="M57.8499 110.977L55.1367 110.61L58 114.062L57.8499 110.977Z" fill="#263238" stroke="#263238" stroke-linecap="round" stroke-linejoin="round"/>
<path d="M83.0801 124.22C82.0035 124.093 80.9725 123.712 80.0722 123.108C78.749 122.152 78.2375 119.216 77.0644 117.087C75.8913 114.958 69.8367 104.583 69.8367 104.583C69.2466 104.555 68.673 104.379 68.1688 104.071C67.3626 103.554 66.5564 102.893 65.3111 102.748C64.0657 102.604 63.3985 102.821 62.9593 102.676C62.5201 102.531 62.8147 101.28 63.8433 101.008C64.8718 100.736 66.4119 101.303 66.4119 101.303C66.4906 100.514 66.415 99.7168 66.1895 98.9565C65.8226 98.0002 64.5772 96.8994 63.6932 96.3879C62.8092 95.8764 61.8584 95.8708 62.2254 95.3593C62.5923 94.8478 63.1094 94.6977 64.2102 94.8423C65.3111 94.9868 67.2181 96.9717 67.2181 96.9717C67.2181 96.9717 68.886 98.2949 69.2696 98.2949C69.6532 98.2949 71.1822 98.2226 71.9161 99.4068C72.65 100.591 73.306 103.076 73.2337 103.738C73.1909 104.152 73.1909 104.569 73.2337 104.983C73.2337 104.983 81.5122 114.629 83.2413 116.314C84.9704 117.999 86.1768 121.874 85.8822 122.847C85.7161 123.405 85.4608 123.933 85.1261 124.409" fill="white"/>
<path d="M83.0801 124.22C82.0035 124.093 80.9725 123.712 80.0722 123.108C78.749 122.152 78.2375 119.216 77.0644 117.087C75.8913 114.958 69.8367 104.583 69.8367 104.583C69.2466 104.555 68.673 104.379 68.1688 104.071C67.3626 103.554 66.5564 102.893 65.3111 102.748C64.0657 102.604 63.3985 102.821 62.9593 102.676C62.5201 102.531 62.8147 101.28 63.8433 101.008C64.8718 100.736 66.4119 101.303 66.4119 101.303C66.4906 100.514 66.415 99.7168 66.1895 98.9565C65.8226 98.0002 64.5772 96.8994 63.6932 96.3879C62.8092 95.8764 61.8584 95.8708 62.2254 95.3593C62.5923 94.8478 63.1094 94.6977 64.2102 94.8423C65.3111 94.9868 67.2181 96.9717 67.2181 96.9717C67.2181 96.9717 68.886 98.2949 69.2696 98.2949C69.6532 98.2949 71.1822 98.2226 71.9161 99.4068C72.65 100.591 73.306 103.076 73.2337 103.738C73.1909 104.152 73.1909 104.569 73.2337 104.983C73.2337 104.983 81.5122 114.629 83.2413 116.314C84.9704 117.999 86.1768 121.874 85.8822 122.847C85.7161 123.405 85.4608 123.933 85.1261 124.409" stroke="#263238" stroke-linecap="round" stroke-linejoin="round"/>
<path d="M68.9328 97.4611C68.8488 97.2833 68.7206 97.1301 68.5603 97.0163C67.4483 96.2046 67.0035 97.778 67.0369 98.5063C67.0863 99.0834 67.2349 99.6476 67.4761 100.174C67.554 100.363 67.6874 100.58 67.9042 100.569C67.9573 100.566 68.0091 100.551 68.0561 100.526C68.1031 100.501 68.1442 100.467 68.1766 100.424C68.5881 99.963 68.2378 99.2513 68.4713 98.7009C68.6047 98.3784 68.9383 98.1449 68.9828 97.7891C68.9945 97.6773 68.9773 97.5643 68.9328 97.4611Z" fill="white" stroke="#263238" stroke-linecap="round" stroke-linejoin="round"/>
<path d="M70.4015 97.5385C70.3176 97.3608 70.1893 97.2076 70.029 97.0938C68.9171 96.2876 68.4723 97.8555 68.5056 98.5838C68.555 99.1609 68.7036 99.7252 68.9449 100.252C69.0227 100.435 69.1561 100.658 69.373 100.646C69.4262 100.641 69.4778 100.625 69.5246 100.599C69.5714 100.574 69.6125 100.539 69.6454 100.496C70.0568 100.04 69.7066 99.3288 69.9401 98.7784C70.0735 98.4559 70.4071 98.2224 70.4516 97.861C70.4616 97.751 70.4444 97.6403 70.4015 97.5385Z" fill="white" stroke="#263238" stroke-linecap="round" stroke-linejoin="round"/>
<path d="M71.7528 98.1502C71.6789 97.9896 71.5638 97.8515 71.4192 97.7499C70.4351 97.016 70.0125 98.4393 70.0403 99.0953C70.0835 99.6238 70.2171 100.141 70.4351 100.624C70.5074 100.791 70.6297 100.991 70.8243 100.98C70.8728 100.976 70.92 100.962 70.963 100.939C71.006 100.916 71.0439 100.885 71.0745 100.847C71.447 100.435 71.1245 99.7903 71.3358 99.2899C71.4581 99.0008 71.7583 98.7729 71.8028 98.4615C71.8139 98.3551 71.7966 98.2477 71.7528 98.1502Z" fill="white" stroke="#263238" stroke-linecap="round" stroke-linejoin="round"/>
<path d="M69.5938 102.032C69.6693 102.68 69.8674 103.309 70.1775 103.883C70.5563 104.269 71.0666 104.497 71.6064 104.523" stroke="#263238" stroke-linecap="round" stroke-linejoin="round"/>
<path d="M65.4636 138.854C65.4636 138.854 67.7487 134.128 67.9766 131.465C68.2046 128.802 66.759 125.065 66.759 125.065C66.759 125.065 62.4335 116.859 61.1993 114.785C60.5933 114.735 60.0373 114.713 59.5313 114.708C60.063 115.471 60.5157 116.287 60.8824 117.143C61.1103 117.982 63.0173 122.775 63.0173 122.775L58.2192 127.567L50.8025 124.148C50.5098 122.014 49.8949 119.937 48.9789 117.988C48.5872 117.216 48.1413 116.473 47.6446 115.764L46.6772 116.32C46.9888 116.747 47.2747 117.193 47.5334 117.654C48.8232 119.939 49.129 124.576 49.129 124.576C49.129 124.576 46.238 128.612 45.5541 130.742C45.2639 131.634 44.909 132.504 44.4922 133.344L47.1831 138.676L47.5834 140.966L65.4914 139.482C65.4747 139.093 65.4636 138.854 65.4636 138.854Z" fill="#9EB4FF" stroke="#263238" stroke-linecap="round" stroke-linejoin="round"/>
<path d="M29.3355 131.342C29.3355 131.342 25.2935 134.55 25.2268 136.252C25.1601 137.953 38.8983 150.523 39.9491 151.263C40.9999 152.002 41.9784 152.241 42.5677 151.98C43.157 151.719 46.4929 149.823 46.4929 149.823C46.4929 149.823 50.546 149.495 50.8073 149.106C51.0686 148.717 50.874 148.644 50.0901 148.578C49.3061 148.511 48.3221 148.316 48.1275 148.316C47.9329 148.316 46.9488 148.188 46.9488 148.188C46.9488 148.188 51.3354 146.554 51.5968 146.487C51.8581 146.42 53.0367 146.354 52.8366 145.898C52.6364 145.442 51.3966 144.786 50.2847 144.458C49.1727 144.13 46.4262 143.868 45.6423 144.458C44.8583 145.047 41.7171 148.711 41.7171 148.711C40.2158 146.996 39.0806 144.992 38.3812 142.823C37.2693 139.287 32.9549 134.367 31.5149 133.372" fill="white"/>
<path d="M29.3355 131.342C29.3355 131.342 25.2935 134.55 25.2268 136.252C25.1601 137.953 38.8983 150.523 39.9491 151.263C40.9999 152.002 41.9784 152.241 42.5677 151.98C43.157 151.719 46.4929 149.823 46.4929 149.823C46.4929 149.823 50.546 149.495 50.8073 149.106C51.0686 148.717 50.874 148.644 50.0901 148.578C49.3061 148.511 48.3221 148.316 48.1275 148.316C47.9329 148.316 46.9488 148.188 46.9488 148.188C46.9488 148.188 51.3354 146.554 51.5968 146.487C51.8581 146.42 53.0367 146.354 52.8366 145.898C52.6364 145.442 51.3966 144.786 50.2847 144.458C49.1727 144.13 46.4262 143.868 45.6423 144.458C44.8583 145.047 41.7171 148.711 41.7171 148.711C40.2158 146.996 39.0806 144.992 38.3812 142.823C37.2693 139.287 32.9549 134.367 31.5149 133.372" stroke="#263238" stroke-linecap="round" stroke-linejoin="round"/>
<path d="M46.7539 146.798C46.7539 146.798 48.3885 146.208 49.5671 145.814C50.7458 145.419 51.6576 145.096 52.247 145.486" stroke="#263238" stroke-linecap="round" stroke-linejoin="round"/>
<path d="M46.2305 145.552C47.5285 145.01 48.8906 144.637 50.2835 144.44" stroke="#263238" stroke-linecap="round" stroke-linejoin="round"/>
<path d="M45.8359 144.897C46.4265 144.528 47.0643 144.242 47.7318 144.046" stroke="#263238" stroke-linecap="round" stroke-linejoin="round"/>
<path d="M284.943 128.19C284.576 128.19 284.31 128.133 284.145 128.019C283.98 127.918 283.873 127.778 283.822 127.601C283.784 127.424 283.765 127.234 283.765 127.031V116.068C283.765 115.853 283.784 115.656 283.822 115.479C283.873 115.302 283.974 115.162 284.126 115.061C284.291 114.96 284.557 114.909 284.924 114.909C285.279 114.909 285.532 114.96 285.684 115.061C285.849 115.162 285.95 115.302 285.988 115.479C286.039 115.656 286.064 115.853 286.064 116.068V126.138H291.859C292.049 126.138 292.22 126.157 292.372 126.195C292.524 126.22 292.644 126.309 292.733 126.461C292.822 126.6 292.866 126.828 292.866 127.145C292.866 127.462 292.822 127.696 292.733 127.848C292.644 127.987 292.524 128.076 292.372 128.114C292.22 128.165 292.049 128.19 291.859 128.19H284.943ZM295.678 128.19C295.336 128.19 295.083 128.133 294.918 128.019C294.753 127.918 294.652 127.785 294.614 127.62C294.576 127.443 294.557 127.246 294.557 127.031V119.963C294.557 119.76 294.576 119.577 294.614 119.412C294.665 119.235 294.766 119.095 294.918 118.994C295.083 118.893 295.342 118.842 295.697 118.842C296.052 118.842 296.305 118.893 296.457 118.994C296.622 119.095 296.723 119.235 296.761 119.412C296.799 119.589 296.818 119.786 296.818 120.001V127.05C296.818 127.265 296.799 127.462 296.761 127.639C296.723 127.804 296.622 127.937 296.457 128.038C296.305 128.139 296.045 128.19 295.678 128.19ZM295.678 116.999C295.311 116.999 295.038 116.948 294.861 116.847C294.696 116.733 294.589 116.581 294.538 116.391C294.5 116.201 294.481 115.992 294.481 115.764C294.481 115.523 294.5 115.314 294.538 115.137C294.589 114.96 294.703 114.82 294.88 114.719C295.057 114.605 295.33 114.548 295.697 114.548C296.077 114.548 296.349 114.605 296.514 114.719C296.679 114.833 296.786 114.985 296.837 115.175C296.888 115.352 296.913 115.561 296.913 115.802C296.913 116.017 296.888 116.22 296.837 116.41C296.786 116.6 296.679 116.746 296.514 116.847C296.349 116.948 296.071 116.999 295.678 116.999ZM300.198 128.171C299.856 128.171 299.602 128.114 299.438 128C299.286 127.899 299.191 127.766 299.153 127.601C299.115 127.424 299.096 127.227 299.096 127.012V119.906C299.096 119.703 299.115 119.52 299.153 119.355C299.191 119.19 299.292 119.064 299.457 118.975C299.621 118.874 299.875 118.823 300.217 118.823C300.521 118.823 300.749 118.861 300.901 118.937C301.053 119.013 301.154 119.108 301.205 119.222C301.255 119.336 301.281 119.45 301.281 119.564C301.293 119.678 301.306 119.767 301.319 119.83L301.243 120.438C301.319 120.235 301.445 120.039 301.623 119.849C301.8 119.659 302.015 119.488 302.269 119.336C302.522 119.171 302.794 119.045 303.086 118.956C303.39 118.855 303.7 118.804 304.017 118.804C304.612 118.804 305.144 118.912 305.613 119.127C306.081 119.342 306.48 119.646 306.81 120.039C307.152 120.432 307.411 120.9 307.589 121.445C307.766 121.977 307.855 122.579 307.855 123.25V127.031C307.855 127.246 307.829 127.443 307.779 127.62C307.741 127.785 307.646 127.918 307.494 128.019C307.342 128.12 307.082 128.171 306.715 128.171C306.36 128.171 306.1 128.114 305.936 128C305.771 127.899 305.67 127.766 305.632 127.601C305.594 127.424 305.575 127.227 305.575 127.012V123.231C305.575 122.775 305.492 122.382 305.328 122.053C305.176 121.724 304.948 121.47 304.644 121.293C304.352 121.116 303.979 121.027 303.523 121.027C303.079 121.027 302.693 121.122 302.364 121.312C302.034 121.489 301.781 121.743 301.604 122.072C301.426 122.401 301.338 122.788 301.338 123.231V127.031C301.338 127.246 301.319 127.443 301.281 127.62C301.243 127.785 301.141 127.918 300.977 128.019C300.825 128.12 300.565 128.171 300.198 128.171ZM313.973 131.99C313.517 131.99 313.08 131.933 312.662 131.819C312.244 131.718 311.864 131.578 311.522 131.401C311.193 131.224 310.927 131.034 310.724 130.831C310.534 130.628 310.439 130.438 310.439 130.261C310.439 130.084 310.465 129.932 310.515 129.805C310.579 129.678 310.667 129.552 310.781 129.425C310.933 129.273 311.054 129.159 311.142 129.083C311.244 129.007 311.377 128.969 311.541 128.969C311.681 128.969 311.814 129.02 311.94 129.121C312.08 129.222 312.238 129.336 312.415 129.463C312.593 129.59 312.808 129.704 313.061 129.805C313.315 129.906 313.638 129.957 314.03 129.957C314.36 129.957 314.664 129.9 314.942 129.786C315.221 129.672 315.455 129.501 315.645 129.273C315.848 129.058 316.006 128.798 316.12 128.494C316.234 128.19 316.291 127.848 316.291 127.468L316.272 119.602C316.298 119.311 316.399 119.108 316.576 118.994C316.754 118.867 317.026 118.804 317.393 118.804C317.735 118.804 317.982 118.855 318.134 118.956C318.286 119.045 318.381 119.178 318.419 119.355C318.457 119.52 318.476 119.703 318.476 119.906V127.601C318.476 128.298 318.356 128.918 318.115 129.463C317.875 130.008 317.545 130.464 317.127 130.831C316.709 131.211 316.228 131.496 315.683 131.686C315.151 131.889 314.581 131.99 313.973 131.99ZM313.764 127.943C313.169 127.943 312.612 127.829 312.092 127.601C311.586 127.373 311.136 127.05 310.743 126.632C310.363 126.214 310.059 125.733 309.831 125.188C309.616 124.631 309.508 124.029 309.508 123.383C309.508 122.75 309.616 122.161 309.831 121.616C310.059 121.071 310.363 120.59 310.743 120.172C311.136 119.754 311.586 119.431 312.092 119.203C312.612 118.962 313.163 118.842 313.745 118.842C314.315 118.842 314.809 118.956 315.227 119.184C315.658 119.399 316.013 119.71 316.291 120.115C316.57 120.52 316.779 121.002 316.918 121.559C317.07 122.116 317.146 122.731 317.146 123.402C317.146 124.327 317.02 125.131 316.766 125.815C316.513 126.499 316.139 127.025 315.645 127.392C315.151 127.759 314.524 127.943 313.764 127.943ZM313.973 125.796C314.404 125.796 314.784 125.695 315.113 125.492C315.455 125.277 315.721 124.985 315.911 124.618C316.114 124.251 316.215 123.839 316.215 123.383C316.215 122.914 316.114 122.503 315.911 122.148C315.721 121.781 315.455 121.496 315.113 121.293C314.771 121.09 314.385 120.989 313.954 120.989C313.524 120.989 313.137 121.097 312.795 121.312C312.466 121.515 312.206 121.793 312.016 122.148C311.826 122.503 311.731 122.914 311.731 123.383C311.731 123.852 311.826 124.27 312.016 124.637C312.219 124.992 312.485 125.277 312.814 125.492C313.156 125.695 313.543 125.796 313.973 125.796ZM324.558 128.171C323.975 128.171 323.437 128.07 322.943 127.867C322.461 127.652 322.037 127.348 321.67 126.955C321.302 126.562 321.017 126.094 320.815 125.549C320.612 125.004 320.511 124.403 320.511 123.744V119.963C320.511 119.748 320.53 119.558 320.568 119.393C320.606 119.216 320.707 119.076 320.872 118.975C321.036 118.874 321.29 118.823 321.632 118.823C321.999 118.823 322.259 118.874 322.411 118.975C322.575 119.076 322.677 119.216 322.715 119.393C322.753 119.57 322.772 119.767 322.772 119.982V123.744C322.772 124.2 322.848 124.593 323 124.922C323.164 125.251 323.399 125.511 323.703 125.701C324.007 125.878 324.38 125.967 324.824 125.967C325.28 125.967 325.666 125.878 325.983 125.701C326.312 125.511 326.565 125.251 326.743 124.922C326.92 124.58 327.009 124.187 327.009 123.744V119.944C327.009 119.729 327.028 119.539 327.066 119.374C327.104 119.197 327.205 119.064 327.37 118.975C327.534 118.874 327.794 118.823 328.149 118.823C328.503 118.823 328.757 118.874 328.909 118.975C329.061 119.076 329.156 119.216 329.194 119.393C329.244 119.57 329.27 119.76 329.27 119.963V127.088C329.27 127.278 329.244 127.455 329.194 127.62C329.156 127.785 329.054 127.918 328.89 128.019C328.738 128.12 328.484 128.171 328.13 128.171C327.876 128.171 327.674 128.139 327.522 128.076C327.382 128.025 327.275 127.956 327.199 127.867C327.135 127.766 327.091 127.664 327.066 127.563C327.053 127.462 327.047 127.36 327.047 127.259L327.199 126.746C327.123 126.86 327.009 126.999 326.857 127.164C326.705 127.316 326.515 127.474 326.287 127.639C326.071 127.791 325.818 127.918 325.527 128.019C325.235 128.12 324.912 128.171 324.558 128.171ZM332.542 128.19C332.2 128.19 331.947 128.133 331.782 128.019C331.618 127.918 331.516 127.785 331.478 127.62C331.44 127.443 331.421 127.246 331.421 127.031V119.963C331.421 119.76 331.44 119.577 331.478 119.412C331.529 119.235 331.63 119.095 331.782 118.994C331.947 118.893 332.207 118.842 332.561 118.842C332.916 118.842 333.169 118.893 333.321 118.994C333.486 119.095 333.587 119.235 333.625 119.412C333.663 119.589 333.682 119.786 333.682 120.001V127.05C333.682 127.265 333.663 127.462 333.625 127.639C333.587 127.804 333.486 127.937 333.321 128.038C333.169 128.139 332.91 128.19 332.542 128.19ZM332.542 116.999C332.175 116.999 331.903 116.948 331.725 116.847C331.561 116.733 331.453 116.581 331.402 116.391C331.364 116.201 331.345 115.992 331.345 115.764C331.345 115.523 331.364 115.314 331.402 115.137C331.453 114.96 331.567 114.82 331.744 114.719C331.922 114.605 332.194 114.548 332.561 114.548C332.941 114.548 333.214 114.605 333.378 114.719C333.543 114.833 333.651 114.985 333.701 115.175C333.752 115.352 333.777 115.561 333.777 115.802C333.777 116.017 333.752 116.22 333.701 116.41C333.651 116.6 333.543 116.746 333.378 116.847C333.214 116.948 332.935 116.999 332.542 116.999ZM339.19 128.304C338.861 128.304 338.512 128.266 338.145 128.19C337.778 128.127 337.423 128.032 337.081 127.905C336.739 127.766 336.441 127.607 336.188 127.43C335.947 127.24 335.795 127.031 335.732 126.803C335.681 126.676 335.662 126.556 335.675 126.442C335.688 126.315 335.726 126.189 335.789 126.062C335.852 125.923 335.947 125.783 336.074 125.644C336.188 125.505 336.302 125.429 336.416 125.416C336.543 125.391 336.701 125.429 336.891 125.53C337.056 125.593 337.233 125.676 337.423 125.777C337.626 125.878 337.828 125.98 338.031 126.081C338.246 126.182 338.462 126.265 338.677 126.328C338.905 126.391 339.127 126.423 339.342 126.423C339.811 126.423 340.184 126.347 340.463 126.195C340.742 126.03 340.881 125.802 340.881 125.511C340.881 125.346 340.837 125.201 340.748 125.074C340.659 124.947 340.539 124.846 340.387 124.77C340.248 124.681 340.077 124.605 339.874 124.542C339.684 124.466 339.475 124.403 339.247 124.352C339.032 124.289 338.804 124.219 338.563 124.143C338.246 124.054 337.93 123.947 337.613 123.82C337.296 123.693 337.011 123.529 336.758 123.326C336.517 123.123 336.321 122.87 336.169 122.566C336.017 122.262 335.941 121.882 335.941 121.426C335.941 120.856 336.074 120.375 336.34 119.982C336.619 119.577 337.018 119.266 337.537 119.051C338.056 118.836 338.683 118.728 339.418 118.728C339.671 118.728 339.912 118.747 340.14 118.785C340.381 118.823 340.609 118.88 340.824 118.956C341.052 119.019 341.267 119.102 341.47 119.203C341.685 119.304 341.888 119.418 342.078 119.545C342.395 119.722 342.559 119.931 342.572 120.172C342.585 120.4 342.496 120.647 342.306 120.913C342.167 121.09 342.027 121.217 341.888 121.293C341.749 121.356 341.603 121.356 341.451 121.293C341.248 121.192 341.027 121.084 340.786 120.97C340.558 120.843 340.317 120.736 340.064 120.647C339.823 120.558 339.57 120.514 339.304 120.514C339.051 120.514 338.823 120.552 338.62 120.628C338.417 120.704 338.265 120.812 338.164 120.951C338.063 121.09 338.012 121.255 338.012 121.445C338.012 121.622 338.063 121.768 338.164 121.882C338.265 121.996 338.398 122.091 338.563 122.167C338.728 122.243 338.924 122.313 339.152 122.376C339.38 122.427 339.621 122.477 339.874 122.528C340.229 122.604 340.59 122.699 340.957 122.813C341.324 122.927 341.66 123.085 341.964 123.288C342.281 123.491 342.534 123.763 342.724 124.105C342.914 124.434 343.009 124.865 343.009 125.397C343.009 126.322 342.667 127.037 341.983 127.544C341.312 128.051 340.381 128.304 339.19 128.304ZM349.162 128.19C348.541 128.19 348.009 128.127 347.566 128C347.123 127.873 346.762 127.677 346.483 127.411C346.204 127.145 345.995 126.803 345.856 126.385C345.729 125.954 345.666 125.448 345.666 124.865V116.809C345.666 116.581 345.685 116.385 345.723 116.22C345.774 116.055 345.875 115.929 346.027 115.84C346.192 115.739 346.445 115.688 346.787 115.688C347.142 115.688 347.395 115.739 347.547 115.84C347.712 115.941 347.813 116.081 347.851 116.258C347.902 116.423 347.927 116.606 347.927 116.809V124.789C347.927 125.055 347.946 125.27 347.984 125.435C348.035 125.6 348.104 125.726 348.193 125.815C348.294 125.891 348.421 125.948 348.573 125.986C348.738 126.011 348.934 126.024 349.162 126.024C349.403 126.024 349.605 126.043 349.77 126.081C349.947 126.119 350.08 126.214 350.169 126.366C350.258 126.505 350.302 126.74 350.302 127.069C350.302 127.424 350.245 127.683 350.131 127.848C350.03 128 349.89 128.095 349.713 128.133C349.548 128.171 349.365 128.19 349.162 128.19ZM344.887 119.013L346.844 119.032L349.466 118.956C349.681 118.956 349.871 118.981 350.036 119.032C350.213 119.07 350.353 119.171 350.454 119.336C350.555 119.488 350.606 119.741 350.606 120.096C350.606 120.425 350.555 120.672 350.454 120.837C350.353 121.002 350.22 121.109 350.055 121.16C349.89 121.198 349.7 121.217 349.485 121.217L346.939 121.179L344.83 121.198C344.513 121.185 344.292 121.097 344.165 120.932C344.051 120.755 343.994 120.47 343.994 120.077C343.994 119.71 344.064 119.444 344.203 119.279C344.355 119.102 344.583 119.013 344.887 119.013ZM359.992 128.152C359.625 128.152 359.353 128.082 359.175 127.943C358.998 127.804 358.909 127.614 358.909 127.373L359.042 126.746C358.941 126.911 358.77 127.107 358.529 127.335C358.289 127.55 357.972 127.747 357.579 127.924C357.187 128.089 356.712 128.171 356.154 128.171C355.559 128.171 354.995 128.051 354.463 127.81C353.944 127.557 353.482 127.215 353.076 126.784C352.684 126.341 352.367 125.84 352.126 125.283C351.898 124.713 351.784 124.105 351.784 123.459C351.784 122.838 351.898 122.256 352.126 121.711C352.367 121.154 352.69 120.66 353.095 120.229C353.501 119.798 353.963 119.463 354.482 119.222C355.014 118.969 355.572 118.842 356.154 118.842C356.674 118.842 357.111 118.912 357.465 119.051C357.833 119.19 358.143 119.368 358.396 119.583C358.65 119.786 358.859 120.001 359.023 120.229L358.909 119.678C358.909 119.399 358.998 119.19 359.175 119.051C359.353 118.899 359.631 118.823 360.011 118.823C360.366 118.823 360.619 118.88 360.771 118.994C360.923 119.095 361.018 119.241 361.056 119.431C361.094 119.608 361.113 119.811 361.113 120.039V126.993C361.113 127.208 361.094 127.405 361.056 127.582C361.018 127.759 360.917 127.899 360.752 128C360.6 128.101 360.347 128.152 359.992 128.152ZM356.496 125.948C356.927 125.948 357.313 125.84 357.655 125.625C357.997 125.41 358.27 125.118 358.472 124.751C358.688 124.371 358.795 123.953 358.795 123.497C358.795 123.003 358.688 122.572 358.472 122.205C358.257 121.838 357.972 121.553 357.617 121.35C357.275 121.135 356.889 121.027 356.458 121.027C355.99 121.027 355.572 121.141 355.204 121.369C354.837 121.584 354.546 121.882 354.33 122.262C354.128 122.629 354.026 123.047 354.026 123.516C354.026 123.972 354.134 124.384 354.349 124.751C354.565 125.118 354.856 125.41 355.223 125.625C355.603 125.84 356.028 125.948 356.496 125.948Z" fill="#272932"/>
</svg>
