<svg width="48" height="46" viewBox="0 0 48 46" fill="none" xmlns="http://www.w3.org/2000/svg">
<path d="M47.9544 22.3671C47.9577 22.3269 47.9577 22.2864 47.9544 22.2462C47.9544 22.2401 47.9544 22.2353 47.9544 22.2292C47.9399 22.1874 47.9217 22.147 47.9 22.1083C47.8808 22.0574 47.8561 22.0088 47.8263 21.9632C47.8263 21.9572 47.8263 21.9499 47.8166 21.9451C45.0356 18.4217 47.8384 13.7725 47.8674 13.7229C47.8771 13.706 47.8783 13.6879 47.8867 13.6709C47.9004 13.6394 47.9121 13.6071 47.9218 13.5742C47.9516 13.4929 47.9667 13.4069 47.9665 13.3203C47.9665 13.2985 47.9786 13.2804 47.9774 13.2586C47.9762 13.2368 47.9641 13.232 47.9617 13.2175C47.9481 13.1081 47.9101 13.0031 47.8505 12.9104C47.8505 12.9043 47.8505 12.8959 47.8408 12.8898C47.7822 12.8063 47.7074 12.7356 47.6207 12.6818C47.6062 12.6734 47.5905 12.6734 47.576 12.6649C47.5615 12.6565 47.5578 12.6456 47.547 12.6407L21.5092 0.307466C21.3874 0.250441 21.2527 0.226562 21.1187 0.238238C20.9848 0.249915 20.8563 0.296734 20.7462 0.373968L1.73233 13.8716C1.73233 13.8716 1.73233 13.8789 1.72387 13.8825C1.64552 13.9388 1.57897 14.0098 1.52798 14.0917C1.39135 14.3106 -1.64119 19.3358 1.2789 23.6137C0.553411 25.0079 -1.34616 29.4176 1.57635 33.1212C1.64883 33.2132 1.7415 33.2873 1.8472 33.3377L27.8862 45.6709C27.9872 45.7185 28.0974 45.7432 28.2091 45.7435C28.3472 45.7403 28.4817 45.6984 28.5972 45.6226C28.6129 45.6141 28.631 45.6226 28.6456 45.6081L47.6497 32.1019C47.6582 32.0959 47.6703 32.1019 47.6788 32.0922C47.8102 31.9853 47.9008 31.8362 47.9351 31.6702C47.9411 31.6473 47.9532 31.6267 47.9569 31.605C47.9611 31.5571 47.9611 31.5089 47.9569 31.4611C47.9582 31.4088 47.9542 31.3565 47.9448 31.3051C47.9369 31.2849 47.928 31.2651 47.9182 31.2458C47.899 31.1762 47.8697 31.1098 47.8311 31.0487C47.8251 31.0403 47.8142 31.0367 47.8081 31.0282C45.0271 27.5047 47.8299 22.8568 47.8589 22.806C47.8589 22.806 47.8589 22.7939 47.8662 22.7879C47.8879 22.7438 47.9049 22.6976 47.917 22.65C47.9351 22.6111 47.9497 22.5707 47.9605 22.5291C47.9611 22.5223 47.9611 22.5154 47.9605 22.5086C47.9632 22.4613 47.9612 22.4139 47.9544 22.3671ZM28.3953 43.9201C26.5295 40.8319 28.365 37.167 28.7701 36.4355L45.4696 24.5738C44.9279 26.4068 44.6801 28.9485 46.1625 31.3027L28.3953 43.9201ZM2.49893 15.4895L27.1656 27.1698C26.5283 28.489 25.4558 31.3571 26.4304 34.2191L2.64766 22.9547C0.618705 20.2051 1.85325 16.8328 2.49893 15.4895ZM28.3953 34.8455C26.5138 31.7283 28.3953 28.0259 28.781 27.3415L45.4672 15.4919C44.9243 17.3262 44.6777 19.8714 46.1649 22.2268L28.3953 34.8455ZM21.2504 1.86363L45.7199 13.4545L28.1292 25.9474L3.65971 14.3565L21.2504 1.86363ZM2.65733 32.0463C0.615078 29.3015 1.85325 25.9256 2.49409 24.5702L27.1607 36.2505C26.5211 37.5805 25.4522 40.4438 26.4352 43.3034L2.65733 32.0463Z" fill="#272932"/>
<path d="M2.65733 32.0463C0.615078 29.3015 1.85325 25.9256 2.49409 24.5702L27.1607 36.2505C26.5211 37.5805 25.4522 40.4438 26.4352 43.3034L2.65733 32.0463Z" fill="#FAFAFA"/>
<path d="M28.3953 43.9201C26.5295 40.8319 28.365 37.167 28.7701 36.4355L45.4696 24.5738C44.9279 26.4068 44.6801 28.9485 46.1625 31.3027L28.3953 43.9201Z" fill="#FAFAFA"/>
<path d="M28.3953 34.8455C26.5138 31.7283 28.3953 28.0259 28.781 27.3415L45.4672 15.4919C44.9243 17.3262 44.6777 19.8714 46.1649 22.2268L28.3953 34.8455Z" fill="#FAFAFA"/>
<path d="M2.49893 15.4895L27.1656 27.1698C26.5283 28.489 25.4558 31.3571 26.4304 34.2191L2.64766 22.9547C0.618705 20.2051 1.85325 16.8328 2.49893 15.4895Z" fill="#6C8DFF"/>
<path d="M21.2504 1.86363L45.7199 13.4545L28.1292 25.9474L3.65971 14.3565L21.2504 1.86363Z" fill="#9EB4FF"/>
<path fill-rule="evenodd" clip-rule="evenodd" d="M16.789 11.6674C16.9448 11.36 17.3202 11.237 17.6277 11.3928L26.4055 15.8397C26.5572 15.9165 26.7394 15.9007 26.8756 15.7988L30.8975 12.7888C31.1735 12.5823 31.5645 12.6386 31.771 12.9145C31.9775 13.1904 31.9212 13.5815 31.6453 13.788L27.6233 16.7979C27.1072 17.1842 26.4166 17.2443 25.8415 16.9529L17.0637 12.506C16.7562 12.3503 16.6333 11.9748 16.789 11.6674Z" fill="#272932"/>
</svg>
