<svg width="25" height="24" viewBox="0 0 25 24" fill="none" xmlns="http://www.w3.org/2000/svg">
<path fill-rule="evenodd" clip-rule="evenodd" d="M14.2276 6.57426C13.6788 5.09183 12.6866 3.74552 11.5862 2.3008C11.1415 1.71691 10.1801 2.04141 10.1774 2.77376C10.1681 5.29498 8.92793 6.85891 7.51765 8.50167C6.1407 10.1056 4.5 11.869 4.5 14.6164C4.5 19.0347 8.08172 22.6164 12.5 22.6164C16.9183 22.6164 20.5 19.0347 20.5 14.6164C20.5 11.8258 19.2148 9.28519 17.6872 7.86959C17.217 7.43381 16.4197 7.73968 16.3717 8.38497C16.2938 9.43408 15.8134 11.0765 14.4797 10.9549C14.8456 9.30042 14.718 7.89891 14.2276 6.57426ZM16.371 16.8256C16.371 18.8479 14.6379 20.4874 12.5 20.4874C10.3622 20.4874 8.62906 18.8479 8.62906 16.8256C8.62906 15.6498 9.32961 14.8796 10.0583 14.0785C10.8479 13.2105 11.6705 12.3062 11.6705 10.8099C12.7818 12.2738 13.606 13.4254 13.053 15.2564C14.8546 15.8744 14.9885 13.687 14.9885 13.687C15.6727 14.3474 16.371 15.5179 16.371 16.8256Z" fill="#B3C3FD"/>
</svg>
