<svg width="16" height="16" viewBox="0 0 16 16" fill="none" xmlns="http://www.w3.org/2000/svg">
<path fill-rule="evenodd" clip-rule="evenodd" d="M9.79998 2.85975C8.65631 2.55331 7.44537 2.6128 6.33725 3.02987C5.22913 3.44694 4.27948 4.20063 3.62167 5.1851C2.96387 6.16957 2.63096 7.33536 2.6697 8.51874C2.70844 9.70212 3.11688 10.8436 3.83767 11.783C4.55845 12.7223 5.55536 13.4123 6.68839 13.756C7.82142 14.0997 9.03365 14.0799 10.1548 13.6993C11.276 13.3187 12.2498 12.5965 12.9395 11.634C13.6291 10.6716 14 9.51735 14 8.33333C14 8.14924 14.1492 8 14.3333 8C14.5174 8 14.6667 8.14924 14.6667 8.33333C14.6667 9.65664 14.2522 10.9467 13.4814 12.0224C12.7106 13.098 11.6222 13.9052 10.3691 14.3306C9.11604 14.7559 7.76119 14.7781 6.49486 14.394C5.22854 14.0098 4.11434 13.2387 3.30876 12.1888C2.50318 11.139 2.04669 9.86315 2.00339 8.54056C1.96009 7.21796 2.33217 5.91501 3.06736 4.81472C3.80255 3.71443 4.86393 2.87207 6.10242 2.40593C7.34091 1.93979 8.6943 1.87331 9.97252 2.2158C10.1503 2.26345 10.2559 2.44623 10.2082 2.62405C10.1606 2.80187 9.9778 2.9074 9.79998 2.85975ZM13.8862 3.41581C14.0247 3.53704 14.0388 3.74762 13.9175 3.88617L9.65798 8.75422C9.31352 9.14789 8.72388 9.20957 8.3054 8.89572L6.13333 7.26667C5.98606 7.15621 5.95621 6.94728 6.06667 6.8C6.17713 6.65272 6.38606 6.62288 6.53334 6.73333L8.7054 8.36239C8.84489 8.467 9.04144 8.44644 9.15626 8.31522L13.4158 3.44717C13.537 3.30862 13.7476 3.29458 13.8862 3.41581Z" fill="#272932"/>
</svg>
