<svg viewBox="0 0 24 24" fill="none" xmlns="http://www.w3.org/2000/svg">
<path fill-rule="evenodd" clip-rule="evenodd" d="M13.7276 6.57426C13.1788 5.09183 12.1866 3.74552 11.0862 2.3008C10.6415 1.71691 9.68006 2.04141 9.67737 2.77376C9.6681 5.29498 8.42793 6.85891 7.01765 8.50167C5.6407 10.1056 4 11.869 4 14.6164C4 19.0347 7.58172 22.6164 12 22.6164C16.4183 22.6164 20 19.0347 20 14.6164C20 11.8258 18.7148 9.28519 17.1872 7.86959C16.717 7.43381 15.9197 7.73968 15.8717 8.38497C15.7938 9.43408 15.3134 11.0765 13.9797 10.9549C14.3456 9.30042 14.218 7.89891 13.7276 6.57426ZM15.871 16.8256C15.871 18.8479 14.1379 20.4874 12 20.4874C9.86215 20.4874 8.12906 18.8479 8.12906 16.8256C8.12906 15.6498 8.82961 14.8796 9.55828 14.0785C10.3479 13.2105 11.1705 12.3062 11.1705 10.8099C12.2818 12.2738 13.106 13.4254 12.553 15.2564C14.3546 15.8744 14.4885 13.687 14.4885 13.687C15.1727 14.3474 15.871 15.5179 15.871 16.8256Z" fill="#CDCDCD"/>
</svg>
