<svg width="16" height="16" viewBox="0 0 16 16" fill="none" xmlns="http://www.w3.org/2000/svg">
<path fill-rule="evenodd" clip-rule="evenodd" d="M12.6477 0.666748C12.8318 0.666748 12.981 0.815986 12.981 1.00008V3.01969H15.0007C15.1847 3.01969 15.334 3.16893 15.334 3.35302C15.334 3.53712 15.1847 3.68636 15.0007 3.68636H12.981V5.70596C12.981 5.89006 12.8318 6.0393 12.6477 6.0393C12.4636 6.0393 12.3144 5.89006 12.3144 5.70596V3.68636H10.2948C10.1107 3.68636 9.96144 3.53712 9.96144 3.35302C9.96144 3.16893 10.1107 3.01969 10.2948 3.01969H12.3144V1.00008C12.3144 0.815986 12.4636 0.666748 12.6477 0.666748ZM7.81865 3.01969H7.84379C8.02788 3.01969 8.17712 3.16893 8.17712 3.35302C8.17712 3.53712 8.02788 3.68636 7.84379 3.68636C6.40341 3.68636 5.3556 3.68702 4.55294 3.7917C3.75927 3.8952 3.25375 4.09528 2.87116 4.45955C2.83793 4.49118 2.80548 4.52363 2.77384 4.55686C2.40958 4.93946 2.20949 5.44497 2.10599 6.23865C2.00132 7.0413 2.00065 8.08911 2.00065 9.52949V12.7648C2.00065 13.1439 2.00136 13.3948 2.02639 13.581C2.05014 13.7576 2.09014 13.8254 2.13274 13.868C2.17534 13.9106 2.24314 13.9506 2.41975 13.9743C2.60596 13.9994 2.85679 14.0001 3.23593 14.0001H6.47124C7.91162 14.0001 8.95943 13.9994 9.76209 13.8947C10.5558 13.7912 11.0613 13.5912 11.4439 13.2269C11.4771 13.1953 11.5096 13.1628 11.5412 13.1296C11.9055 12.747 12.1055 12.2415 12.209 11.4478C12.3137 10.6451 12.3144 9.59733 12.3144 8.15694C12.3144 7.97285 12.4636 7.82361 12.6477 7.82361C12.8318 7.82361 12.981 7.97285 12.981 8.15694V8.18207C12.981 9.59207 12.9811 10.6833 12.8701 11.534C12.7573 12.3988 12.5249 13.0632 12.024 13.5893C11.9849 13.6304 11.9447 13.6706 11.9036 13.7097C11.3775 14.2106 10.7131 14.443 9.8483 14.5558C8.99756 14.6668 7.90637 14.6668 6.49637 14.6667H3.21329C2.86289 14.6668 2.56681 14.6668 2.33092 14.6351C2.08038 14.6014 1.84845 14.5265 1.66134 14.3394C1.47422 14.1523 1.39936 13.9204 1.36567 13.6698C1.33396 13.4339 1.33397 13.1378 1.33398 12.7874L1.33399 9.50435C1.33398 8.09436 1.33398 7.00317 1.44492 6.15243C1.5577 5.28767 1.79016 4.62322 2.29101 4.09717C2.33017 4.05604 2.37033 4.01587 2.41146 3.97671C2.93752 3.47587 3.60196 3.2434 4.46673 3.13063C5.31747 3.01968 6.40866 3.01969 7.81865 3.01969ZM4.47124 7.27459C4.47124 7.0905 4.62048 6.94126 4.80457 6.94126H9.51046C9.69455 6.94126 9.84379 7.0905 9.84379 7.27459C9.84379 7.45869 9.69455 7.60792 9.51046 7.60792H4.80457C4.62048 7.60792 4.47124 7.45869 4.47124 7.27459ZM4.47124 10.4118C4.47124 10.2278 4.62048 10.0785 4.80457 10.0785H7.15752C7.34161 10.0785 7.49085 10.2278 7.49085 10.4118C7.49085 10.5959 7.34161 10.7452 7.15752 10.7452H4.80457C4.62048 10.7452 4.47124 10.5959 4.47124 10.4118Z" fill="#272932"/>
</svg>
