<svg viewBox="0 0 24 24" fill="none" xmlns="http://www.w3.org/2000/svg">
<path fill-rule="evenodd" clip-rule="evenodd" d="M10.8889 3.30056C11.2282 3.10348 11.6108 3 12 3C12.3892 3 12.7718 3.10348 13.1111 3.30056C13.4504 3.49765 13.7348 3.78172 13.9369 4.1255L13.9382 4.12764L21.6961 17.4906C21.8941 17.8444 21.9989 18.2456 22 18.6543C22.0011 19.063 21.8985 19.4649 21.7024 19.8198C21.5063 20.1747 21.2237 20.4703 20.8828 20.6773C20.5418 20.8842 20.1544 20.9955 19.7591 20.9999L19.7543 21L4.24091 21C3.84555 20.9955 3.45815 20.8842 3.11724 20.6773C2.77631 20.4703 2.49368 20.1747 2.29761 19.8198C2.10154 19.4649 1.9989 19.063 2.00001 18.6543C2.00112 18.2456 2.10594 17.8444 2.30393 17.4906L2.30743 17.4844L10.0618 4.12764L10.0631 4.1255C10.2652 3.78172 10.5496 3.49765 10.8889 3.30056ZM12 3.9C11.7598 3.9 11.5237 3.96388 11.3145 4.08539C11.1057 4.20671 10.9308 4.38133 10.8065 4.59232L10.8059 4.59333L3.05475 17.9446C2.93405 18.1615 2.87025 18.4069 2.86957 18.6568C2.86889 18.9079 2.93192 19.1548 3.05249 19.3731C3.17307 19.5913 3.34703 19.7734 3.55721 19.901C3.76674 20.0282 4.00492 20.0968 4.24818 20.1H19.7518C19.9951 20.0968 20.2333 20.0282 20.4428 19.901C20.653 19.7734 20.8269 19.5913 20.9475 19.3731C21.0681 19.1548 21.1311 18.9079 21.1304 18.6568C21.1298 18.4069 21.066 18.1615 20.9453 17.9447L13.1941 4.59333L13.1935 4.59232C13.0692 4.38133 12.8943 4.20671 12.6855 4.08539C12.4763 3.96388 12.2402 3.9 12 3.9Z" fill="#CDCDCD"/>
<path d="M11.3145 4.08539C11.5237 3.96388 11.7598 3.9 12 3.9C12.2402 3.9 12.4763 3.96388 12.6855 4.08539C12.8943 4.20671 13.0692 4.38133 13.1935 4.59232L13.1941 4.59333L20.9453 17.9447C21.066 18.1615 21.1298 18.4069 21.1304 18.6568C21.1311 18.9079 21.0681 19.1548 20.9475 19.3731C20.8269 19.5913 20.653 19.7734 20.4428 19.901C20.2333 20.0282 19.9951 20.0968 19.7518 20.1H4.24818C4.00492 20.0968 3.76674 20.0282 3.55721 19.901C3.34703 19.7734 3.17307 19.5913 3.05249 19.3731C2.93192 19.1548 2.86889 18.9079 2.86957 18.6568C2.87025 18.4069 2.93405 18.1615 3.05475 17.9446L10.8059 4.59333L10.8065 4.59232C10.9308 4.38133 11.1057 4.20671 11.3145 4.08539Z" fill="#CDCDCD"/>
<path fill-rule="evenodd" clip-rule="evenodd" d="M12 8.75001C12.3602 8.75001 12.6522 9.0858 12.6522 9.50001V14.5C12.6522 14.9142 12.3602 15.25 12 15.25C11.6398 15.25 11.3478 14.9142 11.3478 14.5V9.50001C11.3478 9.0858 11.6398 8.75001 12 8.75001ZM11.3478 17.5C11.3478 17.0858 11.6398 16.75 12 16.75H12.0087C12.3689 16.75 12.6609 17.0858 12.6609 17.5C12.6609 17.9142 12.3689 18.25 12.0087 18.25H12C11.6398 18.25 11.3478 17.9142 11.3478 17.5Z" fill="white"/>
<path fill-rule="evenodd" clip-rule="evenodd" d="M10.8889 3.30056C11.2282 3.10348 11.6108 3 12 3C12.3892 3 12.7718 3.10348 13.1111 3.30056C13.4504 3.49765 13.7348 3.78172 13.9369 4.1255L13.9382 4.12764L21.6961 17.4906C21.8941 17.8444 21.9989 18.2456 22 18.6543C22.0011 19.063 21.8985 19.4649 21.7024 19.8198C21.5063 20.1747 21.2237 20.4703 20.8828 20.6773C20.5418 20.8842 20.1544 20.9955 19.7591 20.9999L19.7543 21L4.24091 21C3.84555 20.9955 3.45815 20.8842 3.11724 20.6773C2.77631 20.4703 2.49368 20.1747 2.29761 19.8198C2.10154 19.4649 1.9989 19.063 2.00001 18.6543C2.00112 18.2456 2.10594 17.8444 2.30393 17.4906L2.30743 17.4844L10.0618 4.12764L10.0631 4.1255C10.2652 3.78172 10.5496 3.49765 10.8889 3.30056ZM12 3.9C11.7598 3.9 11.5237 3.96388 11.3145 4.08539C11.1057 4.20671 10.9308 4.38133 10.8065 4.59232L10.8059 4.59333L3.05475 17.9446C2.93405 18.1615 2.87025 18.4069 2.86957 18.6568C2.86889 18.9079 2.93192 19.1548 3.05249 19.3731C3.17307 19.5913 3.34703 19.7734 3.55721 19.901C3.76674 20.0282 4.00492 20.0968 4.24818 20.1H19.7518C19.9951 20.0968 20.2333 20.0282 20.4428 19.901C20.653 19.7734 20.8269 19.5913 20.9475 19.3731C21.0681 19.1548 21.1311 18.9079 21.1304 18.6568C21.1298 18.4069 21.066 18.1615 20.9453 17.9447L13.1941 4.59333L13.1935 4.59232C13.0692 4.38133 12.8943 4.20671 12.6855 4.08539C12.4763 3.96388 12.2402 3.9 12 3.9Z" stroke="#737782" stroke-width="0.3" stroke-linecap="round" stroke-linejoin="round"/>
<path d="M11.3145 4.08539C11.5237 3.96388 11.7598 3.9 12 3.9C12.2402 3.9 12.4763 3.96388 12.6855 4.08539C12.8943 4.20671 13.0692 4.38133 13.1935 4.59232L13.1941 4.59333L20.9453 17.9447C21.066 18.1615 21.1298 18.4069 21.1304 18.6568C21.1311 18.9079 21.0681 19.1548 20.9475 19.3731C20.8269 19.5913 20.653 19.7734 20.4428 19.901C20.2333 20.0282 19.9951 20.0968 19.7518 20.1H4.24818C4.00492 20.0968 3.76674 20.0282 3.55721 19.901C3.34703 19.7734 3.17307 19.5913 3.05249 19.3731C2.93192 19.1548 2.86889 18.9079 2.86957 18.6568C2.87025 18.4069 2.93405 18.1615 3.05475 17.9446L10.8059 4.59333L10.8065 4.59232C10.9308 4.38133 11.1057 4.20671 11.3145 4.08539Z" stroke="#737782" stroke-width="0.3" stroke-linecap="round" stroke-linejoin="round"/>
<path fill-rule="evenodd" clip-rule="evenodd" d="M12 8.75001C12.3602 8.75001 12.6522 9.0858 12.6522 9.50001V14.5C12.6522 14.9142 12.3602 15.25 12 15.25C11.6398 15.25 11.3478 14.9142 11.3478 14.5V9.50001C11.3478 9.0858 11.6398 8.75001 12 8.75001ZM11.3478 17.5C11.3478 17.0858 11.6398 16.75 12 16.75H12.0087C12.3689 16.75 12.6609 17.0858 12.6609 17.5C12.6609 17.9142 12.3689 18.25 12.0087 18.25H12C11.6398 18.25 11.3478 17.9142 11.3478 17.5Z" stroke="#737782" stroke-width="0.3" stroke-linecap="round" stroke-linejoin="round"/>
</svg>
