<svg viewBox="0 0 24 24" fill="none" xmlns="http://www.w3.org/2000/svg">
<path fill-rule="evenodd" clip-rule="evenodd" d="M5.77677 8.20473C6.13127 4.94423 8.82216 2.5 12 2.5C15.1778 2.5 17.8687 4.94424 18.2232 8.20473L18.4906 10.6634C18.6161 11.7806 18.972 12.8588 19.5357 13.8267L20.1784 14.9215C20.4383 15.3642 20.6527 15.7294 20.7919 16.0314C20.9321 16.3356 21.0395 16.6633 20.986 17.0102C20.9279 17.3866 20.7388 17.7251 20.4583 17.9651C20.2027 18.1837 19.8822 18.2569 19.5573 18.2903C19.234 18.3235 18.8188 18.3235 18.3122 18.3235H15.4714C15.4694 18.3386 15.4667 18.3536 15.4633 18.3687C15.2649 19.2513 14.8256 20.042 14.2025 20.612C13.5782 21.1832 12.8043 21.5 12 21.5C11.1957 21.5 10.4218 21.1832 9.79753 20.612C9.17442 20.042 8.73506 19.2513 8.5367 18.3687C8.53331 18.3536 8.53061 18.3386 8.52857 18.3235H5.68783C5.18115 18.3235 4.76596 18.3235 4.44272 18.2903C4.1178 18.2569 3.79727 18.1837 3.54173 17.9651C3.2612 17.7251 3.07214 17.3866 3.01402 17.0102C2.96047 16.6633 3.06787 16.3356 3.20806 16.0314C3.34726 15.7294 3.56165 15.3642 3.82158 14.9216L4.46435 13.8267C5.02802 12.8588 5.38394 11.7806 5.50939 10.6634L5.77677 8.20473ZM9.50522 18.3235C9.67695 18.9386 9.99723 19.4714 10.418 19.8564C10.8794 20.2785 11.4358 20.5 12 20.5C12.5642 20.5 13.1206 20.2785 13.582 19.8564C14.0028 19.4714 14.323 18.9386 14.4948 18.3235H9.50522ZM12 3.5C9.27926 3.5 7.01484 5.58821 6.71796 8.31875L6.45017 10.7811C6.30842 12.0435 5.9064 13.26 5.27143 14.3504L4.64075 15.4247C4.36343 15.897 4.17538 16.2185 4.05997 16.4689C3.94309 16.7225 3.94394 16.8162 3.94905 16.8493C3.96901 16.9785 4.0346 17.0996 4.13818 17.1882C4.17127 17.2165 4.25915 17.2667 4.53456 17.295C4.8063 17.323 5.17494 17.3235 5.71313 17.3235H18.2869C18.8251 17.3235 19.1937 17.323 19.4654 17.295C19.7409 17.2667 19.8287 17.2165 19.8618 17.1882C19.9654 17.0996 20.031 16.9785 20.0509 16.8493C20.0561 16.8162 20.0569 16.7225 19.94 16.4689C19.8246 16.2185 19.6366 15.897 19.3593 15.4247L18.7286 14.3504C18.0936 13.26 17.6916 12.0435 17.5498 10.7811L17.282 8.31875C16.9852 5.58821 14.7207 3.5 12 3.5Z" fill="#272932"/>
</svg>
