<svg width="44" height="44" viewBox="0 0 44 44" fill="none" xmlns="http://www.w3.org/2000/svg">
<path fill-rule="evenodd" clip-rule="evenodd" d="M9 13.8591C9 13.3846 9.40294 13 9.9 13H35.1C35.5971 13 36 13.3846 36 13.8591C36 14.3336 35.5971 14.7182 35.1 14.7182H9.9C9.40294 14.7182 9 14.3336 9 13.8591ZM9 22.45C9 21.9755 9.40294 21.5909 9.9 21.5909H35.1C35.5971 21.5909 36 21.9755 36 22.45C36 22.9245 35.5971 23.3091 35.1 23.3091H9.9C9.40294 23.3091 9 22.9245 9 22.45ZM9 31.0409C9 30.5664 9.40294 30.1818 9.9 30.1818H35.1C35.5971 30.1818 36 30.5664 36 31.0409C36 31.5154 35.5971 31.9 35.1 31.9H9.9C9.40294 31.9 9 31.5154 9 31.0409Z" fill="#272932"/>
</svg>
