<svg width="44" height="44" viewBox="0 0 44 44" fill="none" xmlns="http://www.w3.org/2000/svg">
<path d="M37 22C37 30.2843 30.2843 37 22 37C13.7157 37 7 30.2843 7 22C7 13.7157 13.7157 7 22 7C30.2843 7 37 13.7157 37 22Z" fill="#6C8DFF"/>
<path fill-rule="evenodd" clip-rule="evenodd" d="M22 35C29.1797 35 35 29.1797 35 22C35 14.8203 29.1797 9 22 9C14.8203 9 9 14.8203 9 22C9 29.1797 14.8203 35 22 35ZM22 37C30.2843 37 37 30.2843 37 22C37 13.7157 30.2843 7 22 7C13.7157 7 7 13.7157 7 22C7 30.2843 13.7157 37 22 37Z" fill="white"/>
<path fill-rule="evenodd" clip-rule="evenodd" d="M30.7071 16.2929C31.0976 16.6834 31.0976 17.3166 30.7071 17.7071L19.0526 29.3616L13.2929 23.6018C12.9024 23.2113 12.9024 22.5782 13.2929 22.1876C13.6834 21.7971 14.3166 21.7971 14.7071 22.1876L19.0526 26.5332L29.2929 16.2929C29.6834 15.9024 30.3166 15.9024 30.7071 16.2929Z" fill="white"/>
</svg>
