<svg width="19" height="19" viewBox="0 0 19 19" fill="none" xmlns="http://www.w3.org/2000/svg">
<path fill-rule="evenodd" clip-rule="evenodd" d="M1.01713 1.01811C1.28476 0.750475 1.71868 0.750475 1.98631 1.01811L9.7255 8.75729L17.4647 1.01811C17.7323 0.750475 18.1662 0.750475 18.4339 1.01811C18.7015 1.28574 18.7015 1.71966 18.4339 1.98729L10.6947 9.72647L18.4339 17.4657C18.7015 17.7333 18.7015 18.1672 18.4339 18.4348C18.1662 18.7025 17.7323 18.7025 17.4647 18.4348L9.7255 10.6957L1.98631 18.4348C1.71868 18.7025 1.28476 18.7025 1.01713 18.4348C0.749498 18.1672 0.749498 17.7333 1.01713 17.4657L8.75632 9.72647L1.01713 1.98729C0.749498 1.71966 0.749498 1.28574 1.01713 1.01811Z" fill="#595D68"/>
</svg>
