<svg width="44" height="44" viewBox="0 0 44 44" fill="none" xmlns="http://www.w3.org/2000/svg">
<path fill-rule="evenodd" clip-rule="evenodd" d="M9.29289 9.29289C9.68342 8.90237 10.3166 8.90237 10.7071 9.29289L22 20.5858L33.2929 9.29289C33.6834 8.90237 34.3166 8.90237 34.7071 9.29289C35.0976 9.68342 35.0976 10.3166 34.7071 10.7071L23.4142 22L34.7071 33.2929C35.0976 33.6834 35.0976 34.3166 34.7071 34.7071C34.3166 35.0976 33.6834 35.0976 33.2929 34.7071L22 23.4142L10.7071 34.7071C10.3166 35.0976 9.68342 35.0976 9.29289 34.7071C8.90237 34.3166 8.90237 33.6834 9.29289 33.2929L20.5858 22L9.29289 10.7071C8.90237 10.3166 8.90237 9.68342 9.29289 9.29289Z" fill="#272932"/>
</svg>
