<svg viewBox="0 0 44 44" fill="none" xmlns="http://www.w3.org/2000/svg">
<path fill-rule="evenodd" clip-rule="evenodd" d="M16.1419 8.25H27.8582C28.7363 8.24999 29.4468 8.24998 30.0317 8.30451C30.6398 8.36122 31.166 8.48043 31.6677 8.74894C32.1695 9.01745 32.5605 9.38915 32.945 9.86371C33.3148 10.3201 33.7089 10.9112 34.196 11.6419L34.2157 11.6714L34.4596 12.0373C34.48 12.0679 34.5002 12.0982 34.5201 12.128C35.0402 12.9077 35.3877 13.4286 35.5691 14.0277C35.7505 14.6268 35.7503 15.253 35.7501 16.1902C35.75 16.2261 35.75 16.2624 35.75 16.2992V28.1224C35.7501 29.7093 35.7501 30.9765 35.6164 31.9705C35.4783 32.9977 35.1853 33.8447 34.515 34.515C33.8447 35.1852 32.9977 35.4783 31.9705 35.6164C30.9765 35.75 29.7093 35.75 28.1224 35.75H15.8777C14.2908 35.75 13.0236 35.75 12.0296 35.6164C11.0024 35.4783 10.1553 35.1852 9.48507 34.515C8.81481 33.8447 8.52175 32.9977 8.38365 31.9705C8.25001 30.9765 8.25002 29.7093 8.25004 28.1224L8.25004 16.2992C8.25004 16.2624 8.25003 16.2261 8.25002 16.1902C8.24976 15.253 8.24959 14.6268 8.43097 14.0277C8.61235 13.4286 8.95988 12.9077 9.47995 12.128C9.49986 12.0982 9.52003 12.0679 9.54045 12.0373L9.80404 11.6419C10.2911 10.9112 10.6852 10.3201 11.055 9.86371C11.4395 9.38915 11.8306 9.01745 12.3323 8.74894C12.8341 8.48043 13.3603 8.36122 13.9684 8.30451C14.5533 8.24998 15.2637 8.24999 16.1419 8.25ZM9.75004 18.4167V28.0667C9.75004 29.7221 9.75163 30.8882 9.87027 31.7706C9.98601 32.6315 10.2006 33.1092 10.5457 33.4543C10.8908 33.7994 11.3686 34.014 12.2294 34.1298C13.1119 34.2484 14.278 34.25 15.9334 34.25H28.0667C29.7221 34.25 30.8882 34.2484 31.7706 34.1298C32.6315 34.014 33.1092 33.7994 33.4543 33.4543C33.7995 33.1092 34.0141 32.6315 34.1298 31.7706C34.2484 30.8882 34.25 29.7221 34.25 28.0667V18.4167H27.0834V24.9557C27.0834 26.145 25.786 26.8795 24.7662 26.2677L22 24.608L19.2339 26.2677C18.2141 26.8795 16.9167 26.145 16.9167 24.9557V18.4167H9.75004ZM9.75004 16.9167V16.2992C9.75004 15.2136 9.75744 14.8229 9.86661 14.4624C9.97577 14.1018 10.1863 13.7727 10.7885 12.8693L11.0325 12.5034C11.5439 11.7364 11.8998 11.2038 12.2205 10.808C12.5313 10.4244 12.7754 10.2131 13.0401 10.0715C13.3049 9.92977 13.616 9.84388 14.1077 9.79804C14.6148 9.75075 15.2554 9.75 16.1773 9.75H27.8228C28.7447 9.75 29.3853 9.75075 29.8924 9.79804C30.3841 9.84388 30.6952 9.92977 30.9599 10.0715C31.2247 10.2131 31.4687 10.4244 31.7796 10.808C32.1003 11.2038 32.4562 11.7364 32.9676 12.5034L33.2115 12.8693C33.8138 13.7727 34.0243 14.1018 34.1335 14.4624C34.2426 14.8229 34.25 15.2136 34.25 16.2992V16.9167H9.75004ZM18.4167 18.4167V24.9557C18.4167 24.9628 18.4179 24.9675 18.4179 24.9675L18.4192 24.9706C18.4206 24.9728 18.4245 24.9776 18.4319 24.9818C18.4394 24.986 18.4454 24.9869 18.4481 24.9869L18.4514 24.9865C18.4514 24.9865 18.4544 24.9856 18.458 24.9837L18.4621 24.9814L21.3912 23.224C21.766 22.9991 22.2341 22.9991 22.6089 23.224L25.5379 24.9814C25.5441 24.9851 25.5487 24.9865 25.5487 24.9865L25.5503 24.9868L25.552 24.9869C25.5546 24.9869 25.5607 24.986 25.5682 24.9818C25.5756 24.9776 25.5795 24.9728 25.5808 24.9706L25.5822 24.9675C25.5822 24.9675 25.5834 24.9628 25.5834 24.9557V18.4167H18.4167Z" fill="#272932"/>
</svg>
