<svg viewBox="0 0 44 44" fill="none" xmlns="http://www.w3.org/2000/svg">
<path d="M9.77781 19.5558C8.42964 19.5558 7.33334 20.6527 7.33334 22.0002C7.33334 23.3484 8.42971 24.4447 9.77781 24.4447C11.126 24.4447 12.2223 23.3483 12.2223 22.0002C12.2223 20.6527 11.1259 19.5558 9.77781 19.5558ZM9.77781 23.2225C9.10376 23.2225 8.55554 22.6749 8.55554 22.0002C8.55554 21.3262 9.10369 20.778 9.77781 20.778C10.4513 20.778 11.0001 21.3261 11.0001 22.0002C11.0001 22.6749 10.4513 23.2225 9.77781 23.2225Z" fill="#272932"/>
<path d="M28.4495 29.3504C27.4259 29.3504 26.5025 29.9963 26.1517 30.9594C25.6909 32.2257 26.346 33.6306 27.6123 34.092C27.8824 34.1898 28.1635 34.2399 28.4489 34.2399C29.4725 34.2399 30.3959 33.5934 30.7455 32.6309C31.2063 31.3646 30.5511 29.959 29.2849 29.4982C29.0148 29.3999 28.7336 29.3504 28.4495 29.3504ZM29.5972 32.2129C29.3735 32.8283 28.6542 33.1693 28.0302 32.9438C27.3971 32.7128 27.0696 32.01 27.3 31.3775C27.4754 30.896 27.9373 30.5727 28.4495 30.5727C28.5913 30.5727 28.7312 30.5978 28.8668 30.6467C29.5 30.877 29.8276 31.5798 29.5972 32.2129Z" fill="#272932"/>
<path d="M31.7938 25.0518C32.8181 25.0518 33.7415 24.4053 34.091 23.4428C34.5518 22.1765 33.8967 20.7709 32.6299 20.3096C32.3604 20.2118 32.0792 20.1623 31.7945 20.1623C30.7702 20.1623 29.8468 20.8088 29.4967 21.7713C29.0359 23.0376 29.6916 24.4432 30.9578 24.904C31.2273 25.0017 31.5084 25.0518 31.7938 25.0518ZM30.645 22.1887C30.8203 21.7077 31.2823 21.3845 31.7945 21.3845C31.9368 21.3845 32.0768 21.4095 32.2125 21.4584C32.8456 21.6888 33.1731 22.3916 32.9428 23.0248C32.7191 23.6401 31.9998 23.983 31.3759 23.755C30.7427 23.5246 30.4146 22.8224 30.645 22.1887Z" fill="#272932"/>
<path d="M28.1109 25.056V6.72238C28.1109 5.03812 26.7401 3.66675 25.0552 3.66675H6.72158C5.03674 3.66675 3.66602 5.03812 3.66602 6.72238V25.056C3.66602 26.7409 5.03674 28.1117 6.72165 28.1117H25.0553C26.7401 28.1116 28.1109 26.7409 28.1109 25.056ZM4.88821 25.056V6.72238C4.88821 5.7116 5.71079 4.88902 6.72158 4.88902H25.0552C26.066 4.88902 26.8886 5.7116 26.8886 6.72238V25.056C26.8886 26.0675 26.066 26.8894 25.0552 26.8894H6.72158C5.71079 26.8894 4.88821 26.0674 4.88821 25.056Z" fill="#272932"/>
<path d="M9.77781 7.33333C8.42964 7.33333 7.33334 8.43027 7.33334 9.77779C7.33334 11.126 8.42971 12.2223 9.77781 12.2223C11.126 12.2223 12.2223 11.1259 12.2223 9.77779C12.2223 8.43027 11.1259 7.33333 9.77781 7.33333ZM9.77781 11.0001C9.10376 11.0001 8.55554 10.4525 8.55554 9.77779C8.55554 9.10375 9.10369 8.55553 9.77781 8.55553C10.4513 8.55553 11.0001 9.10367 11.0001 9.77779C11.0001 10.4525 10.4513 11.0001 9.77781 11.0001Z" fill="#272932"/>
<path d="M38.3225 17.1786L29.5334 13.9794C29.2168 13.8651 28.8654 14.0277 28.7506 14.3449C28.6345 14.6621 28.7983 15.0128 29.1154 15.1284L37.9045 18.3269C38.8542 18.6728 39.3461 19.727 39.0002 20.6767L32.7295 37.9049C32.3843 38.8551 31.3294 39.3465 30.3797 39.0012L13.1516 32.7305C12.2026 32.3846 11.7106 31.3304 12.0559 30.3801L12.3419 29.5942C12.458 29.277 12.2937 28.9262 11.9771 28.8114C11.6575 28.6965 11.3092 28.8596 11.1936 29.1768L10.9076 29.9621C10.3313 31.5455 11.1508 33.3025 12.7342 33.8788L29.9618 40.1495C30.3058 40.2742 30.6573 40.3341 31.0032 40.3341C32.2517 40.3335 33.4269 39.5622 33.8779 38.3229L40.1487 21.0947C40.7249 19.5113 39.9059 17.7549 38.3225 17.1786Z" fill="#272932"/>
<path d="M20.3255 29.0394C20.0328 29.5698 19.4119 29.8057 18.8429 29.5998C18.497 29.4739 18.3015 29.2251 18.1982 29.0381C18.035 28.7429 17.6629 28.6367 17.3677 28.7992C17.0719 28.963 16.9655 29.3345 17.1287 29.6303C17.4177 30.1516 17.8779 30.5488 18.4248 30.748C18.7017 30.8488 18.9847 30.8971 19.2639 30.8971C20.1299 30.8971 20.9525 30.432 21.3961 29.629C21.5587 29.3338 21.4511 28.9622 21.1559 28.7991C20.8596 28.636 20.4881 28.7436 20.3255 29.0394Z" fill="#272932"/>
<path d="M15.889 13.4446C14.5409 13.4446 13.4446 14.5415 13.4446 15.889C13.4446 17.2372 14.5409 18.3335 15.889 18.3335C17.2371 18.3335 18.3335 17.2371 18.3335 15.889C18.3336 14.5416 17.2372 13.4446 15.889 13.4446ZM15.889 17.1113C15.215 17.1113 14.6668 16.5637 14.6668 15.889C14.6668 15.215 15.2149 14.6667 15.889 14.6667C16.5625 14.6667 17.1113 15.2149 17.1113 15.889C17.1113 16.5637 16.5625 17.1113 15.889 17.1113Z" fill="#272932"/>
<path d="M22.0002 19.5558C20.6521 19.5558 19.5558 20.6527 19.5558 22.0002C19.5558 23.3484 20.6522 24.4447 22.0002 24.4447C23.3483 24.4447 24.4447 23.3483 24.4447 22.0002C24.4447 20.6527 23.3483 19.5558 22.0002 19.5558ZM22.0002 23.2225C21.3262 23.2225 20.778 22.6749 20.778 22.0002C20.778 21.3262 21.3261 20.778 22.0002 20.778C22.6737 20.778 23.2225 21.3261 23.2225 22.0002C23.2224 22.6749 22.6737 23.2225 22.0002 23.2225Z" fill="#272932"/>
<path d="M22.0002 7.33333C20.6521 7.33333 19.5558 8.43027 19.5558 9.77779C19.5558 11.126 20.6522 12.2223 22.0002 12.2223C23.3483 12.2223 24.4447 11.1259 24.4447 9.77779C24.4447 8.43027 23.3483 7.33333 22.0002 7.33333ZM22.0002 11.0001C21.3262 11.0001 20.778 10.4525 20.778 9.77779C20.778 9.10375 21.3261 8.55553 22.0002 8.55553C22.6737 8.55553 23.2225 9.10367 23.2225 9.77779C23.2224 10.4525 22.6737 11.0001 22.0002 11.0001Z" fill="#272932"/>
<path d="M9.77781 19.5558C8.42964 19.5558 7.33334 20.6527 7.33334 22.0002C7.33334 23.3484 8.42971 24.4447 9.77781 24.4447C11.126 24.4447 12.2223 23.3483 12.2223 22.0002C12.2223 20.6527 11.1259 19.5558 9.77781 19.5558ZM9.77781 23.2225C9.10376 23.2225 8.55554 22.6749 8.55554 22.0002C8.55554 21.3262 9.10369 20.778 9.77781 20.778C10.4513 20.778 11.0001 21.3261 11.0001 22.0002C11.0001 22.6749 10.4513 23.2225 9.77781 23.2225Z" stroke="#272932" stroke-width="0.4125"/>
<path d="M28.4495 29.3504C27.4259 29.3504 26.5025 29.9963 26.1517 30.9594C25.6909 32.2257 26.346 33.6306 27.6123 34.092C27.8824 34.1898 28.1635 34.2399 28.4489 34.2399C29.4725 34.2399 30.3959 33.5934 30.7455 32.6309C31.2063 31.3646 30.5511 29.959 29.2849 29.4982C29.0148 29.3999 28.7336 29.3504 28.4495 29.3504ZM29.5972 32.2129C29.3735 32.8283 28.6542 33.1693 28.0302 32.9438C27.3971 32.7128 27.0696 32.01 27.3 31.3775C27.4754 30.896 27.9373 30.5727 28.4495 30.5727C28.5913 30.5727 28.7312 30.5978 28.8668 30.6467C29.5 30.877 29.8276 31.5798 29.5972 32.2129Z" stroke="#272932" stroke-width="0.4125"/>
<path d="M31.7938 25.0518C32.8181 25.0518 33.7415 24.4053 34.091 23.4428C34.5518 22.1765 33.8967 20.7709 32.6299 20.3096C32.3604 20.2118 32.0792 20.1623 31.7945 20.1623C30.7702 20.1623 29.8468 20.8088 29.4967 21.7713C29.0359 23.0376 29.6916 24.4432 30.9578 24.904C31.2273 25.0017 31.5084 25.0518 31.7938 25.0518ZM30.645 22.1887C30.8203 21.7077 31.2823 21.3845 31.7945 21.3845C31.9368 21.3845 32.0768 21.4095 32.2125 21.4584C32.8456 21.6888 33.1731 22.3916 32.9428 23.0248C32.7191 23.6401 31.9998 23.983 31.3759 23.755C30.7427 23.5246 30.4146 22.8224 30.645 22.1887Z" stroke="#272932" stroke-width="0.4125"/>
<path d="M28.1109 25.056V6.72238C28.1109 5.03812 26.7401 3.66675 25.0552 3.66675H6.72158C5.03674 3.66675 3.66602 5.03812 3.66602 6.72238V25.056C3.66602 26.7409 5.03674 28.1117 6.72165 28.1117H25.0553C26.7401 28.1116 28.1109 26.7409 28.1109 25.056ZM4.88821 25.056V6.72238C4.88821 5.7116 5.71079 4.88902 6.72158 4.88902H25.0552C26.066 4.88902 26.8886 5.7116 26.8886 6.72238V25.056C26.8886 26.0675 26.066 26.8894 25.0552 26.8894H6.72158C5.71079 26.8894 4.88821 26.0674 4.88821 25.056Z" stroke="#272932" stroke-width="0.4125"/>
<path d="M9.77781 7.33333C8.42964 7.33333 7.33334 8.43027 7.33334 9.77779C7.33334 11.126 8.42971 12.2223 9.77781 12.2223C11.126 12.2223 12.2223 11.1259 12.2223 9.77779C12.2223 8.43027 11.1259 7.33333 9.77781 7.33333ZM9.77781 11.0001C9.10376 11.0001 8.55554 10.4525 8.55554 9.77779C8.55554 9.10375 9.10369 8.55553 9.77781 8.55553C10.4513 8.55553 11.0001 9.10367 11.0001 9.77779C11.0001 10.4525 10.4513 11.0001 9.77781 11.0001Z" stroke="#272932" stroke-width="0.4125"/>
<path d="M38.3225 17.1786L29.5334 13.9794C29.2168 13.8651 28.8654 14.0277 28.7506 14.3449C28.6345 14.6621 28.7983 15.0128 29.1154 15.1284L37.9045 18.3269C38.8542 18.6728 39.3461 19.727 39.0002 20.6767L32.7295 37.9049C32.3843 38.8551 31.3294 39.3465 30.3797 39.0012L13.1516 32.7305C12.2026 32.3846 11.7106 31.3304 12.0559 30.3801L12.3419 29.5942C12.458 29.277 12.2937 28.9262 11.9771 28.8114C11.6575 28.6965 11.3092 28.8596 11.1936 29.1768L10.9076 29.9621C10.3313 31.5455 11.1508 33.3025 12.7342 33.8788L29.9618 40.1495C30.3058 40.2742 30.6573 40.3341 31.0032 40.3341C32.2517 40.3335 33.4269 39.5622 33.8779 38.3229L40.1487 21.0947C40.7249 19.5113 39.9059 17.7549 38.3225 17.1786Z" stroke="#272932" stroke-width="0.4125"/>
<path d="M20.3255 29.0394C20.0328 29.5698 19.4119 29.8057 18.8429 29.5998C18.497 29.4739 18.3015 29.2251 18.1982 29.0381C18.035 28.7429 17.6629 28.6367 17.3677 28.7992C17.0719 28.963 16.9655 29.3345 17.1287 29.6303C17.4177 30.1516 17.8779 30.5488 18.4248 30.748C18.7017 30.8488 18.9847 30.8971 19.2639 30.8971C20.1299 30.8971 20.9525 30.432 21.3961 29.629C21.5587 29.3338 21.4511 28.9622 21.1559 28.7991C20.8596 28.636 20.4881 28.7436 20.3255 29.0394Z" stroke="#272932" stroke-width="0.4125"/>
<path d="M15.889 13.4446C14.5409 13.4446 13.4446 14.5415 13.4446 15.889C13.4446 17.2372 14.5409 18.3335 15.889 18.3335C17.2371 18.3335 18.3335 17.2371 18.3335 15.889C18.3336 14.5416 17.2372 13.4446 15.889 13.4446ZM15.889 17.1113C15.215 17.1113 14.6668 16.5637 14.6668 15.889C14.6668 15.215 15.2149 14.6667 15.889 14.6667C16.5625 14.6667 17.1113 15.2149 17.1113 15.889C17.1113 16.5637 16.5625 17.1113 15.889 17.1113Z" stroke="#272932" stroke-width="0.4125"/>
<path d="M22.0002 19.5558C20.6521 19.5558 19.5558 20.6527 19.5558 22.0002C19.5558 23.3484 20.6522 24.4447 22.0002 24.4447C23.3483 24.4447 24.4447 23.3483 24.4447 22.0002C24.4447 20.6527 23.3483 19.5558 22.0002 19.5558ZM22.0002 23.2225C21.3262 23.2225 20.778 22.6749 20.778 22.0002C20.778 21.3262 21.3261 20.778 22.0002 20.778C22.6737 20.778 23.2225 21.3261 23.2225 22.0002C23.2224 22.6749 22.6737 23.2225 22.0002 23.2225Z" stroke="#272932" stroke-width="0.4125"/>
<path d="M22.0002 7.33333C20.6521 7.33333 19.5558 8.43027 19.5558 9.77779C19.5558 11.126 20.6522 12.2223 22.0002 12.2223C23.3483 12.2223 24.4447 11.1259 24.4447 9.77779C24.4447 8.43027 23.3483 7.33333 22.0002 7.33333ZM22.0002 11.0001C21.3262 11.0001 20.778 10.4525 20.778 9.77779C20.778 9.10375 21.3261 8.55553 22.0002 8.55553C22.6737 8.55553 23.2225 9.10367 23.2225 9.77779C23.2224 10.4525 22.6737 11.0001 22.0002 11.0001Z" stroke="#272932" stroke-width="0.4125"/>
</svg>
