<svg width="24" height="24" viewBox="0 0 24 24" fill="none" xmlns="http://www.w3.org/2000/svg">
<path fill-rule="evenodd" clip-rule="evenodd" d="M4.05882 4.5C3.75183 4.5 3.5 4.7502 3.5 5.0625V20.0931C3.5 20.2016 3.54296 20.3053 3.61887 20.3814L3.6964 20.4592C3.72262 20.4855 3.7578 20.5 3.79412 20.5C3.83044 20.5 3.86562 20.4855 3.89183 20.4592L6.13243 18.2109C6.70545 17.6359 7.483 17.3125 8.29412 17.3125H19.4118C20.0111 17.3125 20.5 16.8244 20.5 16.2188V5.0625C20.5 4.7502 20.2482 4.5 19.9412 4.5H4.05882ZM2.5 5.0625C2.5 4.20119 3.19628 3.5 4.05882 3.5H19.9412C20.8037 3.5 21.5 4.20119 21.5 5.0625V16.2188C21.5 17.3735 20.5667 18.3125 19.4118 18.3125H8.29412C7.74933 18.3125 7.22651 18.5296 6.84076 18.9167L4.60016 21.1651C4.38669 21.3793 4.09678 21.5 3.79412 21.5C3.49146 21.5 3.20155 21.3793 2.98807 21.1651L2.91054 21.0873C2.64748 20.8233 2.5 20.4657 2.5 20.0931V5.0625ZM8.32353 9.3125C8.32353 9.03636 8.54739 8.8125 8.82353 8.8125H15.1765C15.4526 8.8125 15.6765 9.03636 15.6765 9.3125C15.6765 9.58864 15.4526 9.8125 15.1765 9.8125H8.82353C8.54739 9.8125 8.32353 9.58864 8.32353 9.3125ZM8.32353 12.5C8.32353 12.2239 8.54739 12 8.82353 12H15.1765C15.4526 12 15.6765 12.2239 15.6765 12.5C15.6765 12.7761 15.4526 13 15.1765 13H8.82353C8.54739 13 8.32353 12.7761 8.32353 12.5Z" fill="#272932"/>
<circle cx="18" cy="6" r="5" fill="#FF384F"/>
</svg>
