<svg viewBox="0 0 32 32" fill="none" xmlns="http://www.w3.org/2000/svg">
<rect width="32" height="32" rx="16" fill="#9EB4FF"/>
<path d="M23.3935 9.34797C22.0104 8.71308 20.5508 8.26034 19.0512 8.0011C19.0376 7.99858 19.0235 8.00042 19.011 8.00635C18.9984 8.01229 18.9881 8.02202 18.9814 8.03417C18.7939 8.3676 18.5861 8.8028 18.4407 9.14477C16.8009 8.89923 15.1697 8.89923 13.5636 9.14477C13.4181 8.79512 13.2028 8.3676 13.0145 8.03417C13.0075 8.02227 12.9971 8.01275 12.9846 8.00685C12.9722 8.00096 12.9582 7.99895 12.9446 8.0011C11.4449 8.25982 9.98519 8.71257 8.6023 9.34797C8.59047 9.353 8.58048 9.36157 8.57371 9.3725C5.80805 13.5043 5.05051 17.5346 5.42213 21.5149C5.42317 21.5247 5.42616 21.5341 5.43092 21.5427C5.43569 21.5513 5.44213 21.5588 5.44987 21.5648C7.27451 22.9049 9.04209 23.7184 10.7768 24.2576C10.7903 24.2616 10.8047 24.2615 10.8181 24.2571C10.8315 24.2527 10.8432 24.2443 10.8517 24.2331C11.262 23.6727 11.6278 23.0818 11.9415 22.4605C11.9458 22.452 11.9483 22.4427 11.9487 22.4331C11.9492 22.4236 11.9476 22.4141 11.9441 22.4052C11.9406 22.3963 11.9353 22.3883 11.9285 22.3816C11.9216 22.375 11.9135 22.3698 11.9045 22.3665C11.3242 22.1464 10.7718 21.8781 10.2404 21.5734C10.2307 21.5677 10.2226 21.5597 10.2167 21.5501C10.2109 21.5405 10.2074 21.5296 10.2068 21.5184C10.2061 21.5072 10.2082 21.496 10.2129 21.4858C10.2176 21.4756 10.2247 21.4667 10.2337 21.4599C10.3458 21.3761 10.4559 21.2897 10.5641 21.2009C10.5736 21.1931 10.5851 21.188 10.5972 21.1864C10.6094 21.1847 10.6218 21.1865 10.633 21.1915C14.1244 22.7855 17.9042 22.7855 21.3543 21.1915C21.3656 21.1862 21.3781 21.1841 21.3905 21.1857C21.4029 21.1872 21.4146 21.1922 21.4242 21.2C21.5325 21.2894 21.6429 21.376 21.7555 21.4599C21.7645 21.4666 21.7717 21.4755 21.7764 21.4856C21.7812 21.4958 21.7834 21.507 21.7828 21.5182C21.7822 21.5294 21.7789 21.5403 21.7731 21.5499C21.7673 21.5595 21.7593 21.5676 21.7496 21.5734C21.2179 21.8838 20.661 22.1489 20.0847 22.3657C20.0757 22.3691 20.0676 22.3744 20.0608 22.3812C20.0541 22.3879 20.0488 22.3961 20.0454 22.405C20.042 22.414 20.0405 22.4235 20.041 22.4331C20.0416 22.4427 20.0441 22.452 20.0485 22.4605C20.3677 23.0769 20.7316 23.6691 21.1374 24.2322C21.1456 24.2438 21.1573 24.2524 21.1707 24.257C21.1842 24.2615 21.1987 24.2617 21.2123 24.2576C22.9554 23.7184 24.723 22.9049 26.5477 21.5648C26.5556 21.5591 26.5621 21.5517 26.5668 21.5433C26.5716 21.5348 26.5746 21.5254 26.5755 21.5158C27.0203 16.9141 25.8304 12.9168 23.4212 9.37336C23.4153 9.36184 23.4055 9.35283 23.3935 9.34797ZM12.4629 19.0914C11.4117 19.0914 10.5456 18.1264 10.5456 16.9412C10.5456 15.756 11.3949 14.791 12.4629 14.791C13.5392 14.791 14.3969 15.7646 14.38 16.9412C14.38 18.1264 13.5308 19.0914 12.4629 19.0914ZM19.5516 19.0914C18.5004 19.0914 17.6343 18.1264 17.6343 16.9412C17.6343 15.756 18.4836 14.791 19.5516 14.791C20.6278 14.791 21.4855 15.7646 21.4688 16.9412C21.4688 18.1264 20.6278 19.0914 19.5516 19.0914Z" fill="white"/>
</svg>
