<svg width="24" height="24" viewBox="0 0 24 24" fill="none" xmlns="http://www.w3.org/2000/svg">
<path d="M3.45079 14.8212C3.61968 15.0121 3.82732 15.165 4.05992 15.2697C4.29253 15.3744 4.54479 15.4285 4.79998 15.4286H9.54544V16.898C9.54544 17.7207 9.873 18.5097 10.4561 19.0914C11.0391 19.6732 11.83 20 12.6545 20C12.7458 20 12.8352 19.9747 12.9128 19.9268C12.9904 19.8789 13.0531 19.8104 13.0939 19.729L16.2308 13.4694H19.8545C20.1583 13.4694 20.4497 13.349 20.6645 13.1347C20.8793 12.9203 21 12.6296 21 12.3265V5.14286C21 4.83975 20.8793 4.54906 20.6645 4.33474C20.4497 4.12041 20.1583 4 19.8545 4H5.7818C5.34309 4 4.91949 4.15985 4.59059 4.44952C4.26169 4.73919 4.05014 5.13873 3.9957 5.57306L3.01389 13.4098C2.98224 13.6625 3.00483 13.9191 3.08016 14.1624C3.15549 14.4057 3.28183 14.6303 3.45079 14.8212ZM20.0182 5.14286V12.3265C20.0182 12.3698 20.0009 12.4114 19.9703 12.442C19.9396 12.4726 19.8979 12.4898 19.8545 12.4898H16.4182V4.97959H19.8545C19.8979 4.97959 19.9396 4.99679 19.9703 5.02741C20.0009 5.05803 20.0182 5.09956 20.0182 5.14286ZM3.98834 13.5314L4.97016 5.69469C4.99488 5.4973 5.091 5.3157 5.24046 5.18402C5.38991 5.05235 5.58241 4.97965 5.7818 4.97959H15.4364V12.8637L12.3616 19C11.8531 18.9295 11.3873 18.6778 11.0502 18.2915C10.713 17.9052 10.5273 17.4102 10.5273 16.898V14.9388C10.5273 14.8089 10.4755 14.6843 10.3835 14.5924C10.2914 14.5006 10.1665 14.449 10.0363 14.449H4.79998C4.68399 14.4489 4.56933 14.4243 4.46361 14.3767C4.35789 14.3291 4.26352 14.2596 4.18677 14.1728C4.11002 14.0861 4.05263 13.984 4.01842 13.8734C3.98421 13.7628 3.97396 13.6463 3.98834 13.5314Z" fill="#737782"/>
</svg>
