<svg viewBox="0 0 24 24" fill="none" xmlns="http://www.w3.org/2000/svg">
<path fill-rule="evenodd" clip-rule="evenodd" d="M12.3536 5.64645C12.5488 5.84171 12.5488 6.15829 12.3536 6.35355L6.70711 12L12.3536 17.6464C12.5488 17.8417 12.5488 18.1583 12.3536 18.3536C12.1583 18.5488 11.8417 18.5488 11.6464 18.3536L5.64645 12.3536C5.45118 12.1583 5.45118 11.8417 5.64645 11.6464L11.6464 5.64645C11.8417 5.45118 12.1583 5.45118 12.3536 5.64645ZM18.3536 5.64645C18.5488 5.84171 18.5488 6.15829 18.3536 6.35355L12.7071 12L18.3536 17.6464C18.5488 17.8417 18.5488 18.1583 18.3536 18.3536C18.1583 18.5488 17.8417 18.5488 17.6464 18.3536L11.6464 12.3536C11.5527 12.2598 11.5 12.1326 11.5 12C11.5 11.8674 11.5527 11.7402 11.6464 11.6464L17.6464 5.64645C17.8417 5.45118 18.1583 5.45118 18.3536 5.64645Z" fill="#272932"/>
</svg>
