<svg viewBox="0 0 24 24" fill="none" xmlns="http://www.w3.org/2000/svg">
<path d="M3.54492 17.9999C2.99264 17.9999 2.54492 17.5522 2.54492 16.9999V7.36353C2.54492 6.81124 2.99264 6.36353 3.54492 6.36353H8.81765C9.08124 6.36353 9.29492 6.57721 9.29492 6.8408C9.29492 7.10439 9.08124 7.31807 8.81765 7.31807H3.60742V11.6988H8.45969C8.72329 11.6988 8.93697 11.9124 8.93697 12.176C8.93697 12.4396 8.72329 12.6533 8.45969 12.6533H3.60742V17.0453H8.93128C9.19488 17.0453 9.40856 17.259 9.40856 17.5226C9.40856 17.7862 9.19488 17.9999 8.93129 17.9999H3.54492Z" fill="#272932"/>
<path d="M20.5847 6.36353C20.8734 6.36353 21.1074 6.59756 21.1074 6.88625V17.3188C21.1074 17.695 20.8025 17.9999 20.4263 17.9999C20.205 17.9999 19.9974 17.8923 19.8698 17.7114L13.1983 8.25557H13.1074V17.4686C13.1074 17.762 12.8696 17.9999 12.5762 17.9999C12.2828 17.9999 12.0449 17.762 12.0449 17.4686V7.04115C12.0449 6.66691 12.3483 6.36353 12.7225 6.36353C12.9425 6.36353 13.1488 6.47032 13.2758 6.64995L19.9711 16.1192H20.062V6.88625C20.062 6.59756 20.296 6.36353 20.5847 6.36353Z" fill="#272932"/>
</svg>
