<svg width="20" height="20" viewBox="0 0 20 20" fill="none" xmlns="http://www.w3.org/2000/svg">
<path fill-rule="evenodd" clip-rule="evenodd" d="M5.85768 1.41622C6.12418 1.14972 6.48563 1 6.86252 1H13.1375C13.5144 1 13.8758 1.14972 14.1423 1.41622L18.5838 5.85768C18.8503 6.12418 19 6.48563 19 6.86252V13.1375C19 13.5144 18.8503 13.8758 18.5838 14.1423L14.1423 18.5838C13.8758 18.8503 13.5144 19 13.1375 19H6.86252C6.48563 19 6.12418 18.8503 5.85768 18.5838L1.41622 14.1423C1.14972 13.8758 1 13.5144 1 13.1375V6.86252C1 6.48563 1.14972 6.12418 1.41622 5.85768L5.85768 1.41622ZM6.86252 1.94737C6.73689 1.94737 6.61641 1.99727 6.52757 2.08611L2.08611 6.52757C1.99727 6.61641 1.94737 6.73689 1.94737 6.86252V13.1375C1.94737 13.2631 1.99727 13.3836 2.08611 13.4724L6.52757 17.9139C6.61641 18.0027 6.73689 18.0526 6.86252 18.0526H13.1375C13.2631 18.0526 13.3836 18.0027 13.4724 17.9139L17.9139 13.4724C18.0027 13.3836 18.0526 13.2631 18.0526 13.1375V6.86252C18.0526 6.73689 18.0027 6.61641 17.9139 6.52757L13.4724 2.08611C13.3836 1.99727 13.2631 1.94737 13.1375 1.94737H6.86252ZM7.10716 7.10716C7.29215 6.92218 7.59207 6.92218 7.77705 7.10716L10 9.33011L12.223 7.10716C12.4079 6.92218 12.7079 6.92218 12.8928 7.10716C13.0778 7.29215 13.0778 7.59207 12.8928 7.77705L10.6699 10L12.8928 12.223C13.0778 12.4079 13.0778 12.7079 12.8928 12.8928C12.7079 13.0778 12.4079 13.0778 12.223 12.8928L10 10.6699L7.77705 12.8928C7.59207 13.0778 7.29215 13.0778 7.10716 12.8928C6.92218 12.7079 6.92218 12.4079 7.10716 12.223L9.33011 10L7.10716 7.77705C6.92218 7.59207 6.92218 7.29215 7.10716 7.10716Z" fill="#FF384F" stroke="#FF384F" stroke-width="0.3" stroke-linecap="round" stroke-linejoin="round"/>
</svg>
