<svg viewBox="0 0 44 44" fill="none" xmlns="http://www.w3.org/2000/svg">
<path fill-rule="evenodd" clip-rule="evenodd" d="M22.9047 10.0085C22.2715 9.66382 21.5636 9.66382 20.9304 10.0085L8.77323 16.6272C8.77249 16.6285 8.77161 16.6301 8.77061 16.6321C8.76099 16.6512 8.75 16.6874 8.75 16.735C8.75 16.7825 8.76099 16.8187 8.77061 16.8378C8.77161 16.8398 8.77249 16.8414 8.77323 16.8427L20.9304 23.4614C21.5636 23.8061 22.2715 23.8061 22.9047 23.4614L35.0619 16.8427C35.0627 16.8414 35.0635 16.8398 35.0645 16.8378C35.0742 16.8187 35.0851 16.7825 35.0851 16.735C35.0851 16.6874 35.0742 16.6512 35.0645 16.6321C35.0635 16.6301 35.0627 16.6285 35.0619 16.6272L22.9047 10.0085ZM35.0731 16.8366L35.0729 16.8367L35.0731 16.8366ZM20.2132 8.69112C21.2936 8.10296 22.5416 8.10296 23.6219 8.69112L35.7904 15.3159C36.1576 15.5158 36.3794 15.8352 36.492 16.1689C36.6501 16.3064 36.75 16.509 36.75 16.735V24.8528C36.75 25.267 36.4142 25.6028 36 25.6028C35.5858 25.6028 35.25 25.267 35.25 24.8528V18.4482L31.6673 20.3987C31.7386 20.5135 31.7797 20.6489 31.7797 20.7939V30.9411C31.7797 30.9915 31.7747 31.0417 31.7646 31.0911L31.0297 30.9411C31.7646 31.0911 31.7644 31.0918 31.7643 31.0925L31.764 31.0941L31.7633 31.0975L31.7615 31.1054L31.7569 31.1257C31.7532 31.1412 31.7484 31.1606 31.7421 31.1836C31.7296 31.2296 31.7114 31.2902 31.6859 31.3632C31.6348 31.5092 31.5541 31.7051 31.4296 31.9338C31.1798 32.3928 30.7569 32.9778 30.0545 33.5515C28.6432 34.704 26.1813 35.75 21.9176 35.75C17.6538 35.75 15.192 34.704 13.7807 33.5515C13.0783 32.9778 12.6553 32.3928 12.4055 31.9338C12.2811 31.7051 12.2003 31.5092 12.1493 31.3632C12.1237 31.2902 12.1056 31.2296 12.093 31.1836C12.0868 31.1606 12.0819 31.1412 12.0783 31.1257L12.0736 31.1054L12.0719 31.0975L12.0712 31.0941L12.0709 31.0925C12.0707 31.0918 12.0706 31.0911 12.8054 30.9411L12.0706 31.0911C12.0605 31.0417 12.0554 30.9915 12.0554 30.9411V20.7939C12.0554 20.6489 12.0966 20.5135 12.1678 20.3987L8.04478 18.154L8.40339 17.4953L8.04478 18.154C7.46796 17.84 7.25 17.2313 7.25 16.735C7.25 16.2386 7.46796 15.6299 8.04478 15.3159L20.2132 8.69112ZM13.5554 21.1541V30.8392C13.5582 30.8479 13.5615 30.8574 13.5651 30.8678C13.5917 30.9438 13.6404 31.065 13.723 31.2168C13.8874 31.5188 14.1893 31.9485 14.7295 32.3896C15.8033 33.2666 17.8975 34.25 21.9176 34.25C25.9376 34.25 28.0318 33.2666 29.1057 32.3896C29.6458 31.9485 29.9477 31.5188 30.1121 31.2168C30.1947 31.065 30.2434 30.9438 30.27 30.8678C30.2737 30.8574 30.2769 30.8479 30.2797 30.8392V21.1541L23.6219 24.7788C22.5416 25.367 21.2936 25.367 20.2132 24.7788L13.5554 21.1541Z" fill="#272932"/>
</svg>
