<svg width="24" height="24" viewBox="0 0 24 24" fill="none" xmlns="http://www.w3.org/2000/svg">
<path fill-rule="evenodd" clip-rule="evenodd" d="M2.64645 12.3536C2.45118 12.1583 2.45118 11.8417 2.64645 11.6464L5.64645 8.64645C5.84171 8.45118 6.15829 8.45118 6.35355 8.64645C6.54882 8.84171 6.54882 9.15829 6.35355 9.35355L4.20711 11.5H15C15.2761 11.5 15.5 11.7239 15.5 12C15.5 12.2761 15.2761 12.5 15 12.5H4.20711L6.35355 14.6464C6.54882 14.8417 6.54882 15.1583 6.35355 15.3536C6.15829 15.5488 5.84171 15.5488 5.64645 15.3536L2.64645 12.3536ZM11 20.5C10.1716 20.5 9.5 19.8284 9.5 19V18C9.5 17.7239 9.72386 17.5 10 17.5C10.2761 17.5 10.5 17.7239 10.5 18V19C10.5 19.2761 10.7239 19.5 11 19.5H19C19.3978 19.5 19.7794 19.342 20.0607 19.0607C20.342 18.7794 20.5 18.3978 20.5 18V6C20.5 5.60218 20.342 5.22064 20.0607 4.93934C19.7794 4.65804 19.3978 4.5 19 4.5L11 4.5C10.7239 4.5 10.5 4.72386 10.5 5L10.5 6C10.5 6.27614 10.2761 6.5 10 6.5C9.72386 6.5 9.5 6.27614 9.5 6V5C9.5 4.17157 10.1716 3.5 11 3.5H19C19.663 3.5 20.2989 3.76339 20.7678 4.23223C21.2366 4.70107 21.5 5.33696 21.5 6V18C21.5 18.663 21.2366 19.2989 20.7678 19.7678C20.2989 20.2366 19.663 20.5 19 20.5H11Z" fill="#272932"/>
</svg>
