<svg width="24" height="24" viewBox="0 0 24 24" fill="none" xmlns="http://www.w3.org/2000/svg">
<path fill-rule="evenodd" clip-rule="evenodd" d="M4.61534 8.68048C4.79175 8.46803 5.31288 8.49972 5.31288 8.49972L18.6685 8.49985C18.6685 8.49985 19.1912 8.46166 19.3743 8.66838C19.5574 8.87509 19.5382 9.1911 19.3315 9.37419L12.5573 15.3742C12.3726 15.5378 12.0962 15.5422 11.9064 15.3846L4.6806 9.38457C4.46815 9.20816 4.43893 8.89293 4.61534 8.68048Z" fill="#272932"/>
<path fill-rule="evenodd" clip-rule="evenodd" d="M4.61534 8.68048C4.79175 8.46803 5.31288 8.49972 5.31288 8.49972L18.6685 8.49985C18.6685 8.49985 19.1912 8.46166 19.3743 8.66838C19.5574 8.87509 19.5382 9.1911 19.3315 9.37419L12.5573 15.3742C12.3726 15.5378 12.0962 15.5422 11.9064 15.3846L4.6806 9.38457C4.46815 9.20816 4.43893 8.89293 4.61534 8.68048Z" fill="#272932"/>
</svg>
