<svg width="16" height="16" viewBox="0 0 16 16" fill="none" xmlns="http://www.w3.org/2000/svg">
<path fill-rule="evenodd" clip-rule="evenodd" d="M7.09158 2.36626C7.29159 2.00613 7.5625 1.6665 7.99982 1.6665C8.43714 1.6665 8.70805 2.00613 8.90806 2.36626C9.11478 2.73847 9.32656 3.28372 9.59129 3.9653L9.62722 4.05781C9.7842 4.46197 9.89341 4.74206 10.0007 4.95287C10.1048 5.15729 10.1944 5.27004 10.2982 5.34975C10.4013 5.42896 10.5297 5.48416 10.7465 5.52763C10.9713 5.57271 11.2609 5.59993 11.6814 5.63882L11.8607 5.65541C12.5122 5.71565 13.0395 5.76441 13.42 5.85713C13.8005 5.94986 14.1629 6.11667 14.2923 6.51378C14.4202 6.90668 14.2325 7.25934 13.9854 7.56838C13.7373 7.87871 13.3464 8.24599 12.8618 8.70135L12.5051 9.03642C11.9723 9.537 11.7916 9.71771 11.7068 9.94191C11.6897 9.98706 11.6755 10.0334 11.6642 10.0805C11.608 10.3162 11.6556 10.5745 11.8114 11.3001L11.8623 11.5369C11.9954 12.1565 12.101 12.6479 12.1415 13.0181C12.1799 13.3694 12.1781 13.7352 11.9551 13.9915C11.8239 14.1424 11.6522 14.2524 11.4596 14.3067C11.1268 14.4005 10.7997 14.2309 10.5135 14.0381C10.2105 13.8341 9.83198 13.5156 9.35634 13.1153L9.33932 13.101C9.01264 12.8261 8.7853 12.6353 8.59434 12.5034C8.40814 12.3748 8.28209 12.3209 8.16494 12.3016C8.05554 12.2836 7.9441 12.2836 7.83469 12.3016C7.71754 12.3209 7.59149 12.3748 7.40529 12.5034C7.21434 12.6353 6.987 12.8261 6.66032 13.101L6.64328 13.1154C6.16765 13.5156 5.78917 13.8341 5.48614 14.0381C5.19989 14.2309 4.87282 14.4005 4.54001 14.3067C4.34748 14.2524 4.17571 14.1424 4.04448 13.9915C3.82158 13.7352 3.81976 13.3694 3.85815 13.0181C3.8986 12.6479 4.00419 12.1565 4.13733 11.5368L4.18819 11.3001C4.34408 10.5745 4.39166 10.3162 4.33542 10.0805C4.32416 10.0334 4.30994 9.98706 4.29285 9.94191C4.20799 9.71771 4.02729 9.537 3.49451 9.03642L3.13791 8.70138C2.65323 8.24601 2.2623 7.87872 2.01419 7.56838C1.76712 7.25934 1.57941 6.90668 1.70737 6.51378C1.83669 6.11667 2.19918 5.94986 2.57967 5.85713C2.96013 5.76441 3.48744 5.71565 4.13893 5.65541L4.31822 5.63882C4.7387 5.59993 5.02832 5.57271 5.25315 5.52763C5.46991 5.48416 5.59829 5.42896 5.70144 5.34975C5.80526 5.27004 5.89488 5.15729 5.99893 4.95286C6.10622 4.74206 6.21543 4.46197 6.37241 4.05781L6.40834 3.96531C6.67307 3.28372 6.88485 2.73847 7.09158 2.36626Z" fill="#FF384F"/>
</svg>
