<svg width="24" height="24" viewBox="0 0 24 24" fill="none" xmlns="http://www.w3.org/2000/svg">
<path d="M14.038 2.5C15.42 2.49999 16.5082 2.49998 17.3584 2.61429C18.2308 2.73158 18.9272 2.9774 19.4749 3.52513C20.0226 4.07285 20.2684 4.76918 20.3857 5.64156C20.5 6.49179 20.5 7.58 20.5 8.96202V15.8728C20.5 17.1762 20.5 18.2116 20.3892 18.9699C20.2779 19.7313 20.0308 20.3935 19.3743 20.7126C18.7178 21.0317 18.0444 20.8169 17.3769 20.434C16.7122 20.0527 15.898 19.4129 14.8732 18.6077L14.1624 18.0492C13.5596 17.5755 13.1418 17.2484 12.7903 17.0345C12.4503 16.8277 12.2202 16.7578 12 16.7578C11.7798 16.7578 11.5497 16.8277 11.2097 17.0345C10.8582 17.2484 10.4404 17.5755 9.83762 18.0492L9.12683 18.6077C8.10198 19.4129 7.28778 20.0527 6.62308 20.434C5.95564 20.8169 5.28222 21.0317 4.62573 20.7126C3.96923 20.3935 3.72207 19.7313 3.61079 18.9699C3.49997 18.2116 3.49999 17.1762 3.5 15.8728V15.8728V8.96204V8.96202C3.49999 7.58 3.49998 6.49179 3.61429 5.64156C3.73158 4.76918 3.9774 4.07285 4.52513 3.52513C5.07285 2.9774 5.76918 2.73158 6.64156 2.61429C7.49179 2.49998 8.58001 2.49999 9.96203 2.5H9.96204H14.038Z" fill="#FF696D"/>
</svg>
