<svg width="40" height="40" viewBox="0 0 40 40" fill="none" xmlns="http://www.w3.org/2000/svg">
<rect width="40" height="40" rx="20" fill="#6C8DFF"/>
<path fill-rule="evenodd" clip-rule="evenodd" d="M12 11.5C11.7239 11.5 11.5 11.7239 11.5 12V14.0403C11.5 14.171 11.5512 14.2966 11.6427 14.39L16.8267 19.6864C17.0179 19.8818 17.125 20.1443 17.125 20.4177V27.9934C17.125 28.3361 17.4618 28.5772 17.7862 28.4667L22.5362 26.849C22.7388 26.78 22.875 26.5898 22.875 26.3757V20.4177C22.875 20.1443 22.9821 19.8818 23.1733 19.6864L28.3573 14.39C28.4488 14.2966 28.5 14.171 28.5 14.0403V12C28.5 11.7239 28.2761 11.5 28 11.5H12ZM10.5 12C10.5 11.1716 11.1716 10.5 12 10.5H28C28.8284 10.5 29.5 11.1716 29.5 12V14.0403C29.5 14.4325 29.3463 14.8091 29.072 15.0895L23.888 20.3859C23.8797 20.3944 23.875 20.4058 23.875 20.4177V26.3757C23.875 27.0178 23.4664 27.5887 22.8586 27.7957L18.1086 29.4133C17.1355 29.7447 16.125 29.0213 16.125 27.9934V20.4177C16.125 20.4058 16.1203 20.3944 16.112 20.3859L10.928 15.0895C10.6537 14.8091 10.5 14.4325 10.5 14.0403V12Z" fill="white"/>
<path d="M11.5 12C11.5 11.7239 11.7239 11.5 12 11.5H28C28.2761 11.5 28.5 11.7239 28.5 12V14.0403C28.5 14.171 28.4488 14.2966 28.3573 14.39L23.1733 19.6864C22.9821 19.8818 22.875 20.1443 22.875 20.4177V26.3757C22.875 26.5898 22.7388 26.78 22.5362 26.849L17.7862 28.4667C17.4618 28.5772 17.125 28.3361 17.125 27.9934V20.4177C17.125 20.1443 17.0179 19.8818 16.8267 19.6864L11.6427 14.39C11.5512 14.2966 11.5 14.171 11.5 14.0403V12Z" fill="white"/>
<circle cx="30" cy="11" r="5" fill="#FFAF05"/>
</svg>
