<svg viewBox="0 0 32 32" fill="none" xmlns="http://www.w3.org/2000/svg">
<path d="M15.999 0C7.16272 0 -0.000976562 7.16369 -0.000976562 16C-0.000976562 23.5551 5.23718 29.8831 12.279 31.5606C11.9147 31.4738 11.5535 31.3766 11.199 31.2658V27.6C11.199 27.6 10.599 27.8 9.79902 27.8C7.56087 27.8 6.63102 25.8031 6.39902 24.8C6.2581 24.1889 5.8901 23.6098 5.49502 23.256C5.02302 22.8351 4.8021 22.8338 4.79902 22.6898C4.79287 22.3877 5.20395 22.4 5.39902 22.4C6.39902 22.4 7.15718 23.464 7.50918 24.0142C8.38118 25.3723 9.31718 25.6 9.79902 25.6C10.399 25.6 10.9172 25.5102 11.2741 25.3378C11.439 24.176 11.9559 23.1409 12.799 22.4C9.04702 21.6498 6.39902 19.4978 6.39902 16C6.39902 14.1982 7.1221 12.5422 8.32702 11.2049C8.20395 10.856 7.99902 10.1502 7.99902 9C7.99902 8.24 8.05195 7.30708 8.39902 6.4C8.39902 6.4 10.6809 6.416 12.8329 8.45415C13.8261 8.16492 14.8889 8 15.999 8C17.1092 8 18.1719 8.16492 19.1652 8.45415C21.3172 6.416 23.599 6.4 23.599 6.4C23.9479 7.30708 23.999 8.24 23.999 9C23.999 10.24 23.8341 10.9631 23.7332 11.2751C24.9012 12.6 25.599 14.2302 25.599 16C25.599 19.4978 22.951 21.6498 19.199 22.4C20.2009 23.28 20.799 24.5618 20.799 26V31.2658C20.4446 31.3772 20.0839 31.4738 19.719 31.5606C26.7609 29.8831 31.999 23.5551 31.999 16C31.999 7.16369 24.8353 0 15.999 0ZM17.1147 31.9569C16.7461 31.9828 16.3744 32 15.999 32C16.3744 32 16.7455 31.9822 17.1147 31.9569ZM15.999 32C15.6236 32 15.2519 31.9828 14.8833 31.9569C15.2526 31.9822 15.6236 32 15.999 32ZM14.6378 31.9385C13.8889 31.8751 13.1541 31.7606 12.4384 31.5975C13.1547 31.76 13.8889 31.8751 14.6378 31.9385Z" fill="#9EB4FF"/>
</svg>
