<svg width="24" height="24" viewBox="0 0 24 24" fill="none" xmlns="http://www.w3.org/2000/svg">
<path d="M23.4792 8.87481H2.60965C2.3215 8.87481 2.08789 8.6412 2.08789 8.35305C2.08789 8.06491 2.3215 7.8313 2.60965 7.8313H23.4792C23.7674 7.8313 24.001 8.06491 24.001 8.35305C24.001 8.6412 23.7674 8.87481 23.4792 8.87481Z" fill="#272932"/>
<path d="M21.3913 16.1793H0.521755C0.233609 16.1793 0 15.9457 0 15.6575C0 15.3694 0.233609 15.1357 0.521755 15.1357H21.3913C21.6795 15.1357 21.9131 15.3694 21.9131 15.6575C21.913 15.9457 21.6794 16.1793 21.3913 16.1793Z" fill="#272932"/>
<path d="M12.0001 22.44C11.712 22.44 11.4784 22.2063 11.4785 21.9182C11.4785 21.8566 11.4894 21.7956 11.5107 21.7378L18.8151 1.91168C18.9091 1.63928 19.2061 1.49475 19.4785 1.58876C19.7509 1.68277 19.8954 1.97982 19.8014 2.25216C19.799 2.25906 19.7965 2.26591 19.7938 2.27271L12.4895 22.0988C12.4139 22.3038 12.2186 22.44 12.0001 22.44Z" fill="#272932"/>
<path d="M4.69544 22.44C4.40729 22.44 4.17373 22.2063 4.17383 21.9182C4.17383 21.8566 4.18474 21.7956 4.20606 21.7378L11.5104 1.91168C11.6044 1.63928 11.9014 1.49475 12.1738 1.58876C12.4462 1.68277 12.5907 1.97982 12.4967 2.25216C12.4943 2.25906 12.4918 2.26591 12.4891 2.27271L5.18481 22.0988C5.10924 22.3038 4.91393 22.44 4.69544 22.44Z" fill="#272932"/>
<path d="M23.4792 8.87481H2.60965C2.3215 8.87481 2.08789 8.6412 2.08789 8.35305C2.08789 8.06491 2.3215 7.8313 2.60965 7.8313H23.4792C23.7674 7.8313 24.001 8.06491 24.001 8.35305C24.001 8.6412 23.7674 8.87481 23.4792 8.87481Z" fill="#272932"/>
<path d="M21.3913 16.179H0.521755C0.233609 16.179 0 15.9454 0 15.6573C0 15.3691 0.233609 15.1355 0.521755 15.1355H21.3913C21.6795 15.1355 21.9131 15.3691 21.9131 15.6573C21.913 15.9454 21.6794 16.179 21.3913 16.179Z" fill="#272932"/>
<path d="M12.0001 22.44C11.712 22.44 11.4784 22.2063 11.4785 21.9182C11.4785 21.8566 11.4894 21.7956 11.5107 21.7378L18.8151 1.91168C18.9091 1.63928 19.2061 1.49475 19.4785 1.58876C19.7509 1.68277 19.8954 1.97982 19.8014 2.25216C19.799 2.25906 19.7965 2.26591 19.7938 2.27271L12.4895 22.0988C12.4139 22.3038 12.2186 22.44 12.0001 22.44Z" fill="#272932"/>
<path d="M4.69544 22.44C4.40729 22.44 4.17373 22.2063 4.17383 21.9182C4.17383 21.8566 4.18474 21.7956 4.20606 21.7378L11.5104 1.91168C11.6044 1.63928 11.9014 1.49475 12.1738 1.58876C12.4462 1.68277 12.5907 1.97982 12.4967 2.25216C12.4943 2.25906 12.4918 2.26591 12.4891 2.27271L5.18481 22.0988C5.10924 22.3038 4.91393 22.44 4.69544 22.44Z" fill="#272932"/>
</svg>
