<svg viewBox="0 0 44 44" fill="none" xmlns="http://www.w3.org/2000/svg">
<path fill-rule="evenodd" clip-rule="evenodd" d="M19.2143 24.7819H24.7857C26.1808 24.7819 27.3929 25.8554 27.3929 27.2766V34.5H27.5714C29.3623 34.5 30.5635 34.4972 31.459 34.3841C32.3205 34.2753 32.669 34.0877 32.8851 33.8847C33.0878 33.6943 33.2695 33.4036 33.3791 32.6375C33.4964 31.8182 33.5 30.7112 33.5 29.0213V21.6231C33.5 19.1108 33.4645 18.3449 33.1431 17.6883C32.8149 17.018 32.1957 16.4762 30.168 14.8435L28.3109 13.348C26.5514 11.9312 25.3363 10.9562 24.3102 10.3195C23.321 9.70578 22.6498 9.5 22 9.5C21.3502 9.5 20.679 9.70578 19.6898 10.3195C18.6637 10.9562 17.4486 11.9312 15.6891 13.348L13.832 14.8435C11.8043 16.4762 11.1851 17.018 10.8569 17.6883C10.5355 18.3449 10.5 19.1108 10.5 21.6231V29.0213C10.5 30.7112 10.5036 31.8182 10.6209 32.6375C10.7305 33.4036 10.9122 33.6943 11.1149 33.8847C11.331 34.0877 11.6795 34.2753 12.541 34.3841C13.4365 34.4972 14.6377 34.5 16.4286 34.5H16.6071V27.2766C16.6071 25.8554 17.8192 24.7819 19.2143 24.7819ZM27.5714 36C31.0733 36 32.8242 36 33.9121 34.978C35 33.956 35 32.3111 35 29.0213V21.6231C35 19.2543 35 18.0699 34.4903 17.0287C33.9806 15.9876 33.0233 15.2168 31.1088 13.6752L29.2517 12.1797C25.7912 9.39324 24.061 8 22 8C19.939 8 18.2088 9.39324 14.7483 12.1797L12.8912 13.6752C10.9767 15.2168 10.0194 15.9876 9.50971 17.0287C9 18.0699 9 19.2543 9 21.6231V29.0213C9 32.3111 9 33.956 10.0879 34.978C11.1758 36 12.9267 36 16.4286 36H27.5714ZM25.8929 34.5H18.1071V27.2766C18.1071 26.7707 18.558 26.2819 19.2143 26.2819H24.7857C25.442 26.2819 25.8929 26.7707 25.8929 27.2766V34.5Z" fill="#272932"/>
</svg>
