<svg width="44" height="44" viewBox="0 0 44 44" fill="none" xmlns="http://www.w3.org/2000/svg">
<path d="M33.4404 7.91992H10.5604C8.92666 7.91992 7.35984 8.56892 6.20461 9.72414C5.04939 10.8794 4.40039 12.4462 4.40039 14.0799V29.9199C4.40039 31.5537 5.04939 33.1205 6.20461 34.2757C7.35984 35.4309 8.92666 36.0799 10.5604 36.0799H33.4404C35.0741 36.0799 36.6409 35.4309 37.7962 34.2757C38.9514 33.1205 39.6004 31.5537 39.6004 29.9199V14.0799C39.6004 12.4462 38.9514 10.8794 37.7962 9.72414C36.6409 8.56892 35.0741 7.91992 33.4404 7.91992ZM6.16039 14.0799C6.16039 12.913 6.62396 11.7938 7.44912 10.9687C8.27428 10.1435 9.39344 9.67992 10.5604 9.67992H33.4404C34.6073 9.67992 35.7265 10.1435 36.5517 10.9687C37.3768 11.7938 37.8404 12.913 37.8404 14.0799V28.6967L29.6652 20.4951C29.583 20.4136 29.4854 20.349 29.3782 20.3052C29.271 20.2614 29.1562 20.2393 29.0404 20.2399C28.9246 20.2393 28.8098 20.2614 28.7026 20.3052C28.5953 20.349 28.4978 20.4136 28.4156 20.4951L19.3604 29.5591L13.8252 24.0151C13.7434 23.9326 13.6461 23.8672 13.5388 23.8225C13.4316 23.7778 13.3166 23.7548 13.2004 23.7548C13.0842 23.7548 12.9692 23.7778 12.862 23.8225C12.7547 23.8672 12.6574 23.9326 12.5756 24.0151L6.20439 30.3863C6.18102 30.2318 6.16633 30.0761 6.16039 29.9199V14.0799ZM33.4404 34.3199H10.5604C9.81479 34.3175 9.08203 34.1256 8.43091 33.7624C7.77979 33.3991 7.23167 32.8763 6.83799 32.2431L13.2004 25.8807L18.7356 31.4247C18.8174 31.5072 18.9147 31.5727 19.022 31.6173C19.1292 31.662 19.2442 31.685 19.3604 31.685C19.4766 31.685 19.5916 31.662 19.6988 31.6173C19.8061 31.5727 19.9034 31.5072 19.9852 31.4247L29.0404 22.3695L37.682 31.0287C37.4373 31.9685 36.8886 32.8009 36.1213 33.3962C35.3541 33.9915 34.4115 34.3163 33.4404 34.3199Z" fill="#272932"/>
<path d="M16.7204 20.2399C17.4166 20.2399 18.0971 20.0335 18.676 19.6467C19.2549 19.2599 19.706 18.7102 19.9724 18.067C20.2389 17.4238 20.3086 16.716 20.1728 16.0332C20.0369 15.3504 19.7017 14.7232 19.2094 14.2309C18.7171 13.7386 18.0899 13.4034 17.4071 13.2676C16.7243 13.1317 16.0165 13.2014 15.3733 13.4679C14.7302 13.7343 14.1804 14.1855 13.7936 14.7643C13.4068 15.3432 13.2004 16.0237 13.2004 16.7199C13.2004 17.6535 13.5712 18.5488 14.2314 19.2089C14.8915 19.8691 15.7868 20.2399 16.7204 20.2399ZM16.7204 14.9599C17.0685 14.9599 17.4088 15.0631 17.6982 15.2565C17.9876 15.4499 18.2132 15.7248 18.3464 16.0464C18.4796 16.368 18.5145 16.7219 18.4466 17.0633C18.3787 17.4047 18.211 17.7183 17.9649 17.9644C17.7188 18.2106 17.4052 18.3782 17.0638 18.4461C16.7223 18.514 16.3685 18.4792 16.0469 18.346C15.7253 18.2127 15.4504 17.9872 15.257 17.6977C15.0636 17.4083 14.9604 17.068 14.9604 16.7199C14.9604 16.2531 15.1458 15.8055 15.4759 15.4754C15.8059 15.1454 16.2536 14.9599 16.7204 14.9599Z" fill="#272932"/>
</svg>
