<svg width="44" height="44" viewBox="0 0 44 44" fill="none" xmlns="http://www.w3.org/2000/svg">
<path fill-rule="evenodd" clip-rule="evenodd" d="M21.25 16C21.25 15.5858 21.5858 15.25 22 15.25H22.02C22.4342 15.25 22.77 15.5858 22.77 16C22.77 16.4142 22.4342 16.75 22.02 16.75H22C21.5858 16.75 21.25 16.4142 21.25 16ZM19.25 19.4286C19.25 19.0144 19.5858 18.6786 20 18.6786H21.5C22.1904 18.6786 22.75 19.2382 22.75 19.9286V27.25H24C24.4142 27.25 24.75 27.5858 24.75 28C24.75 28.4142 24.4142 28.75 24 28.75H22.5C21.8096 28.75 21.25 28.1904 21.25 27.5V20.1786H20C19.5858 20.1786 19.25 19.8428 19.25 19.4286Z" fill="#272932"/>
<path fill-rule="evenodd" clip-rule="evenodd" d="M19.6992 8.9513C21.4127 8.64915 23.1691 8.68747 24.8678 9.06408C26.5666 9.44069 28.1745 10.1482 29.5999 11.1462C31.0252 12.1443 32.24 13.4133 33.1749 14.8808C34.1098 16.3483 34.7466 17.9856 35.0487 19.6992C35.3509 21.4127 35.3125 23.1691 34.9359 24.8678C34.5593 26.5666 33.8518 28.1746 32.8538 29.5999C31.8557 31.0252 30.5867 32.24 29.1192 33.1749C27.6517 34.1098 26.0144 34.7466 24.3008 35.0487C22.5873 35.3509 20.8309 35.3125 19.1322 34.9359C17.4334 34.5593 15.8255 33.8518 14.4001 32.8538C12.9748 31.8557 11.76 30.5867 10.8251 29.1192C9.89016 27.6517 9.25345 26.0144 8.9513 24.3008C8.64915 22.5873 8.68747 20.8309 9.06408 19.1322C9.44068 17.4334 10.1482 15.8255 11.1462 14.4001C12.1443 12.9748 13.4133 11.76 14.8808 10.8251C16.3483 9.89015 17.9856 9.25345 19.6992 8.9513ZM25.1925 7.59963C23.3014 7.18039 21.3463 7.13773 19.4387 7.47409C17.5311 7.81044 15.7085 8.51923 14.0748 9.55998C12.4412 10.6007 11.0285 11.9531 9.91751 13.5398C8.80649 15.1264 8.01887 16.9164 7.59963 18.8075C7.18039 20.6986 7.13773 22.6537 7.47409 24.5613C7.81044 26.4689 8.51923 28.2915 9.55998 29.9252C10.6007 31.5588 11.9531 32.9715 13.5398 34.0825C15.1264 35.1935 16.9164 35.9811 18.8075 36.4004C20.6986 36.8196 22.6537 36.8623 24.5613 36.5259C26.4689 36.1896 28.2915 35.4808 29.9252 34.44C31.5588 33.3993 32.9715 32.0469 34.0825 30.4603C35.1935 28.8736 35.9811 27.0836 36.4004 25.1925C36.8196 23.3014 36.8623 21.3463 36.5259 19.4387C36.1896 17.5311 35.4808 15.7085 34.44 14.0748C33.3993 12.4412 32.0469 11.0285 30.4603 9.91751C28.8736 8.80649 27.0836 8.01888 25.1925 7.59963Z" fill="#272932"/>
</svg>
