<svg width="22" height="22" viewBox="0 0 22 22" fill="none" xmlns="http://www.w3.org/2000/svg">
<path fill-rule="evenodd" clip-rule="evenodd" d="M12.9266 2.30986C11.7854 2.05686 10.6055 2.03111 9.45433 2.23409C8.30318 2.43707 7.20328 2.8648 6.21742 3.49286C5.23157 4.12092 4.37908 4.937 3.70862 5.89452C3.03816 6.85204 2.56286 7.93224 2.30986 9.07344C2.05686 10.2147 2.03112 11.3945 2.2341 12.5457C2.43707 13.6968 2.8648 14.7967 3.49286 15.7826C4.12092 16.7684 4.937 17.6209 5.89452 18.2914C6.85204 18.9618 7.93224 19.4371 9.07345 19.6901C10.2147 19.9431 11.3945 19.9689 12.5457 19.7659C13.6968 19.5629 14.7967 19.1352 15.7826 18.5071C16.7684 17.8791 17.6209 17.063 18.2914 16.1055C18.9618 15.148 19.4371 14.0678 19.6901 12.9266C19.9431 11.7854 19.9689 10.6055 19.7659 9.45433C19.5629 8.30318 19.1352 7.20328 18.5071 6.21742C17.8791 5.23157 17.063 4.37908 16.1055 3.70862C15.148 3.03816 14.0678 2.56286 12.9266 2.30986ZM9.26352 1.15192C10.5568 0.923885 11.8823 0.952807 13.1644 1.23704C14.4465 1.52127 15.66 2.05525 16.7358 2.80848C17.8115 3.56171 18.7283 4.51945 19.4339 5.627C20.1395 6.73456 20.62 7.97025 20.8481 9.26352C21.0761 10.5568 21.0472 11.8823 20.763 13.1644C20.4787 14.4465 19.9448 15.66 19.1915 16.7358C18.4383 17.8115 17.4806 18.7283 16.373 19.4339C15.2654 20.1395 14.0298 20.62 12.7365 20.8481C11.4432 21.0761 10.1177 21.0472 8.83561 20.763C7.55352 20.4787 6.33996 19.9448 5.26424 19.1915C4.18851 18.4383 3.27168 17.4806 2.56609 16.373C1.8605 15.2654 1.37996 14.0298 1.15192 12.7365C0.923885 11.4432 0.952806 10.1177 1.23704 8.83561C1.52127 7.55352 2.05525 6.33996 2.80848 5.26424C3.56171 4.18851 4.51945 3.27168 5.627 2.56609C6.73456 1.86049 7.97025 1.37996 9.26352 1.15192ZM11.0001 6.40034C10.6966 6.40034 10.4506 6.64633 10.4506 6.94977C10.4506 7.25321 10.6966 7.4992 11.0001 7.4992H11.0136C11.317 7.4992 11.563 7.25321 11.563 6.94977C11.563 6.64633 11.317 6.40034 11.0136 6.40034H11.0001ZM9.64997 8.71476C9.34653 8.71476 9.10054 8.96075 9.10054 9.2642C9.10054 9.56764 9.34653 9.81363 9.64997 9.81363H10.4506V14.5008C10.4506 15.1077 10.9426 15.5997 11.5495 15.5997H12.3501C12.6536 15.5997 12.8996 15.3537 12.8996 15.0503C12.8996 14.7468 12.6536 14.5008 12.3501 14.5008H11.5495V9.81363C11.5495 9.20674 11.0575 8.71476 10.4506 8.71476H9.64997Z" fill="#41DB4E" stroke="#41DB4E" stroke-width="0.3"/>
</svg>
