<svg width="26" height="26" viewBox="0 0 26 26" fill="none" xmlns="http://www.w3.org/2000/svg">
<path fill-rule="evenodd" clip-rule="evenodd" d="M2.28143 12.3684H12.3684V9.35578C10.9474 9.29886 9.54688 9.0501 8.23415 8.61804C6.7935 8.14388 5.48388 7.45721 4.38391 6.59242C3.16928 8.22305 2.40662 10.2102 2.28143 12.3684ZM5.19703 5.62477C6.16403 6.37835 7.32848 6.99014 8.62905 7.4182C9.8115 7.80738 11.0782 8.03533 12.3684 8.09152V2.28143C9.54776 2.44504 7.01927 3.69752 5.19703 5.62477ZM13.6316 2.28143V8.09152C15.0721 8.02879 16.4798 7.75209 17.7715 7.27899C18.9137 6.86064 19.9382 6.29866 20.803 5.62477C18.9807 3.69752 16.4522 2.44504 13.6316 2.28143ZM21.6161 6.59242C20.6306 7.36716 19.4753 8.00016 18.2059 8.4651C16.7708 8.99073 15.2154 9.29234 13.6316 9.35578V12.3684H23.7186C23.5934 10.2102 22.8307 8.22305 21.6161 6.59242ZM23.7186 13.6316H13.6316V16.6442C15.2398 16.7086 16.8189 17.0186 18.2726 17.5595C19.5164 18.0223 20.6484 18.6468 21.6161 19.4076C22.8307 17.7769 23.5934 15.7898 23.7186 13.6316ZM20.803 20.3752C19.9542 19.7138 18.9508 19.1596 17.8321 18.7434C16.5237 18.2566 15.0945 17.9722 13.6316 17.9085V23.7186C16.4522 23.555 18.9807 22.3025 20.803 20.3752ZM12.3684 23.7186V17.9085C10.9779 17.969 9.61609 18.2291 8.35872 18.6741C7.16443 19.0968 6.09476 19.6756 5.19703 20.3752C7.01927 22.3025 9.54776 23.555 12.3684 23.7186ZM4.38391 19.4076C5.40646 18.6037 6.61172 17.9525 7.93724 17.4833C9.33362 16.9891 10.8385 16.7055 12.3684 16.6442V13.6316H2.28143C2.40662 15.7898 3.16928 17.777 4.38391 19.4076ZM1 13C1 6.37258 6.37258 1 13 1C19.6274 1 25 6.37258 25 13C25 19.6274 19.6274 25 13 25C6.37258 25 1 19.6274 1 13Z" fill="#272932" stroke="#272932" stroke-width="0.5"/>
</svg>
