<svg viewBox="0 0 44 44" fill="none" xmlns="http://www.w3.org/2000/svg">
<path fill-rule="evenodd" clip-rule="evenodd" d="M17.3753 7.25C17.7895 7.25 18.1253 7.58579 18.1253 8V10.6156H23.5304C23.5359 10.6156 23.5414 10.6156 23.547 10.6156H27.7566C28.1708 10.6156 28.5066 10.9514 28.5066 11.3656C28.5066 11.7798 28.1708 12.1156 27.7566 12.1156H24.1884C24.1301 12.4472 24.0394 12.8912 23.9008 13.4296C23.5849 14.6567 23.0197 16.3758 22.0197 18.3751C21.2349 19.9442 20.1835 21.6833 18.7776 23.4906C19.9948 24.983 21.2613 26.3027 22.4169 27.0755C22.7612 27.3058 22.8537 27.7715 22.6235 28.1159C22.3932 28.4602 21.9274 28.5527 21.5831 28.3224C20.3387 27.4903 19.0342 26.1515 17.8107 24.6767C15.7237 27.1215 12.9716 29.6486 9.34511 32.0163C8.99828 32.2428 8.53354 32.1452 8.30709 31.7983C8.08064 31.4515 8.17823 30.9868 8.52507 30.7603C12.1373 28.4018 14.8383 25.8894 16.857 23.4816C16.2669 22.715 15.7069 21.9387 15.195 21.2003C14.2846 19.887 13.5057 18.6624 12.9545 17.7663C12.6787 17.318 12.4595 16.9512 12.309 16.6959C12.2337 16.5683 12.1755 16.4685 12.1359 16.4002L12.0907 16.3219L12.079 16.3014L12.075 16.2945C12.0749 16.2943 12.0746 16.2938 12.7262 15.9223L12.075 16.2945C11.8699 15.9346 11.9949 15.4759 12.3547 15.2708C12.7146 15.0656 13.1726 15.1911 13.3777 15.5509C13.3777 15.5509 13.3777 15.5509 13.3777 15.5509L13.3808 15.5563L13.3913 15.5746L13.4338 15.6482C13.4715 15.7133 13.5277 15.8097 13.6009 15.9338C13.7474 16.1821 13.9617 16.5408 14.2321 16.9804C14.7732 17.86 15.5369 19.0607 16.4277 20.3457C16.8696 20.9832 17.338 21.6341 17.8218 22.2728C19.0514 20.6526 19.9789 19.102 20.6781 17.7041C21.6254 15.8102 22.1555 14.1923 22.4481 13.0557C22.5422 12.6901 22.6117 12.3745 22.6626 12.1156H7C6.58579 12.1156 6.25 11.7798 6.25 11.3656C6.25 10.9514 6.58579 10.6156 7 10.6156H16.6253V8C16.6253 7.58579 16.961 7.25 17.3753 7.25ZM23.5214 11.364C22.7924 11.3002 22.7924 11.2998 22.7925 11.2995L23.5214 11.364ZM29.9746 21.4771L26.3334 29.9847H33.6123L29.9746 21.4771ZM35.4034 30.3582L31.1602 20.4346L31.1578 20.4291C31.0573 20.1993 30.8922 20.0034 30.6821 19.8656C30.472 19.7278 30.2261 19.6543 29.9746 19.6543C29.7231 19.6543 29.4773 19.7278 29.2672 19.8656C29.0571 20.0034 28.8919 20.1993 28.7915 20.4291L24.528 30.391C24.5115 30.4228 24.4973 30.456 24.4855 30.4903L22.2537 35.7049C22.0907 36.0857 22.2673 36.5265 22.6481 36.6895C23.0289 36.8525 23.4697 36.6759 23.6327 36.2951L25.6915 31.4847H34.2537L36.3104 36.2949C36.4732 36.6757 36.914 36.8525 37.2949 36.6896C37.6757 36.5268 37.8525 36.086 37.6896 35.7051L35.4752 30.5263C35.4581 30.4669 35.4338 30.4106 35.4034 30.3582Z" fill="#272932"/>
</svg>
