<svg width="16" height="16" viewBox="0 0 16 16" fill="none" xmlns="http://www.w3.org/2000/svg">
<path d="M13.6995 6.11902C13.5869 5.99177 13.4485 5.88987 13.2934 5.82006C13.1383 5.75025 12.9701 5.71414 12.8 5.71412H9.63637V4.73453C9.63637 4.18606 9.418 3.66005 9.02928 3.27222C8.64057 2.88438 8.11337 2.6665 7.56364 2.6665C7.50281 2.66649 7.44318 2.68338 7.39144 2.7153C7.33971 2.74721 7.2979 2.79288 7.27073 2.84718L5.17946 7.02025H2.76364C2.56111 7.02025 2.36687 7.10052 2.22366 7.2434C2.08045 7.38629 2 7.58008 2 7.78215V12.5713C2 12.7733 2.08045 12.9671 2.22366 13.11C2.36687 13.2529 2.56111 13.3332 2.76364 13.3332H12.1455C12.4379 13.3332 12.7203 13.2266 12.9396 13.0335C13.1589 12.8404 13.2999 12.574 13.3362 12.2845L13.9907 7.05997C14.0118 6.89149 13.9968 6.72046 13.9466 6.55823C13.8963 6.396 13.8121 6.24629 13.6995 6.11902ZM2.65455 12.5713V7.78215C2.65455 7.75328 2.66604 7.7256 2.6865 7.70519C2.70696 7.68477 2.7347 7.67331 2.76364 7.67331H5.05455V12.6801H2.76364C2.7347 12.6801 2.70696 12.6686 2.6865 12.6482C2.66604 12.6278 2.65455 12.6001 2.65455 12.5713ZM13.3411 6.97888L12.6866 12.2034C12.6701 12.335 12.606 12.456 12.5064 12.5438C12.4067 12.6316 12.2784 12.6801 12.1455 12.6801H5.7091V7.42406L7.75892 3.33317C8.09793 3.38019 8.40847 3.54796 8.63322 3.80551C8.85798 4.06307 8.9818 4.39303 8.98183 4.73453V6.04065C8.98183 6.12725 9.01631 6.21031 9.07768 6.27155C9.13906 6.33278 9.2223 6.36718 9.3091 6.36718H12.8C12.8773 6.36721 12.9538 6.38363 13.0243 6.41537C13.0947 6.44711 13.1577 6.49344 13.2088 6.55129C13.26 6.60913 13.2982 6.67717 13.3211 6.75089C13.3439 6.82461 13.3507 6.90233 13.3411 6.97888Z" fill="#272932"/>
</svg>
