<svg width="25" height="24" viewBox="0 0 25 24" fill="none" xmlns="http://www.w3.org/2000/svg">
<g clip-path="url(#clip0_6676_65247)">
<path fill-rule="evenodd" clip-rule="evenodd" d="M19.3014 6.35424C17.6731 4.3086 15.1789 3 12.3831 3C7.47711 3 3.5 7.02944 3.5 12C3.5 16.9706 7.47711 21 12.3831 21C17.2891 21 21.2662 16.9706 21.2662 12C21.2662 10.3809 20.8443 8.86172 20.1057 7.5491L21.2946 6.34452C21.5685 6.06705 21.5685 5.61717 21.2946 5.33969C21.0207 5.06221 20.5767 5.06221 20.3028 5.33969L19.3014 6.35424ZM12.3831 19.5789C16.5145 19.5789 19.8636 16.1857 19.8636 12C19.8636 10.7769 19.5777 9.62148 19.0698 8.5986L12.879 14.8708C12.6051 15.1483 12.1611 15.1483 11.8872 14.8708L7.67943 10.6077C7.40556 10.3302 7.40556 9.88032 7.67943 9.60285C7.95331 9.32537 8.39734 9.32537 8.67122 9.60285L12.3831 13.3636L18.3029 7.36595C16.9347 5.57449 14.7918 4.42105 12.3831 4.42105C8.25174 4.42105 4.9026 7.81426 4.9026 12C4.9026 16.1857 8.25174 19.5789 12.3831 19.5789Z" fill="#6FE96E"/>
</g>
<defs>
<clipPath id="clip0_6676_65247">
<rect fill="white" transform="translate(0.5)"/>
</clipPath>
</defs>
</svg>
