<svg viewBox="0 0 44 44" fill="none" xmlns="http://www.w3.org/2000/svg">
<path fill-rule="evenodd" clip-rule="evenodd" d="M7 21.835C7 13.6419 13.6419 7 21.835 7C30.0281 7 36.67 13.6419 36.67 21.835C36.67 30.0281 30.0281 36.67 21.835 36.67C13.6419 36.67 7 30.0281 7 21.835ZM21.835 8.56158C14.5043 8.56158 8.56158 14.5043 8.56158 21.835C8.56158 29.1657 14.5043 35.1084 21.835 35.1084C29.1657 35.1084 35.1084 29.1657 35.1084 21.835C35.1084 14.5043 29.1657 8.56158 21.835 8.56158ZM13.2463 21.835C13.2463 20.5413 14.295 19.4926 15.5887 19.4926C16.8823 19.4926 17.9311 20.5413 17.9311 21.835C17.9311 23.1287 16.8823 24.1774 15.5887 24.1774C14.295 24.1774 13.2463 23.1287 13.2463 21.835ZM15.5887 21.0542C15.1575 21.0542 14.8079 21.4038 14.8079 21.835C14.8079 22.2662 15.1575 22.6158 15.5887 22.6158C16.0199 22.6158 16.3695 22.2662 16.3695 21.835C16.3695 21.4038 16.0199 21.0542 15.5887 21.0542ZM19.4926 21.835C19.4926 20.5413 20.5413 19.4926 21.835 19.4926C23.1287 19.4926 24.1774 20.5413 24.1774 21.835C24.1774 23.1287 23.1287 24.1774 21.835 24.1774C20.5413 24.1774 19.4926 23.1287 19.4926 21.835ZM21.835 21.0542C21.4038 21.0542 21.0542 21.4038 21.0542 21.835C21.0542 22.2662 21.4038 22.6158 21.835 22.6158C22.2662 22.6158 22.6158 22.2662 22.6158 21.835C22.6158 21.4038 22.2662 21.0542 21.835 21.0542ZM25.7389 21.835C25.7389 20.5413 26.7877 19.4926 28.0813 19.4926C29.375 19.4926 30.4237 20.5413 30.4237 21.835C30.4237 23.1287 29.375 24.1774 28.0813 24.1774C26.7877 24.1774 25.7389 23.1287 25.7389 21.835ZM28.0813 21.0542C27.6501 21.0542 27.3005 21.4038 27.3005 21.835C27.3005 22.2662 27.6501 22.6158 28.0813 22.6158C28.5125 22.6158 28.8621 22.2662 28.8621 21.835C28.8621 21.4038 28.5125 21.0542 28.0813 21.0542Z" fill="#272932"/>
</svg>
