<svg width="24" height="24" viewBox="0 0 24 24" fill="none" xmlns="http://www.w3.org/2000/svg">
<path fill-rule="evenodd" clip-rule="evenodd" d="M2 12C2 6.47715 6.47715 2 12 2C17.5228 2 22 6.47715 22 12C22 17.5228 17.5228 22 12 22C6.47715 22 2 17.5228 2 12ZM12 3.05263C7.05851 3.05263 3.05263 7.05851 3.05263 12C3.05263 16.9415 7.05851 20.9474 12 20.9474C16.9415 20.9474 20.9474 16.9415 20.9474 12C20.9474 7.05851 16.9415 3.05263 12 3.05263ZM6.21053 12C6.21053 11.128 6.91745 10.4211 7.78947 10.4211C8.6615 10.4211 9.36842 11.128 9.36842 12C9.36842 12.872 8.6615 13.5789 7.78947 13.5789C6.91745 13.5789 6.21053 12.872 6.21053 12ZM7.78947 11.4737C7.4988 11.4737 7.26316 11.7093 7.26316 12C7.26316 12.2907 7.4988 12.5263 7.78947 12.5263C8.08015 12.5263 8.31579 12.2907 8.31579 12C8.31579 11.7093 8.08015 11.4737 7.78947 11.4737ZM10.4211 12C10.4211 11.128 11.128 10.4211 12 10.4211C12.872 10.4211 13.5789 11.128 13.5789 12C13.5789 12.872 12.872 13.5789 12 13.5789C11.128 13.5789 10.4211 12.872 10.4211 12ZM12 11.4737C11.7093 11.4737 11.4737 11.7093 11.4737 12C11.4737 12.2907 11.7093 12.5263 12 12.5263C12.2907 12.5263 12.5263 12.2907 12.5263 12C12.5263 11.7093 12.2907 11.4737 12 11.4737ZM14.6316 12C14.6316 11.128 15.3385 10.4211 16.2105 10.4211C17.0826 10.4211 17.7895 11.128 17.7895 12C17.7895 12.872 17.0826 13.5789 16.2105 13.5789C15.3385 13.5789 14.6316 12.872 14.6316 12ZM16.2105 11.4737C15.9199 11.4737 15.6842 11.7093 15.6842 12C15.6842 12.2907 15.9199 12.5263 16.2105 12.5263C16.5012 12.5263 16.7368 12.2907 16.7368 12C16.7368 11.7093 16.5012 11.4737 16.2105 11.4737Z" fill="#272932"/>
</svg>
