<svg viewBox="0 0 24 24" fill="none" xmlns="http://www.w3.org/2000/svg">
<path fill-rule="evenodd" clip-rule="evenodd" d="M3.05263 12C3.05263 7.05851 7.05851 3.05263 12 3.05263C16.9415 3.05263 20.9474 7.05851 20.9474 12C20.9474 16.9415 16.9415 20.9474 12 20.9474C7.05851 20.9474 3.05263 16.9415 3.05263 12ZM6.21053 12C6.21053 11.128 6.91745 10.4211 7.78947 10.4211C8.6615 10.4211 9.36842 11.128 9.36842 12C9.36842 12.872 8.6615 13.5789 7.78947 13.5789C6.91745 13.5789 6.21053 12.872 6.21053 12ZM10.4211 12C10.4211 11.128 11.128 10.4211 12 10.4211C12.872 10.4211 13.5789 11.128 13.5789 12C13.5789 12.872 12.872 13.5789 12 13.5789C11.128 13.5789 10.4211 12.872 10.4211 12ZM14.6316 12C14.6316 11.128 15.3385 10.4211 16.2105 10.4211C17.0826 10.4211 17.7895 11.128 17.7895 12C17.7895 12.872 17.0826 13.5789 16.2105 13.5789C15.3385 13.5789 14.6316 12.872 14.6316 12Z" fill="#6C8DFF"/>
<path fill-rule="evenodd" clip-rule="evenodd" d="M12 2C6.47715 2 2 6.47715 2 12C2 17.5228 6.47715 22 12 22C17.5228 22 22 17.5228 22 12C22 6.47715 17.5228 2 12 2ZM3.05263 12C3.05263 7.05851 7.05851 3.05263 12 3.05263C16.9415 3.05263 20.9474 7.05851 20.9474 12C20.9474 16.9415 16.9415 20.9474 12 20.9474C7.05851 20.9474 3.05263 16.9415 3.05263 12Z" fill="#6C8DFF"/>
</svg>
