<svg width="24" height="24" viewBox="0 0 24 24" fill="none" xmlns="http://www.w3.org/2000/svg">
<path fill-rule="evenodd" clip-rule="evenodd" d="M13.1825 3.68177C13.7488 3.11551 14.6669 3.11552 15.2331 3.68178L20.3189 8.76756C20.8852 9.33382 20.8852 10.2519 20.3189 10.8182L18.589 12.5481L16.336 17.9551C16.144 18.416 15.7284 18.7456 15.236 18.8277L3.7818 20.7367C3.63896 20.7605 3.49338 20.7142 3.39065 20.6121C3.28792 20.51 3.24059 20.3648 3.26347 20.2218L5.16765 8.32067C5.25304 7.78698 5.62816 7.34508 6.1409 7.17416L11.4647 5.39955L13.1825 3.68177ZM11.5863 6.30772L6.42551 8.02798C6.23102 8.09281 6.08873 8.26042 6.05634 8.46286L4.37156 18.9927L9.14521 14.2191C8.29719 13.2962 8.42716 11.7725 9.53513 11.0338C10.2453 10.5604 11.1704 10.5604 11.8805 11.0338C13.1357 11.8706 13.1357 13.7151 11.8805 14.5519C11.2848 14.9491 10.5377 15.013 9.89324 14.7438L5.01894 19.6181L15.088 17.94C15.2748 17.9088 15.4324 17.7838 15.5053 17.609L17.6765 12.398L11.5863 6.30772ZM18.2078 11.6565L19.6825 10.1818C19.8973 9.96699 19.8973 9.61875 19.6825 9.40396L14.5967 4.31817C14.3819 4.10338 14.0337 4.10338 13.8189 4.31817L12.3442 5.79287L18.2078 11.6565ZM11.3813 11.7827C10.9735 11.5108 10.4422 11.5108 10.0344 11.7827C9.3135 12.2632 9.3135 13.3225 10.0344 13.8031C10.4422 14.0749 10.9735 14.0749 11.3813 13.8031C12.1021 13.3225 12.1021 12.2632 11.3813 11.7827Z" fill="#272932"/>
</svg>
