<svg viewBox="0 0 24 24" fill="none" xmlns="http://www.w3.org/2000/svg">
<path fill-rule="evenodd" clip-rule="evenodd" d="M4.19118 12C4.19118 11.7451 4.39781 11.5385 4.65271 11.5385L12.0237 11.5385L12.0237 4.16743C12.0237 3.91253 12.2304 3.70589 12.4853 3.70589C12.7402 3.70589 12.9468 3.91253 12.9468 4.16743L12.9468 11.5385L20.3178 11.5385C20.5727 11.5385 20.7794 11.7451 20.7794 12C20.7794 12.2549 20.5727 12.4615 20.3178 12.4615L12.9468 12.4615L12.9468 19.8326C12.9468 20.0875 12.7402 20.2941 12.4853 20.2941C12.2304 20.2941 12.0237 20.0875 12.0237 19.8326L12.0237 12.4615L4.65271 12.4615C4.39781 12.4615 4.19118 12.2549 4.19118 12Z" fill="#272932"/>
</svg>
