<svg viewBox="0 0 24 24" fill="none" xmlns="http://www.w3.org/2000/svg">
<path fill-rule="evenodd" clip-rule="evenodd" d="M12 6.04752C10.9377 6.04752 10.0257 6.96898 10.0257 8.17012C10.0257 9.37125 10.9377 10.2927 12 10.2927C13.0624 10.2927 13.9744 9.37125 13.9744 8.17012C13.9744 6.96898 13.0624 6.04752 12 6.04752ZM8.97817 8.17012C8.97817 6.44817 10.3031 5 12 5C13.697 5 15.0219 6.44817 15.0219 8.17012C15.0219 9.89207 13.697 11.3402 12 11.3402C10.3031 11.3402 8.97817 9.89207 8.97817 8.17012ZM6.41826 6.89807C6.11108 6.7102 5.75041 6.66101 5.41284 6.75683C5.07423 6.85295 4.77624 7.09044 4.59205 7.42838C4.40744 7.76712 4.35613 8.17336 4.45276 8.55538C4.54929 8.93701 4.7827 9.25347 5.09122 9.44216C5.3984 9.63004 5.75907 9.67922 6.09664 9.5834C6.43525 9.48729 6.73325 9.2498 6.91743 8.91186C7.10205 8.57311 7.15335 8.16688 7.05672 7.78486C6.9602 7.40323 6.72678 7.08677 6.41826 6.89807ZM5.1268 5.74912C5.74918 5.57246 6.41132 5.66592 6.96481 6.00444C7.51696 6.34214 7.91157 6.8927 8.07226 7.52799C8.23285 8.16288 8.1495 8.84015 7.83721 9.41315C7.52448 9.98695 7.00403 10.4147 6.38268 10.5911C5.7603 10.7678 5.09816 10.6743 4.54467 10.3358C3.99252 9.99809 3.59791 9.44754 3.43722 8.81225C3.27663 8.17736 3.35998 7.50009 3.67227 6.92709C3.985 6.35329 4.50546 5.92549 5.1268 5.74912ZM18.9089 6.89807C18.6017 6.7102 18.241 6.66101 17.9035 6.75683C17.5648 6.85295 17.2668 7.09044 17.0827 7.42838C16.898 7.76712 16.8467 8.17336 16.9434 8.55538C17.0399 8.93701 17.2733 9.25347 17.5818 9.44216C17.889 9.63004 18.2497 9.67922 18.5873 9.5834C18.9259 9.48729 19.2239 9.2498 19.408 8.91186C19.5927 8.57311 19.644 8.16688 19.5473 7.78486C19.4508 7.40323 19.2174 7.08677 18.9089 6.89807ZM17.6174 5.74912C18.2398 5.57246 18.9019 5.66592 19.4554 6.00444C20.0076 6.34214 20.4022 6.8927 20.5629 7.52799C20.7235 8.16288 20.6401 8.84015 20.3278 9.41315C20.0151 9.98695 19.4946 10.4147 18.8733 10.5911C18.2509 10.7678 17.5888 10.6743 17.0353 10.3358C16.4831 9.99809 16.0885 9.44754 15.9278 8.81225C15.7672 8.17736 15.8506 7.50009 16.1629 6.92709C16.4756 6.35329 16.9961 5.92549 17.6174 5.74912ZM3.21721 14.5619C2.56339 15.2691 2.23034 16.1667 2.06384 16.9025C1.9854 17.2492 2.23985 17.5702 2.63207 17.5702H7.33168C7.23101 17.3039 7.20041 17.0017 7.26392 16.6816C7.34467 16.2747 7.46865 15.8025 7.6608 15.3212C7.86747 14.8034 8.1535 14.2736 8.55042 13.8031C7.99381 13.513 7.28618 13.325 6.37925 13.325C4.83244 13.325 3.85533 13.8717 3.21721 14.5619ZM9.35772 13.0592C8.58955 12.5776 7.6114 12.2775 6.37925 12.2775C4.54878 12.2775 3.29007 12.94 2.44804 13.8508C1.62171 14.7446 1.23026 15.84 1.04215 16.6714C0.799008 17.746 1.64461 18.6177 2.63207 18.6177H21.3679C22.3554 18.6177 23.201 17.746 22.9579 16.6714C22.7698 15.84 22.3783 14.7446 21.552 13.8508C20.71 12.94 19.4513 12.2775 17.6208 12.2775C16.3886 12.2775 15.4105 12.5776 14.6423 13.0592C13.9669 12.583 13.0998 12.2775 12 12.2775C10.9003 12.2775 10.0332 12.583 9.35772 13.0592ZM8.35391 16.5998C8.55912 15.7432 8.95903 14.7621 9.71959 14.1043L9.73512 14.0908C10.2681 13.6358 10.9927 13.325 12 13.325C13.0043 13.325 13.7275 13.6339 14.26 14.0867L14.2804 14.1043C14.7383 14.5003 15.0654 15.0135 15.2981 15.5462C15.4966 16.0006 15.6257 16.4678 15.7086 16.8855C15.7806 17.2484 15.5119 17.5702 15.1227 17.5702H8.87732C8.48811 17.5702 8.2194 17.2484 8.29141 16.8855C8.30986 16.7925 8.33061 16.697 8.35391 16.5998ZM16.6683 17.5702H21.3679C21.7601 17.5702 22.0146 17.2492 21.9362 16.9025C21.7697 16.1667 21.4366 15.2691 20.7828 14.5619C20.1447 13.8717 19.1676 13.325 17.6208 13.325C16.7138 13.325 16.0062 13.513 15.4496 13.8031C15.749 14.1581 15.9854 14.5468 16.1721 14.9386C16.2232 15.0457 16.2705 15.153 16.3144 15.26C16.4207 15.5187 16.507 15.7754 16.5772 16.0214C16.6433 16.2533 16.6952 16.4758 16.7361 16.6816C16.7996 17.0017 16.769 17.3039 16.6683 17.5702Z" fill="#272932"/>
</svg>
