<svg width="16" height="16" viewBox="0 0 16 16" fill="none" xmlns="http://www.w3.org/2000/svg">
<path fill-rule="evenodd" clip-rule="evenodd" d="M7.99944 2.33341C6.44839 2.33341 5.22694 3.51005 5.22694 4.91853C5.22694 6.32702 6.44839 7.50365 7.99944 7.50365C9.55049 7.50365 10.7719 6.32702 10.7719 4.91853C10.7719 3.51005 9.55049 2.33341 7.99944 2.33341ZM4.56028 4.91853C4.56028 3.10338 6.11989 1.66675 7.99944 1.66675C9.87899 1.66675 11.4386 3.10338 11.4386 4.91853C11.4386 6.73368 9.87899 8.17031 7.99944 8.17031C6.11989 8.17031 4.56028 6.73368 4.56028 4.91853ZM4.05946 11.3669C5.19812 10.7511 6.58281 10.4221 7.99944 10.4221C9.41607 10.4221 10.8008 10.7511 11.9394 11.3669C13.0772 11.9821 13.9224 12.8595 14.311 13.8816C14.3764 14.0537 14.29 14.2462 14.1179 14.3117C13.9458 14.3771 13.7533 14.2906 13.6879 14.1185C13.3687 13.279 12.6542 12.5113 11.6223 11.9533C10.5913 11.3957 9.31761 11.0888 7.99944 11.0888C6.68127 11.0888 5.40758 11.3957 4.37658 11.9533C3.34468 12.5113 2.63021 13.279 2.31101 14.1185C2.24559 14.2906 2.05305 14.3771 1.88098 14.3117C1.7089 14.2462 1.62244 14.0537 1.68787 13.8816C2.07649 12.8595 2.92171 11.9821 4.05946 11.3669Z" fill="#272932"/>
</svg>
