<svg width="32" height="32" viewBox="0 0 32 32" fill="none" xmlns="http://www.w3.org/2000/svg">
<g clip-path="url(#clip0_13501_61986)">
<path d="M0.00680365 22.2033C0.00680365 26.4105 3.41715 29.8208 7.62422 29.8208C11.8314 29.8208 15.2417 26.4105 15.2417 22.2033C15.2417 17.9962 11.8314 14.5859 7.62422 14.5859C6.7596 14.5859 5.93196 14.7367 5.15716 15.0023C6.8714 5.17062 14.5382 -1.16968 7.4311 4.04851C-0.449598 9.83491 -0.00163656 21.9705 0.00718157 22.193C0.00718157 22.1964 0.00680365 22.1995 0.00680365 22.2033Z" fill="#6C8DFF"/>
<path d="M16.7651 22.2033C16.7651 26.4105 20.1754 29.8208 24.3826 29.8208C28.5897 29.8208 32.0001 26.4105 32.0001 22.2033C32.0001 17.9962 28.5897 14.5859 24.3825 14.5859C23.5178 14.5859 22.6903 14.7367 21.9155 15.0023C23.6297 5.17062 31.2965 -1.16968 24.1894 4.04851C16.3087 9.83491 16.7566 21.9705 16.7655 22.193C16.7655 22.1964 16.7651 22.1995 16.7651 22.2033Z" fill="#6C8DFF"/>
</g>
<defs>
<clipPath id="clip0_13501_61986">
<rect width="32" height="32" fill="white"/>
</clipPath>
</defs>
</svg>
