<svg viewBox="0 0 24 24" fill="none" xmlns="http://www.w3.org/2000/svg">
<path fill-rule="evenodd" clip-rule="evenodd" d="M10.6383 3.54963C10.9384 3.00944 11.3447 2.5 12.0007 2.5C12.6567 2.5 13.063 3.00944 13.3631 3.54963C13.6732 4.10795 13.9908 4.92582 14.3879 5.94819L14.4418 6.08696C14.6773 6.6932 14.8411 7.11333 15.002 7.42954C15.1581 7.73618 15.2925 7.90531 15.4483 8.02487C15.603 8.14368 15.7956 8.22649 16.1207 8.29169C16.4579 8.35932 16.8924 8.40015 17.5231 8.45848L17.792 8.48335C18.7693 8.57372 19.5602 8.64685 20.1309 8.78594C20.7017 8.92503 21.2454 9.17526 21.4394 9.77092C21.6313 10.3603 21.3497 10.8892 20.9791 11.3528C20.607 11.8183 20.0206 12.3692 19.2936 13.0523L18.7587 13.5549C17.9595 14.3057 17.6884 14.5768 17.5612 14.9131C17.5355 14.9808 17.5142 15.0503 17.4973 15.121C17.4129 15.4745 17.4843 15.8619 17.7181 16.9504L17.7945 17.3055C17.9941 18.235 18.1525 18.9722 18.2132 19.5274C18.2708 20.0543 18.2681 20.6031 17.9337 20.9876C17.7369 21.2139 17.4792 21.3789 17.1904 21.4602C16.6912 21.6009 16.2006 21.3466 15.7712 21.0575C15.3167 20.7514 14.7489 20.2737 14.0355 19.6733L14.01 19.6518C13.5199 19.2394 13.1789 18.9531 12.8925 18.7553C12.6132 18.5624 12.4241 18.4816 12.2484 18.4527C12.0843 18.4256 11.9171 18.4256 11.753 18.4527C11.5773 18.4816 11.3882 18.5624 11.1089 18.7553C10.8225 18.9531 10.4815 19.2394 9.99145 19.6518L9.9659 19.6733C9.25245 20.2737 8.68473 20.7514 8.23018 21.0575C7.80081 21.3466 7.31021 21.6009 6.81099 21.4602C6.5222 21.3789 6.26454 21.2139 6.0677 20.9876C5.73334 20.6031 5.73062 20.0543 5.78821 19.5274C5.84888 18.9722 6.00726 18.235 6.20696 17.3055L6.28326 16.9504C6.5171 15.8619 6.58846 15.4745 6.5041 15.121C6.48722 15.0503 6.46588 14.9808 6.44025 14.9131C6.31296 14.5768 6.04191 14.3057 5.24274 13.5549L4.70784 13.0523C3.98082 12.3693 3.39443 11.8183 3.02226 11.3528C2.65166 10.8892 2.37009 10.3603 2.56203 9.77092C2.75601 9.17526 3.29975 8.92503 3.87048 8.78594C4.44117 8.64685 5.23213 8.57372 6.20938 8.48335L6.4783 8.45848C7.10903 8.40015 7.54345 8.35932 7.8807 8.29169C8.20584 8.22649 8.39841 8.14368 8.55314 8.02487C8.70886 7.90531 8.84329 7.73618 8.99937 7.42954C9.16031 7.11333 9.32413 6.6932 9.5596 6.08696L9.61349 5.9482C10.0106 4.92583 10.3282 4.10795 10.6383 3.54963Z" fill="#FF384F"/>
</svg>
