<svg viewBox="0 0 24 16" fill="none" xmlns="http://www.w3.org/2000/svg">
<path d="M0.674178 15.7312C0.30184 15.7312 0 15.4293 0 15.057V1.33333C0 0.596953 0.596954 0 1.33333 0H4.76611C5.81403 0 6.6889 0.202273 7.39072 0.606818C8.09734 1.00624 8.62851 1.56185 8.98423 2.27364C9.34475 2.98032 9.52501 3.79197 9.52501 4.70859C9.52501 5.62522 9.34475 6.43431 8.98423 7.13586C8.62851 7.83741 8.09975 8.38534 7.39793 8.77965C6.69611 9.17395 5.82605 9.3711 4.78774 9.3711H1.34836L1.33333 8L4.75169 8.05761C5.52081 8.05761 6.16013 7.92191 6.66967 7.6505C7.18402 7.3791 7.56617 6.99248 7.81613 6.49064C8.0709 5.9888 8.19829 5.39478 8.19829 4.70859C8.19829 4.0224 8.0709 3.42327 7.81613 2.91119C7.56136 2.39398 7.17681 1.99456 6.66246 1.71291C6.15292 1.43127 5.50879 1.29045 4.73006 1.29045H1.34836V15.057C1.34836 15.4293 1.04652 15.7312 0.674178 15.7312ZM6.66246 9.10092L9.62909 14.7233C9.86496 15.184 9.53041 15.7312 9.01287 15.7312C8.75203 15.7312 8.51333 15.5845 8.39539 15.3519L5.33333 9.33333L6.66246 9.10092Z" fill="currentColor"/>
<path d="M22.6516 0.674177C22.6516 0.301839 22.9535 0 23.3258 0C23.6982 0 24 0.30184 24 0.674178V10.4157C24 11.486 23.7645 12.4436 23.2934 13.2885C22.8223 14.1283 22.1661 14.7915 21.3249 15.278C20.4885 15.7593 19.5151 16 18.4047 16C17.2991 16 16.3257 15.7568 15.4845 15.2703C14.6432 14.7838 13.9871 14.1207 13.516 13.2808C13.0449 12.441 12.8094 11.486 12.8094 10.4157V0.674178C12.8094 0.30184 13.1112 0 13.4836 0C13.8559 0 14.1577 0.30184 14.1577 0.674178V10.3159C14.1577 11.1506 14.3332 11.8957 14.6841 12.5511C15.035 13.2015 15.5277 13.7136 16.1622 14.0874C16.8016 14.4612 17.549 14.6481 18.4047 14.6481C19.2603 14.6481 20.0078 14.4612 20.6471 14.0874C21.2865 13.7136 21.7792 13.2015 22.1253 12.5511C22.4762 11.8957 22.6516 11.1506 22.6516 10.3159V0.674177Z" fill="currentColor"/>
</svg>
