<svg viewBox="0 0 44 44" fill="none" xmlns="http://www.w3.org/2000/svg">
<path fill-rule="evenodd" clip-rule="evenodd" d="M20.8711 3.6665H23.1313C23.4888 3.66649 23.7991 3.66648 24.0573 3.68373C24.3308 3.70199 24.6035 3.74216 24.8762 3.84996C25.4655 4.08298 25.9504 4.52178 26.2409 5.08501C26.3753 5.34559 26.4424 5.61302 26.4878 5.88326C26.5307 6.13854 26.5615 6.44725 26.5971 6.80302L26.5998 6.82977C26.6729 7.56105 26.7232 8.0579 26.789 8.42358C26.8563 8.7976 26.9204 8.9043 26.9401 8.93021C27.1304 9.17959 27.4398 9.30775 27.7506 9.26593C27.7829 9.26158 27.9036 9.23141 28.2157 9.01453C28.5208 8.80249 28.9077 8.48675 29.4765 8.02137L29.4973 8.00436C29.774 7.77794 30.0141 7.58148 30.2249 7.43128C30.4481 7.27227 30.6847 7.13063 30.9639 7.04141C31.5676 6.84855 32.2208 6.88112 32.8023 7.13309C33.0713 7.24967 33.2926 7.41414 33.4988 7.59456C33.6937 7.765 33.913 7.98438 34.1658 8.23722L35.764 9.83532C36.0167 10.0881 36.2361 10.3074 36.4065 10.5023C36.5869 10.7085 36.7514 10.9298 36.868 11.1988C37.12 11.7803 37.1525 12.4334 36.9597 13.0371C36.8705 13.3164 36.7288 13.553 36.5698 13.7761C36.4196 13.9869 36.2231 14.227 35.9967 14.5037L35.9797 14.5246C35.5143 15.0934 35.1986 15.4803 34.9865 15.7854C34.7696 16.0975 34.7394 16.2182 34.7351 16.2505C34.6933 16.5614 34.8214 16.8708 35.0708 17.061C35.0967 17.0808 35.2034 17.1448 35.5775 17.2121C35.9432 17.2779 36.44 17.3282 37.1713 17.4014L37.1981 17.4041C37.5539 17.4396 37.8626 17.4705 38.1179 17.5133C38.3881 17.5587 38.6556 17.6258 38.9162 17.7602C39.4794 18.0507 39.9181 18.5356 40.1512 19.1249C40.259 19.3976 40.2991 19.6704 40.3174 19.9438C40.3347 20.2021 40.3346 20.5123 40.3346 20.8698V23.1301C40.3346 23.4875 40.3347 23.7977 40.3174 24.0558C40.2992 24.3292 40.259 24.6019 40.1513 24.8745C39.9182 25.464 39.4793 25.949 38.9159 26.2395C38.6554 26.3739 38.388 26.441 38.1178 26.4863C37.8626 26.5292 37.5539 26.5601 37.1982 26.5956L37.1715 26.5983C36.4404 26.6714 35.9437 26.7217 35.5781 26.7875C35.2042 26.8548 35.0975 26.9188 35.0716 26.9385C34.8221 27.1288 34.6939 27.4383 34.7358 27.7493C34.7401 27.7815 34.7703 27.9022 34.9871 28.2142C35.1991 28.5192 35.5147 28.9059 35.98 29.4745L35.997 29.4954C36.2233 29.772 36.4197 30.012 36.5699 30.2227C36.7288 30.4458 36.8704 30.6823 36.9596 30.9615C37.1527 31.5653 37.1201 32.2187 36.8679 32.8004C36.7514 33.0693 36.5869 33.2905 36.4066 33.4967C36.2362 33.6914 36.017 33.9107 35.7643 34.1633L34.166 35.7616C33.9131 36.0145 33.6938 36.2339 33.4989 36.4043C33.2927 36.5848 33.0714 36.7492 32.8024 36.8658C32.2209 37.1178 31.5677 37.1504 30.964 36.9575C30.6847 36.8683 30.4482 36.7266 30.225 36.5676C30.0142 36.4174 29.7741 36.221 29.4974 35.9946L29.4766 35.9775C28.9078 35.5122 28.5209 35.1964 28.2158 34.9844C27.9037 34.7675 27.783 34.7373 27.7507 34.733C27.4398 34.6912 27.1304 34.8193 26.9402 35.0687C26.9204 35.0946 26.8564 35.2013 26.7891 35.5754C26.7233 35.9411 26.6729 36.4381 26.5998 37.1695L26.5971 37.1961C26.5616 37.5521 26.5307 37.861 26.4878 38.1164C26.4424 38.3867 26.3752 38.6543 26.2408 38.9149C25.9503 39.478 25.4656 39.9166 24.8765 40.1496C24.6038 40.2575 24.3309 40.2977 24.0574 40.3159C23.7991 40.3332 23.4887 40.3332 23.1311 40.3332H20.8713C20.5137 40.3332 20.2035 40.3332 19.9453 40.3159C19.6718 40.2977 19.399 40.2575 19.1264 40.1497C18.5371 39.9167 18.0522 39.4779 17.7617 38.9147C17.6273 38.6541 17.5602 38.3867 17.5148 38.1164C17.4719 37.8611 17.4411 37.5524 17.4055 37.1967L17.4028 37.1699C17.3297 36.4386 17.2794 35.9417 17.2136 35.576C17.1463 35.202 17.0822 35.0953 17.0625 35.0694C16.8722 34.82 16.5628 34.6918 16.252 34.7337C16.2197 34.738 16.099 34.7682 15.7869 34.9851C15.4818 35.1971 15.0948 35.5129 14.526 35.9783L14.5052 35.9953C14.2285 36.2217 13.9883 36.4182 13.7775 36.5684C13.5543 36.7274 13.3178 36.8691 13.0384 36.9583C12.4348 37.1511 11.7817 37.1186 11.2002 36.8666C10.9312 36.7501 10.7099 36.5856 10.5036 36.4051C10.3088 36.2347 10.0894 36.0153 9.83652 35.7624L8.23865 34.1645C7.9858 33.9117 7.76639 33.6923 7.59595 33.4974C7.41552 33.2912 7.25103 33.0699 7.13446 32.8009C6.88251 32.2194 6.84994 31.5663 7.04278 30.9626C7.132 30.6833 7.27365 30.4467 7.43266 30.2236C7.58287 30.0127 7.77935 29.7726 8.00579 29.4959L8.02279 29.4751C8.48818 28.9063 8.80393 28.5193 9.01597 28.2142C9.23286 27.9022 9.26304 27.7814 9.26738 27.7491C9.3092 27.4383 9.18104 27.1289 8.93166 26.9387C8.90576 26.9189 8.79906 26.8549 8.42503 26.7876C8.05935 26.7218 7.5625 26.6714 6.83122 26.5983L6.80447 26.5956C6.4487 26.5601 6.14 26.5292 5.88472 26.4863C5.61448 26.441 5.34706 26.3738 5.08648 26.2394C4.52324 25.9489 4.08444 25.4641 3.85143 24.8747C3.74362 24.6021 3.70346 24.3293 3.6852 24.0559C3.66795 23.7976 3.66796 23.4874 3.66797 23.1298V20.8701C3.66796 20.5124 3.66795 20.2021 3.68521 19.9438C3.70348 19.6703 3.74366 19.3974 3.85152 19.1247C4.08453 18.5355 4.5232 18.0508 5.08625 17.7603C5.34688 17.6259 5.61437 17.5587 5.88468 17.5134C6.14004 17.4705 6.44883 17.4396 6.80471 17.404L6.83143 17.4014C7.56291 17.3282 8.05989 17.2779 8.42567 17.212C8.79979 17.1447 8.90651 17.0806 8.93242 17.0609C9.1817 16.8707 9.30981 16.5614 9.26805 16.2506C9.26371 16.2183 9.23354 16.0975 9.01659 15.7854C8.80448 15.4801 8.48864 15.0931 8.02309 14.5241L8.00607 14.5033C7.77954 14.2264 7.58299 13.9862 7.43273 13.7753C7.27366 13.552 7.13197 13.3154 7.04275 13.036C6.85007 12.4325 6.88263 11.7797 7.1344 11.1984C7.25098 10.9292 7.41551 10.7078 7.596 10.5015C7.76649 10.3066 7.98596 10.0871 8.23889 9.83423L9.83667 8.23645C10.0895 7.9836 10.3089 7.76421 10.5037 7.59377C10.71 7.41334 10.9313 7.24885 11.2003 7.13228C11.7818 6.88034 12.4349 6.84776 13.0385 7.04059C13.3179 7.12982 13.5544 7.27149 13.7776 7.43051C13.9885 7.58073 14.2286 7.77723 14.5054 8.00369L14.5262 8.02073C15.095 8.48606 15.4818 8.80177 15.7869 9.01381C16.099 9.23069 16.2197 9.26088 16.2519 9.26523C16.5629 9.3071 16.8724 9.1789 17.0626 8.92942C17.0824 8.90352 17.1464 8.79684 17.2137 8.42291C17.2794 8.05733 17.3298 7.56062 17.4029 6.82954L17.4055 6.80279C17.4411 6.44712 17.4719 6.13851 17.5148 5.8833C17.5602 5.61313 17.6272 5.34578 17.7616 5.08525C18.0521 4.52182 18.5371 4.08288 19.1267 3.84986C19.3993 3.74212 19.672 3.70197 19.9453 3.68372C20.2035 3.66648 20.5137 3.66649 20.8711 3.6665ZM20.0616 5.42588C19.8773 5.43819 19.8051 5.45916 19.7685 5.47366C19.572 5.55133 19.4103 5.69764 19.3134 5.88545C19.2954 5.9205 19.2673 5.99017 19.2367 6.17239C19.2047 6.36319 19.1792 6.61324 19.1402 7.00327L19.1366 7.03979C19.0681 7.72513 19.0115 8.29081 18.9321 8.73212C18.8528 9.1729 18.7311 9.621 18.451 9.98822C17.8802 10.7367 16.9517 11.1213 16.0189 10.9956C15.5612 10.934 15.1582 10.7032 14.7904 10.4476C14.4222 10.1916 13.9822 9.83159 13.449 9.39538L13.4206 9.37208C13.117 9.12375 12.9221 8.96486 12.7645 8.85254C12.6139 8.74526 12.5448 8.71582 12.5072 8.70383C12.306 8.63955 12.0883 8.65041 11.8945 8.73439C11.8583 8.75007 11.7924 8.78624 11.6533 8.90793C11.5077 9.03536 11.3296 9.21282 11.0523 9.49008L9.49254 11.0498C9.21518 11.3272 9.03765 11.5054 8.91019 11.6511C8.78846 11.7902 8.75228 11.8561 8.7366 11.8923C8.65267 12.0861 8.64182 12.3037 8.70605 12.5049C8.71805 12.5424 8.74749 12.6116 8.85478 12.7622C8.96712 12.9199 9.12605 13.1148 9.37445 13.4184L9.39777 13.4469C9.83416 13.9803 10.1944 14.4205 10.4504 14.7889C10.7061 15.1569 10.937 15.5601 10.9985 16.0181C11.1238 16.9504 10.7395 17.8783 9.99164 18.4489C9.62429 18.7292 9.17596 18.8511 8.73494 18.9305C8.29341 19.0099 7.72745 19.0665 7.04177 19.1351L7.00516 19.1387C6.61493 19.1777 6.36474 19.2032 6.17384 19.2353C5.99153 19.2659 5.92182 19.294 5.88676 19.3121C5.69908 19.4089 5.55285 19.5705 5.47519 19.7668C5.46068 19.8035 5.43968 19.8757 5.42736 20.0601C5.41445 20.2533 5.414 20.5048 5.414 20.8969V23.1029C5.414 23.495 5.41445 23.7464 5.42735 23.9395C5.43967 24.1239 5.46065 24.1961 5.47515 24.2328C5.55282 24.4292 5.69909 24.5908 5.88684 24.6877C5.92189 24.7057 5.99158 24.7338 6.17385 24.7644C6.3647 24.7964 6.61482 24.8219 7.00496 24.8609L7.04155 24.8646C7.72705 24.9331 8.29286 24.9897 8.73427 25.0691C9.17518 25.1485 9.62339 25.2703 9.99067 25.5504C10.7388 26.1212 11.1233 27.0494 10.9978 27.9819C10.9362 28.4398 10.7054 28.8428 10.4498 29.2107C10.1938 29.579 9.8337 30.0191 9.39745 30.5523L9.37415 30.5807C9.12585 30.8842 8.96699 31.0791 8.85469 31.2367C8.74744 31.3872 8.71801 31.4564 8.70601 31.4939C8.64172 31.6951 8.65258 31.9129 8.73657 32.1067C8.75225 32.1429 8.78842 32.2087 8.91011 32.3478C9.03753 32.4935 9.21499 32.6716 9.49225 32.9488L11.0522 34.5088C11.3295 34.7861 11.5076 34.9635 11.6532 35.091C11.7924 35.2127 11.8582 35.2488 11.8944 35.2645C12.0882 35.3485 12.3059 35.3594 12.5071 35.2951C12.5447 35.2831 12.6138 35.2536 12.7644 35.1464C12.922 35.0341 13.1169 34.8752 13.4204 34.6269L13.4488 34.6036C13.982 34.1674 14.4221 33.8072 14.7905 33.5513C15.1583 33.2956 15.5614 33.0648 16.0193 33.0032C16.9518 32.8778 17.8799 33.2622 18.4506 34.0103C18.7309 34.3776 18.8526 34.8258 18.932 35.2668C19.0114 35.7082 19.068 36.274 19.1365 36.9595L19.1402 36.9962C19.1792 37.3863 19.2047 37.6364 19.2367 37.8273C19.2673 38.0096 19.2954 38.0793 19.3135 38.1143C19.4103 38.302 19.5719 38.4483 19.7684 38.526C19.8051 38.5405 19.8772 38.5615 20.0616 38.5738C20.2547 38.5867 20.5061 38.5871 20.8982 38.5871H23.1042C23.4964 38.5871 23.7478 38.5867 23.941 38.5738C24.1255 38.5615 24.1976 38.5405 24.2343 38.5259C24.4307 38.4483 24.5923 38.3021 24.6891 38.1144C24.7072 38.0793 24.7352 38.0096 24.7659 37.8273C24.7979 37.6363 24.8234 37.3861 24.8624 36.9957L24.8661 36.9592C24.9346 36.2736 24.9912 35.7076 25.0707 35.2662C25.15 34.8252 25.2718 34.377 25.552 34.0097C26.1227 33.2615 27.0509 32.8771 27.9835 33.0025C28.4413 33.0641 28.8444 33.2949 29.2122 33.5506C29.5805 33.8066 30.0206 34.1667 30.5538 34.6029L30.5822 34.6262C30.8857 34.8745 31.0806 35.0333 31.2382 35.1456C31.3887 35.2528 31.4578 35.2823 31.4954 35.2943C31.6966 35.3586 31.9143 35.3477 32.1081 35.2637C32.1443 35.248 32.2102 35.2119 32.3493 35.0902C32.495 34.9628 32.673 34.7853 32.9503 34.5081L34.5105 32.9478C34.7877 32.6707 34.9651 32.4927 35.0924 32.3471C35.2141 32.208 35.2502 32.1422 35.2659 32.106C35.35 31.9121 35.3608 31.6943 35.2965 31.493C35.2845 31.4555 35.2551 31.3864 35.1479 31.2359C35.0356 31.0783 34.8768 30.8835 34.6286 30.5802L34.6053 30.5517C34.1692 30.0187 33.8093 29.5788 33.5534 29.2107C33.2978 28.8429 33.067 28.44 33.0054 27.9824C32.8797 27.0495 33.2643 26.1209 34.0129 25.5501C34.3801 25.2701 34.8282 25.1483 35.2689 25.069C35.7102 24.9896 36.2759 24.9331 36.9612 24.8646L36.9978 24.8609C37.3878 24.8219 37.6379 24.7964 37.8287 24.7644C38.011 24.7338 38.0807 24.7058 38.1157 24.6877C38.3035 24.5909 38.4498 24.4292 38.5275 24.2327C38.542 24.196 38.563 24.1239 38.5753 23.9395C38.5882 23.7465 38.5886 23.4951 38.5886 23.1031V20.8968C38.5886 20.5047 38.5882 20.2532 38.5753 20.0601C38.5629 19.8757 38.5419 19.8036 38.5274 19.7669C38.4498 19.5705 38.3035 19.4089 38.1158 19.312C38.0807 19.2939 38.011 19.2659 37.8288 19.2353C37.6379 19.2032 37.3878 19.1778 36.9976 19.1387L36.961 19.1351C36.2755 19.0665 35.7096 19.01 35.2682 18.9305C34.8273 18.8512 34.3791 18.7294 34.0118 18.4492C33.2637 17.8785 32.8792 16.9503 33.0047 16.0178C33.0662 15.5599 33.2971 15.1569 33.5527 14.789C33.8087 14.4207 34.1688 13.9806 34.605 13.4474L34.6283 13.4189C34.8766 13.1155 35.0355 12.9206 35.1478 12.763C35.255 12.6125 35.2845 12.5433 35.2965 12.5058C35.3607 12.3045 35.3499 12.0868 35.2659 11.893C35.2502 11.8568 35.214 11.791 35.0924 11.6519C34.9649 11.5062 34.7875 11.3281 34.5102 11.0509L32.9502 9.49083C32.673 9.21359 32.4949 9.03614 32.3492 8.90872C32.2101 8.78704 32.1443 8.75087 32.1081 8.73519C31.9142 8.6512 31.6965 8.64034 31.4953 8.70462C31.4577 8.71663 31.3886 8.74606 31.2381 8.8533C31.0805 8.9656 30.8856 9.12445 30.5822 9.37273L30.5537 9.39604C30.0205 9.83228 29.5804 10.1924 29.2121 10.4483C28.8443 10.704 28.4412 10.9348 27.9834 10.9964C27.0508 11.1218 26.1226 10.7374 25.5519 9.98921C25.2717 9.62193 25.1499 9.17372 25.0706 8.73282C24.9912 8.2914 24.9346 7.72559 24.8661 7.04009L24.8624 7.0035C24.8234 6.61336 24.7979 6.36324 24.7659 6.17239C24.7353 5.99012 24.7072 5.92042 24.6891 5.88537C24.5923 5.69763 24.4307 5.55136 24.2342 5.47369C24.1975 5.45919 24.1254 5.4382 23.941 5.42588C23.7479 5.41299 23.4965 5.41254 23.1044 5.41254H20.898C20.506 5.41254 20.2547 5.41299 20.0616 5.42588ZM22.0013 15.8887C18.6262 15.8887 15.8902 18.6248 15.8902 21.9998C15.8902 25.3749 18.6262 28.1109 22.0013 28.1109C25.3764 28.1109 28.1124 25.3749 28.1124 21.9998C28.1124 18.6248 25.3764 15.8887 22.0013 15.8887ZM14.1442 21.9998C14.1442 17.6605 17.6619 14.1427 22.0013 14.1427C26.3407 14.1427 29.8584 17.6605 29.8584 21.9998C29.8584 26.3392 26.3407 29.857 22.0013 29.857C17.6619 29.857 14.1442 26.3392 14.1442 21.9998Z" fill="#272932"/>
</svg>
