<svg width="16" height="16" viewBox="0 0 16 16" fill="none" xmlns="http://www.w3.org/2000/svg">
<path fill-rule="evenodd" clip-rule="evenodd" d="M1.66602 2.66659C1.66602 2.48249 1.81525 2.33325 1.99935 2.33325H13.9993C14.1834 2.33325 14.3327 2.48249 14.3327 2.66659C14.3327 2.85068 14.1834 2.99992 13.9993 2.99992H1.99935C1.81525 2.99992 1.66602 2.85068 1.66602 2.66659ZM1.66602 7.99992C1.66602 7.81582 1.81525 7.66659 1.99935 7.66659H10.5708C10.7549 7.66659 10.9041 7.81582 10.9041 7.99992C10.9041 8.18401 10.7549 8.33325 10.5708 8.33325H1.99935C1.81525 8.33325 1.66602 8.18401 1.66602 7.99992ZM1.66602 13.3333C1.66602 13.1492 1.81525 12.9999 1.99935 12.9999H7.14221C7.3263 12.9999 7.47554 13.1492 7.47554 13.3333C7.47554 13.5173 7.3263 13.6666 7.14221 13.6666H1.99935C1.81525 13.6666 1.66602 13.5173 1.66602 13.3333Z" fill="#272932"/>
</svg>
