<svg width="40" height="40" viewBox="0 0 40 40" fill="none" xmlns="http://www.w3.org/2000/svg">
<path fill-rule="evenodd" clip-rule="evenodd" d="M10.5 12C10.5 11.7239 10.7239 11.5 11 11.5H29C29.2761 11.5 29.5 11.7239 29.5 12C29.5 12.2761 29.2761 12.5 29 12.5H11C10.7239 12.5 10.5 12.2761 10.5 12ZM10.5 20C10.5 19.7239 10.7239 19.5 11 19.5H23.8571C24.1333 19.5 24.3571 19.7239 24.3571 20C24.3571 20.2761 24.1333 20.5 23.8571 20.5H11C10.7239 20.5 10.5 20.2761 10.5 20ZM10.5 28C10.5 27.7239 10.7239 27.5 11 27.5H18.7143C18.9904 27.5 19.2143 27.7239 19.2143 28C19.2143 28.2761 18.9904 28.5 18.7143 28.5H11C10.7239 28.5 10.5 28.2761 10.5 28Z" fill="#737782"/>
</svg>
