<svg viewBox="0 0 44 44" fill="none" xmlns="http://www.w3.org/2000/svg">
<path fill-rule="evenodd" clip-rule="evenodd" d="M21.3183 10.5087C20.9256 11.2157 20.5023 12.3008 19.9006 13.8499L19.8315 14.0279C19.5084 14.8596 19.2458 15.5357 18.9759 16.066C18.6948 16.6184 18.3779 17.0711 17.9159 17.4259C17.4523 17.7818 16.9368 17.9669 16.3374 18.087C15.765 18.2018 15.0598 18.267 14.1977 18.3468L13.8339 18.3804C12.3417 18.5184 11.3095 18.6159 10.604 18.7878C9.88568 18.9629 9.79413 19.1476 9.76532 19.2361C9.73343 19.334 9.70612 19.5529 10.1802 20.1459C10.6438 20.7258 11.4116 21.4497 12.5188 22.4901L13.2457 23.173C13.2881 23.2129 13.33 23.2522 13.3714 23.291C14.3517 24.2112 15.0249 24.843 15.3442 25.6867C15.4035 25.8432 15.4527 26.0035 15.4916 26.1664C15.7006 27.0421 15.5044 27.953 15.2165 29.2898C15.2045 29.3457 15.1923 29.4024 15.1799 29.4598L15.0795 29.9275C14.779 31.3259 14.5674 32.3158 14.489 33.0328C14.405 33.8015 14.5137 33.9856 14.5401 34.0159C14.6394 34.1301 14.7657 34.2093 14.9022 34.2478C14.9156 34.2515 15.1019 34.2851 15.7305 33.8618C16.3133 33.4694 17.0728 32.8317 18.1489 31.9261L18.1773 31.9022C18.8504 31.3358 19.3961 30.8765 19.8743 30.5463C20.3699 30.204 20.8496 29.959 21.4018 29.8679C21.7975 29.8026 22.2007 29.8026 22.5964 29.8679C23.1486 29.959 23.6282 30.204 24.1238 30.5463C24.6021 30.8765 25.1478 31.3358 25.8209 31.9023L25.8493 31.9261C26.9254 32.8317 27.6849 33.4694 28.2677 33.8618C28.8963 34.2851 29.0826 34.2515 29.096 34.2478C29.2325 34.2093 29.3588 34.1301 29.4581 34.0159C29.4845 33.9856 29.5932 33.8015 29.5092 33.0328C29.4308 32.3158 29.2192 31.3259 28.9187 29.9275L28.8183 29.4598C28.8059 29.4024 28.7937 29.3457 28.7817 29.2898C28.4938 27.953 28.2976 27.0421 28.5066 26.1664C28.5455 26.0035 28.5947 25.8432 28.654 25.6867C28.9733 24.843 29.6465 24.2112 30.6268 23.291C30.6682 23.2522 30.7101 23.2129 30.7525 23.173L31.4794 22.4901C32.5866 21.4497 33.3544 20.7258 33.818 20.1459C34.2921 19.5529 34.2648 19.334 34.2329 19.2361C34.2041 19.1476 34.1125 18.9629 33.3942 18.7878C32.6887 18.6159 31.6565 18.5184 30.1643 18.3804L29.8005 18.3468C28.9384 18.267 28.2332 18.2018 27.6608 18.087C27.0614 17.9669 26.5459 17.7818 26.0823 17.4259C25.6203 17.0711 25.3034 16.6184 25.0223 16.066C24.7524 15.5357 24.4898 14.8596 24.1667 14.0279L24.0976 13.8499C23.4959 12.3008 23.0726 11.2157 22.6799 10.5087C22.2661 9.76356 22.0541 9.75 21.9991 9.75C21.9441 9.75 21.7321 9.76356 21.3183 10.5087ZM20.007 9.78042C20.4407 8.99949 21.0347 8.25 21.9991 8.25C22.9635 8.25 23.5575 8.99949 23.9912 9.78042C24.4401 10.5886 24.8995 11.7714 25.4724 13.2465L25.551 13.4489C25.8914 14.3251 26.1274 14.9304 26.3591 15.3856C26.5835 15.8265 26.7754 16.0669 26.9958 16.2361C27.2148 16.4043 27.4885 16.5226 27.9557 16.6163C28.441 16.7136 29.0668 16.7725 29.9785 16.8568L30.3691 16.8929C31.7788 17.0233 32.923 17.1291 33.7493 17.3305C34.5757 17.5319 35.3742 17.8966 35.6592 18.7716C35.941 19.6371 35.5261 20.4115 34.9896 21.0825C34.4508 21.7565 33.6026 22.5534 32.5538 23.5388L31.7796 24.2662C30.6233 25.3526 30.2379 25.7393 30.0568 26.2177C30.0202 26.3144 29.9898 26.4136 29.9657 26.5146C29.8456 27.0176 29.9464 27.5698 30.2848 29.1447L30.3953 29.6593C30.6835 31.0005 30.9125 32.0665 31.0003 32.8699C31.0835 33.6309 31.0815 34.435 30.5899 35.0003C30.3021 35.3312 29.9253 35.5725 29.5029 35.6915C28.7684 35.8985 28.0499 35.5236 27.4299 35.1061C26.7721 34.6631 25.9511 33.9722 24.9216 33.1059L24.8835 33.0738C24.1752 32.4778 23.6838 32.0653 23.2714 31.7805C22.8697 31.5031 22.6005 31.3888 22.3523 31.3479C22.1183 31.3093 21.8799 31.3093 21.6459 31.3479C21.3976 31.3888 21.1284 31.5031 20.7267 31.7805C20.3144 32.0653 19.8229 32.4778 19.1147 33.0738L19.0766 33.1059C18.0471 33.9722 17.2261 34.6631 16.5683 35.1061C15.9483 35.5236 15.2298 35.8985 14.4953 35.6915C14.0729 35.5725 13.6961 35.3312 13.4083 35.0003C12.9167 34.435 12.9147 33.6309 12.9979 32.8699C13.0857 32.0664 13.3147 31.0005 13.6029 29.6592L13.7134 29.1447C14.0518 27.5698 14.1526 27.0176 14.0325 26.5146C14.0084 26.4136 13.978 26.3144 13.9414 26.2177C13.7603 25.7393 13.3749 25.3526 12.2186 24.2662L11.4444 23.5388C10.3956 22.5534 9.54736 21.7565 9.00855 21.0825C8.47208 20.4115 8.05718 19.6371 8.33905 18.7716C8.62399 17.8966 9.42248 17.5319 10.2489 17.3305C11.0752 17.1291 12.2194 17.0233 13.6291 16.8929L14.0197 16.8568C14.9314 16.7725 15.5572 16.7136 16.0425 16.6163C16.5097 16.5226 16.7834 16.4043 17.0024 16.2361C17.2228 16.0669 17.4147 15.8265 17.6391 15.3856C17.8708 14.9304 18.1068 14.3251 18.4472 13.4489L18.5258 13.2464C19.0987 11.7714 19.5581 10.5886 20.007 9.78042Z" fill="#272932"/>
</svg>
