<svg width="44" height="44" viewBox="0 0 44 44" fill="none" xmlns="http://www.w3.org/2000/svg">
<path fill-rule="evenodd" clip-rule="evenodd" d="M33.3357 12.5904C30.6218 9.181 26.4649 7 21.8052 7C13.6285 7 7 13.7157 7 22C7 30.2843 13.6285 37 21.8052 37C29.9819 37 36.6104 30.2843 36.6104 22C36.6104 19.3016 35.9071 16.7695 34.6761 14.5818L36.6577 12.5742C37.1141 12.1117 37.1141 11.3619 36.6577 10.8995C36.2012 10.437 35.4611 10.437 35.0047 10.8995L33.3357 12.5904ZM21.8052 34.6316C28.6908 34.6316 34.2727 28.9762 34.2727 22C34.2727 19.9615 33.7961 18.0358 32.9496 16.331L22.6317 26.7847C22.1752 27.2472 21.4352 27.2472 20.9787 26.7847L13.9657 19.6795C13.5093 19.217 13.5093 18.4672 13.9657 18.0047C14.4222 17.5423 15.1622 17.5423 15.6187 18.0047L21.8052 24.2726L31.6714 14.2766C29.3911 11.2908 25.8197 9.36842 21.8052 9.36842C14.9196 9.36842 9.33766 15.0238 9.33766 22C9.33766 28.9762 14.9196 34.6316 21.8052 34.6316Z" fill="#2FBC48"/>
</svg>
