<svg viewBox="0 0 24 24" fill="none" xmlns="http://www.w3.org/2000/svg">
<path fill-rule="evenodd" clip-rule="evenodd" d="M16.93 9.78625C16.93 9.35202 16.5938 9 16.1791 9H8.75093C8.3362 9 8 9.35202 8 9.78625V11.0612C8 11.9617 8.55142 12.7273 9.31999 13.008C9.48478 13.0682 9.65955 13.1061 9.841 13.1182C9.86416 13.1765 9.88904 13.2337 9.91556 13.29C10.3074 14.1212 11.0591 14.7331 11.9576 14.9027V16.4375H10.6384C10.3582 16.4375 10.131 16.6753 10.131 16.9688C10.131 17.2621 10.3582 17.5 10.6384 17.5H14.2916C14.5718 17.5 14.799 17.2621 14.799 16.9688C14.799 16.6753 14.5718 16.4375 14.2916 16.4375H12.9724V14.9027C13.8709 14.7331 14.6226 14.1212 15.0145 13.29C15.041 13.2337 15.0658 13.1764 15.089 13.1182C15.2704 13.1061 15.4452 13.0682 15.61 13.008C16.3786 12.7273 16.93 11.9617 16.93 11.0612V9.78625ZM15.3064 9.935H16.037V11.0612C16.037 11.4374 15.8609 11.7704 15.5903 11.975C15.5033 12.0408 15.4065 12.0933 15.3026 12.1296C15.3039 12.1039 15.3048 12.0782 15.3054 12.0523C15.3061 12.0266 15.3064 12.0008 15.3064 11.975V9.935ZM14.3064 10H10.6236V11.975C10.6236 12.0106 10.6245 12.0459 10.6262 12.0808L10.6433 12.4297L10.7702 12.7485C11.0172 13.3694 11.5419 13.8066 12.1431 13.92L12.465 13.9808L12.7869 13.92C13.3882 13.8066 13.9128 13.3694 14.1598 12.7486L14.2866 12.4299L14.3038 12.0806C14.3055 12.0459 14.3064 12.0107 14.3064 11.975V10ZM8.893 9.935H9.62364V11.975C9.62364 12.0008 9.62395 12.0266 9.62458 12.0523C9.62521 12.0782 9.62615 12.1039 9.62741 12.1296C9.52353 12.0933 9.42672 12.0408 9.33968 11.975C9.0691 11.7704 8.893 11.4374 8.893 11.0612V9.935Z" fill="#2FBC48"/>
<path fill-rule="evenodd" clip-rule="evenodd" d="M22 12.5C22 17.7467 17.7467 22 12.5 22C7.25329 22 3 17.7467 3 12.5C3 7.25329 7.25329 3 12.5 3C17.7467 3 22 7.25329 22 12.5ZM20.5 12.5C20.5 16.9183 16.9183 20.5 12.5 20.5C8.08172 20.5 4.5 16.9183 4.5 12.5C4.5 8.08172 8.08172 4.5 12.5 4.5C16.9183 4.5 20.5 8.08172 20.5 12.5Z" fill="#2FBC48"/>
</svg>
