<svg width="44" height="44" viewBox="0 0 44 44" fill="none" xmlns="http://www.w3.org/2000/svg">
<path fill-rule="evenodd" clip-rule="evenodd" d="M24.6646 12.7879C23.7902 10.4261 22.2093 8.28105 20.4561 5.97925C19.7476 5.04897 18.2158 5.56597 18.2115 6.7328C18.1967 10.7497 16.2208 13.2415 13.9739 15.8588C11.7801 18.4143 9.16602 21.2239 9.16602 25.6011C9.16602 32.6406 14.8726 38.3472 21.912 38.3472C28.9515 38.3472 34.6581 32.6406 34.6581 25.6011C34.6581 21.155 32.6104 17.1071 30.1766 14.8517C29.4274 14.1574 28.1571 14.6448 28.0807 15.6729C27.9565 17.3444 27.191 19.9612 25.0662 19.7674C25.6492 17.1314 25.4459 14.8985 24.6646 12.7879ZM28.0794 29.1209C28.0794 32.343 25.3183 34.9551 21.9121 34.9551C18.5059 34.9551 15.7447 32.343 15.7447 29.1209C15.7447 27.2476 16.8608 26.0205 18.0218 24.7442C19.2798 23.3612 20.5904 21.9204 20.5904 19.5364C22.361 21.8687 23.6743 23.7036 22.7932 26.6207C25.6636 27.6054 25.8769 24.1204 25.8769 24.1204C26.9669 25.1726 28.0794 27.0374 28.0794 29.1209Z" fill="url(#paint0_linear_3033_8883)"/>
<defs>
<linearGradient id="paint0_linear_3033_8883" x1="21.912" y1="5.5" x2="21.912" y2="38.3472" gradientUnits="userSpaceOnUse">
<stop stop-color="#651DFF" stop-opacity="0.4"/>
<stop offset="1" stop-color="#6C8DFF"/>
</linearGradient>
</defs>
</svg>
