<svg width="24" height="24" viewBox="0 0 24 24" fill="none" xmlns="http://www.w3.org/2000/svg">
<path d="M19.153 19.6757L20.4269 16.3391C20.5892 16.4045 20.7735 16.324 20.8359 16.1606L20.8382 16.1547C21.1574 15.3185 20.7547 14.3713 19.9403 14.0434L17.5774 13.092L21.515 2.77903C21.7705 2.10987 21.4483 1.35238 20.7967 1.09001C20.1451 0.827644 19.4075 1.15843 19.152 1.82759L15.2144 12.1406L12.8514 11.1891C12.0371 10.8613 11.1147 11.2748 10.7954 12.1111L10.7932 12.117C10.7301 12.2821 10.811 12.4674 10.975 12.5334L9.70107 15.87C9.25402 17.0408 9.81785 18.3667 10.958 18.8258L15.3279 20.5854C15.5235 20.6641 15.7456 20.5671 15.8208 20.3702C16.1571 20.7666 16.6146 21.1035 17.1608 21.3234L19.5126 22.2703C19.681 22.3381 19.8723 22.2546 19.9371 22.0849C20.0002 21.9196 19.9166 21.7368 19.7691 21.639C19.1481 21.2273 18.873 20.4089 19.153 19.6757ZM19.7427 2.06545C19.8705 1.7309 20.2393 1.56549 20.5651 1.69666C20.8909 1.82783 21.052 2.20662 20.9242 2.54117L16.9866 12.8542L15.8051 12.3785L19.7427 2.06545ZM12.6198 11.7958L19.7087 14.6501C20.0939 14.8052 20.3255 15.191 20.3127 15.5932L11.5525 12.066C11.8093 11.762 12.2346 11.6407 12.6198 11.7958ZM11.1896 18.2191C10.3753 17.8911 9.97248 16.944 10.2918 16.1077L11.5657 12.7712L13.0426 13.3659L11.7687 16.7024C11.5419 17.2963 11.5762 17.9296 11.8128 18.47L11.1896 18.2191ZM17.3924 20.7166C16.2523 20.2575 15.5846 19.2037 15.9039 18.3674L15.3131 18.1295C15.0819 18.7353 15.0063 19.3179 15.0729 19.7826L13.2572 19.0515C12.4429 18.7237 12.0401 17.7765 12.3594 16.9402L13.6334 13.6037L16.547 14.7769L17.1608 15.024L19.8362 16.1013L18.5622 19.4378C18.3356 20.0314 18.3687 20.6649 18.6049 21.2048L17.3924 20.7166Z" fill="black"/>
<path d="M15.3131 18.1295L15.9039 18.3674L17.1608 15.024L16.547 14.7769L15.3131 18.1295Z" fill="black"/>
<path d="M5.6251 19.2351C5.60361 19.0306 5.43902 18.8634 5.23344 18.8634C5.02787 18.8634 4.85952 19.0304 4.87706 19.2352C4.92399 19.783 5.07361 20.3009 5.30606 20.7686C4.42344 19.8783 3.84733 18.669 3.757 17.3242C3.74322 17.1191 3.57787 16.9522 3.37227 16.9522C3.16667 16.9522 2.99885 17.1192 3.01091 17.3245C3.19131 20.3941 5.58687 22.8605 8.57343 23.0558C8.7841 23.0695 8.95575 22.8971 8.95575 22.686C8.95575 22.4749 8.78387 22.3061 8.57419 22.2815C7.02478 22.1002 5.79263 20.8289 5.6251 19.2351Z" fill="black"/>
<path d="M6.35156 18.099C6.35156 18.7312 6.85256 19.2458 7.4683 19.2458C8.08405 19.2458 8.58505 18.7313 8.58505 18.099C8.58505 17.4666 8.08405 16.9522 7.4683 16.9522C6.85256 16.9522 6.35156 17.4666 6.35156 18.099ZM7.8405 18.099C7.8405 18.3096 7.67334 18.4813 7.46823 18.4813C7.26311 18.4813 7.09595 18.3096 7.09595 18.099C7.09595 17.8883 7.26311 17.7167 7.46823 17.7167C7.67334 17.7167 7.8405 17.8883 7.8405 18.099Z" fill="black"/>
<path d="M6.35026 13.5119C7.17144 13.5119 7.8392 12.8261 7.8392 11.9829C7.8392 11.1396 7.17144 10.4538 6.35026 10.4538C5.52909 10.4538 4.86133 11.1396 4.86133 11.9829C4.86133 12.8261 5.52909 13.5119 6.35026 13.5119ZM6.35026 11.2184C6.76081 11.2184 7.09473 11.5613 7.09473 11.9829C7.09473 12.4045 6.76081 12.7474 6.35026 12.7474C5.93972 12.7474 5.6058 12.4045 5.6058 11.9829C5.6058 11.5613 5.93972 11.2184 6.35026 11.2184Z" fill="black"/>
</svg>
