<svg viewBox="0 0 32 32" fill="none" xmlns="http://www.w3.org/2000/svg">
<path d="M15.999 0C11.7565 0 7.68402 1.68675 4.68652 4.68625C1.68593 7.68694 -0.000145388 11.7565 -0.000976562 16C-0.000976563 20.2418 1.68652 24.3142 4.68652 27.3137C7.68402 30.3132 11.7565 32 15.999 32C20.2415 32 24.314 30.3132 27.3115 27.3137C30.3115 24.3142 31.999 20.2418 31.999 16C31.999 11.7583 30.3115 7.68575 27.3115 4.68625C24.314 1.68675 20.2415 0 15.999 0Z" fill="#9EB4FF"/>
<path d="M7.24152 15.831C11.9065 13.799 15.0165 12.4593 16.5715 11.812C21.0165 9.96375 21.939 9.64275 22.5415 9.63188C22.674 9.62975 22.969 9.6625 23.1615 9.81813C23.3215 9.94938 23.3665 10.1269 23.389 10.2515C23.409 10.376 23.4365 10.6598 23.414 10.8813C23.174 13.4113 22.1315 19.5508 21.6015 22.3845C21.379 23.5835 20.9365 23.9855 20.509 24.0247C19.579 24.1103 18.874 23.4107 17.974 22.821C16.5665 21.8977 15.7715 21.3233 14.404 20.4225C12.824 19.3815 13.849 18.8092 14.749 17.8743C14.984 17.6295 19.079 13.9058 19.1565 13.568C19.1665 13.5258 19.1765 13.3683 19.0815 13.2853C18.989 13.202 18.8515 13.2305 18.7515 13.253C18.609 13.285 16.3615 14.772 12.0015 17.7138C11.364 18.1523 10.7865 18.366 10.2665 18.3547C9.69652 18.3425 8.59652 18.0318 7.77902 17.7663C6.77902 17.4405 5.98152 17.2683 6.05152 16.715C6.08652 16.427 6.48402 16.1323 7.24152 15.831Z" fill="white"/>
</svg>
