<svg width="40" height="40" viewBox="0 0 40 40" fill="none" xmlns="http://www.w3.org/2000/svg">
<path fill-rule="evenodd" clip-rule="evenodd" d="M12 21.9V28H18.0031V21.9H12ZM12 12V18.1H18.0031V12H12ZM21.9969 21.9V28H28V21.9H21.9969ZM21.9969 12V18.1H28V12H21.9969ZM11.8892 11C11.3981 11 11 11.4029 11 11.9V18.2C11 18.6971 11.3981 19.1 11.8892 19.1H18.1139C18.605 19.1 19.0031 18.6971 19.0031 18.2V11.9C19.0031 11.4029 18.605 11 18.1139 11H11.8892ZM11.8892 20.9C11.3981 20.9 11 21.3029 11 21.8V28.1C11 28.5971 11.3981 29 11.8892 29H18.1139C18.605 29 19.0031 28.5971 19.0031 28.1V21.8C19.0031 21.3029 18.605 20.9 18.1139 20.9H11.8892ZM20.9969 21.8C20.9969 21.3029 21.395 20.9 21.8861 20.9H28.1108C28.6019 20.9 29 21.3029 29 21.8V28.1C29 28.5971 28.6019 29 28.1108 29H21.8861C21.395 29 20.9969 28.5971 20.9969 28.1V21.8ZM21.8861 11C21.395 11 20.9969 11.4029 20.9969 11.9V18.2C20.9969 18.6971 21.395 19.1 21.8861 19.1H28.1108C28.6019 19.1 29 18.6971 29 18.2V11.9C29 11.4029 28.6019 11 28.1108 11H21.8861Z" fill="#737782"/>
</svg>
