<svg width="40" height="40" viewBox="0 0 40 40" fill="none" xmlns="http://www.w3.org/2000/svg">
<rect width="40" height="40" rx="20" fill="#E1EAFF"/>
<path fill-rule="evenodd" clip-rule="evenodd" d="M12 12.4C12 12.1791 12.1791 12 12.4 12H15.4C15.6209 12 15.8 12.1791 15.8 12.4V15.4C15.8 15.6209 15.6209 15.8 15.4 15.8H12.4C12.1791 15.8 12 15.6209 12 15.4V12.4ZM12.8 12.8V15H15V12.8H12.8ZM18 12.4C18 12.1791 18.1791 12 18.4 12H21.4C21.6209 12 21.8 12.1791 21.8 12.4V15.4C21.8 15.6209 21.6209 15.8 21.4 15.8H18.4C18.1791 15.8 18 15.6209 18 15.4V12.4ZM18.8 12.8V15H21V12.8H18.8ZM24 12.4C24 12.1791 24.1791 12 24.4 12H27.4C27.6209 12 27.8 12.1791 27.8 12.4V15.4C27.8 15.6209 27.6209 15.8 27.4 15.8H24.4C24.1791 15.8 24 15.6209 24 15.4V12.4ZM24.8 12.8V15H27V12.8H24.8ZM12 18.4C12 18.1791 12.1791 18 12.4 18H15.4C15.6209 18 15.8 18.1791 15.8 18.4V21.4C15.8 21.6209 15.6209 21.8 15.4 21.8H12.4C12.1791 21.8 12 21.6209 12 21.4V18.4ZM12.8 18.8V21H15V18.8H12.8ZM18 18.4C18 18.1791 18.1791 18 18.4 18H21.4C21.6209 18 21.8 18.1791 21.8 18.4V21.4C21.8 21.6209 21.6209 21.8 21.4 21.8H18.4C18.1791 21.8 18 21.6209 18 21.4V18.4ZM18.8 18.8V21H21V18.8H18.8ZM24 18.4C24 18.1791 24.1791 18 24.4 18H27.4C27.6209 18 27.8 18.1791 27.8 18.4V21.4C27.8 21.6209 27.6209 21.8 27.4 21.8H24.4C24.1791 21.8 24 21.6209 24 21.4V18.4ZM24.8 18.8V21H27V18.8H24.8ZM12 24.4C12 24.1791 12.1791 24 12.4 24H15.4C15.6209 24 15.8 24.1791 15.8 24.4V27.4C15.8 27.6209 15.6209 27.8 15.4 27.8H12.4C12.1791 27.8 12 27.6209 12 27.4V24.4ZM12.8 24.8V27H15V24.8H12.8ZM18 24.4C18 24.1791 18.1791 24 18.4 24H21.4C21.6209 24 21.8 24.1791 21.8 24.4V27.4C21.8 27.6209 21.6209 27.8 21.4 27.8H18.4C18.1791 27.8 18 27.6209 18 27.4V24.4ZM18.8 24.8V27H21V24.8H18.8ZM24 24.4C24 24.1791 24.1791 24 24.4 24H27.4C27.6209 24 27.8 24.1791 27.8 24.4V27.4C27.8 27.6209 27.6209 27.8 27.4 27.8H24.4C24.1791 27.8 24 27.6209 24 27.4V24.4ZM24.8 24.8V27H27V24.8H24.8Z" fill="#6C8DFF"/>
<path d="M12.8 15V12.8H15V15H12.8Z" fill="#6C8DFF"/>
<path d="M18.8 15V12.8H21V15H18.8Z" fill="#6C8DFF"/>
<path d="M24.8 15V12.8H27V15H24.8Z" fill="#6C8DFF"/>
<path d="M24.8 21V18.8H27V21H24.8Z" fill="#6C8DFF"/>
<path d="M18.8 21V18.8H21V21H18.8Z" fill="#6C8DFF"/>
<path d="M12.8 21V18.8H15V21H12.8Z" fill="#6C8DFF"/>
<path d="M12.8 27V24.8H15V27H12.8Z" fill="#6C8DFF"/>
<path d="M18.8 27V24.8H21V27H18.8Z" fill="#6C8DFF"/>
<path d="M24.8 27V24.8H27V27H24.8Z" fill="#6C8DFF"/>
</svg>
