<svg width="40" height="40" viewBox="0 0 40 40" fill="none" xmlns="http://www.w3.org/2000/svg">
<rect width="40" height="40" rx="20" fill="#E1EAFF"/>
<path fill-rule="evenodd" clip-rule="evenodd" d="M11 17.85C11 17.6015 11.2015 17.4 11.45 17.4H28.45C28.6985 17.4 28.9 17.6015 28.9 17.85V21.35C28.9 21.5985 28.6985 21.8 28.45 21.8H11.45C11.2015 21.8 11 21.5985 11 21.35V17.85ZM11.9 18.3V20.9H28V18.3H11.9Z" fill="#6C8DFF"/>
<path fill-rule="evenodd" clip-rule="evenodd" d="M11 24.25C11 24.0015 11.2015 23.8 11.45 23.8H28.45C28.6985 23.8 28.9 24.0015 28.9 24.25V27.75C28.9 27.9985 28.6985 28.2 28.45 28.2H11.45C11.2015 28.2 11 27.9985 11 27.75V24.25ZM11.9 24.7V27.3H28V24.7H11.9Z" fill="#6C8DFF"/>
<path fill-rule="evenodd" clip-rule="evenodd" d="M11.45 11C11.2015 11 11 11.2015 11 11.45V14.95C11 15.1985 11.2015 15.4 11.45 15.4H28.45C28.6985 15.4 28.9 15.1985 28.9 14.95V11.45C28.9 11.2015 28.6985 11 28.45 11H11.45ZM11.9 11.9V14.5H28V11.9H11.9Z" fill="#6C8DFF"/>
<path d="M11.9 14.5V11.9H28V14.5H11.9Z" fill="#6C8DFF"/>
<path d="M11.9 20.9V18.3H28V20.9H11.9Z" fill="#6C8DFF"/>
<path d="M11.9 27.3V24.7H28V27.3H11.9Z" fill="#6C8DFF"/>
</svg>
