<svg width="40" height="40" viewBox="0 0 40 40" fill="none" xmlns="http://www.w3.org/2000/svg">
<rect width="40" height="40" rx="20" fill="#6C8DFF"/>
<path fill-rule="evenodd" clip-rule="evenodd" d="M12 28V21.9H18.0031V28H12ZM21.9969 28V21.9H28V28H21.9969ZM21.9969 18.1V12H28V18.1H21.9969ZM11 21.8C11 21.3029 11.3981 20.9 11.8892 20.9H18.1139C18.605 20.9 19.0031 21.3029 19.0031 21.8V28.1C19.0031 28.5971 18.605 29 18.1139 29H11.8892C11.3981 29 11 28.5971 11 28.1V21.8ZM21.8861 20.9C21.395 20.9 20.9969 21.3029 20.9969 21.8V28.1C20.9969 28.5971 21.395 29 21.8861 29H28.1108C28.6019 29 29 28.5971 29 28.1V21.8C29 21.3029 28.6019 20.9 28.1108 20.9H21.8861ZM20.9969 11.9C20.9969 11.4029 21.395 11 21.8861 11H28.1108C28.6019 11 29 11.4029 29 11.9V18.2C29 18.6971 28.6019 19.1 28.1108 19.1H21.8861C21.395 19.1 20.9969 18.6971 20.9969 18.2V11.9Z" fill="white"/>
<path d="M21.9969 18.1V12H28V18.1H21.9969Z" fill="white"/>
<path fill-rule="evenodd" clip-rule="evenodd" d="M11 11.9C11 11.4029 11.3981 11 11.8892 11H18.1139C18.605 11 19.0031 11.4029 19.0031 11.9V18.2C19.0031 18.6971 18.605 19.1 18.1139 19.1H11.8892C11.3981 19.1 11 18.6971 11 18.2V11.9ZM12 12V18.1H18.0031V12H12Z" fill="white"/>
<path d="M12 18.1V12H18.0031V18.1H12Z" fill="white"/>
<path d="M21.9969 28V21.9H28V28H21.9969Z" fill="white"/>
<path d="M12 28V21.9H18.0031V28H12Z" fill="white"/>
</svg>
