<svg width="40" height="40" viewBox="0 0 40 40" fill="none" xmlns="http://www.w3.org/2000/svg">
<rect width="40" height="40" rx="20" fill="#6C8DFF"/>
<path d="M12.8 15V12.8H15V15H12.8Z" fill="white"/>
<path d="M18.8 15V12.8H21V15H18.8Z" fill="white"/>
<path d="M24.8 15V12.8H27V15H24.8Z" fill="white"/>
<path d="M24.8 21V18.8H27V21H24.8Z" fill="white"/>
<path fill-rule="evenodd" clip-rule="evenodd" d="M12.4 12C12.1791 12 12 12.1791 12 12.4V15.4C12 15.6209 12.1791 15.8 12.4 15.8H15.4C15.6209 15.8 15.8 15.6209 15.8 15.4V12.4C15.8 12.1791 15.6209 12 15.4 12H12.4ZM12.8 15V12.8H15V15H12.8ZM18.4 12C18.1791 12 18 12.1791 18 12.4V15.4C18 15.6209 18.1791 15.8 18.4 15.8H21.4C21.6209 15.8 21.8 15.6209 21.8 15.4V12.4C21.8 12.1791 21.6209 12 21.4 12H18.4ZM18.8 15V12.8H21V15H18.8ZM24.4 12C24.1791 12 24 12.1791 24 12.4V15.4C24 15.6209 24.1791 15.8 24.4 15.8H27.4C27.6209 15.8 27.8 15.6209 27.8 15.4V12.4C27.8 12.1791 27.6209 12 27.4 12H24.4ZM24.8 15V12.8H27V15H24.8ZM12.4 18C12.1791 18 12 18.1791 12 18.4V21.4C12 21.6209 12.1791 21.8 12.4 21.8H15.4C15.6209 21.8 15.8 21.6209 15.8 21.4V18.4C15.8 18.1791 15.6209 18 15.4 18H12.4ZM12.8 21V18.8H15V21H12.8ZM24.4 18C24.1791 18 24 18.1791 24 18.4V21.4C24 21.6209 24.1791 21.8 24.4 21.8H27.4C27.6209 21.8 27.8 21.6209 27.8 21.4V18.4C27.8 18.1791 27.6209 18 27.4 18H24.4ZM24.8 21V18.8H27V21H24.8ZM12.4 24C12.1791 24 12 24.1791 12 24.4V27.4C12 27.6209 12.1791 27.8 12.4 27.8H15.4C15.6209 27.8 15.8 27.6209 15.8 27.4V24.4C15.8 24.1791 15.6209 24 15.4 24H12.4ZM12.8 27V24.8H15V27H12.8ZM18.4 24C18.1791 24 18 24.1791 18 24.4V27.4C18 27.6209 18.1791 27.8 18.4 27.8H21.4C21.6209 27.8 21.8 27.6209 21.8 27.4V24.4C21.8 24.1791 21.6209 24 21.4 24H18.4ZM18.8 27V24.8H21V27H18.8ZM24.4 24C24.1791 24 24 24.1791 24 24.4V27.4C24 27.6209 24.1791 27.8 24.4 27.8H27.4C27.6209 27.8 27.8 27.6209 27.8 27.4V24.4C27.8 24.1791 27.6209 24 27.4 24H24.4ZM24.8 27V24.8H27V27H24.8Z" fill="white"/>
<path d="M18.8 21V18.8H21V21H18.8Z" fill="white"/>
<path fill-rule="evenodd" clip-rule="evenodd" d="M18.4 18C18.1791 18 18 18.1791 18 18.4V21.4C18 21.6209 18.1791 21.8 18.4 21.8H21.4C21.6209 21.8 21.8 21.6209 21.8 21.4V18.4C21.8 18.1791 21.6209 18 21.4 18H18.4ZM18.8 18.8V21H21V18.8H18.8Z" fill="white"/>
<path d="M12.8 21V18.8H15V21H12.8Z" fill="white"/>
<path d="M12.8 27V24.8H15V27H12.8Z" fill="white"/>
<path d="M18.8 27V24.8H21V27H18.8Z" fill="white"/>
<path d="M24.8 27V24.8H27V27H24.8Z" fill="white"/>
</svg>
