<svg viewBox="0 0 24 24" fill="none" xmlns="http://www.w3.org/2000/svg">
<path d="M5.94459 3.93502C6.16749 3.7143 6.16749 3.35646 5.94459 3.13576C5.72165 2.91503 5.36024 2.91503 5.1373 3.13576L2.16718 6.07648C1.94427 6.29717 1.94427 6.65501 2.16718 6.87574C2.39011 7.09644 2.75153 7.09644 2.97446 6.87574L5.94459 3.93502Z" fill="#272932"/>
<path d="M11.9012 9.42168C11.9012 9.18759 11.7095 8.9978 11.473 8.9978C11.2366 8.9978 11.0449 9.18759 11.0449 9.42168V14.0044H15.573C15.8094 14.0044 16.0011 13.8146 16.0011 13.5805C16.0011 13.3464 15.8094 13.1566 15.573 13.1566H11.9012V9.42168Z" fill="#272932"/>
<path fill-rule="evenodd" clip-rule="evenodd" d="M20.4288 12.9549C20.4288 17.8375 16.4311 21.7957 11.4996 21.7957C6.56808 21.7957 2.57031 17.8375 2.57031 12.9549C2.57031 8.0722 6.56808 4.11401 11.4996 4.11401C16.4311 4.11401 20.4288 8.0722 20.4288 12.9549ZM19.2872 12.9549C19.2872 17.2133 15.8006 20.6654 11.4996 20.6654C7.19859 20.6654 3.71195 17.2133 3.71195 12.9549C3.71195 8.69646 7.19859 5.24435 11.4996 5.24435C15.8006 5.24435 19.2872 8.69646 19.2872 12.9549Z" fill="#272932"/>
<path d="M17.0559 3.13576C16.8329 3.35646 16.8329 3.7143 17.0559 3.93502L20.026 6.87574C20.2489 7.09644 20.6103 7.09644 20.8333 6.87574C21.0562 6.65501 21.0562 6.29717 20.8333 6.07648L17.8631 3.13576C17.6402 2.91503 17.2788 2.91503 17.0559 3.13576Z" fill="#272932"/>
</svg>
