<svg viewBox="0 0 24 24" fill="none" xmlns="http://www.w3.org/2000/svg">
<path fill-rule="evenodd" clip-rule="evenodd" d="M4.20708 11.5C3.31618 11.5 2.87001 12.5771 3.49998 13.2071L11.2929 21C11.6834 21.3905 12.3166 21.3905 12.7071 21L20.5 13.2071C21.1299 12.5771 20.6838 11.5 19.7929 11.5L16.3571 11.5L16.3571 3C16.3571 2.72386 16.1333 2.5 15.8571 2.5C15.581 2.5 15.3571 2.72386 15.3571 3L15.3571 11.5C15.3571 12.0523 15.8048 12.5 16.3571 12.5L19.7929 12.5L12 20.2929L4.20708 12.5L7.64283 12.5C8.19512 12.5 8.64283 12.0523 8.64283 11.5L8.64283 3C8.64283 2.72386 8.41898 2.5 8.14283 2.5C7.86669 2.5 7.64283 2.72386 7.64283 3L7.64283 11.5L4.20708 11.5Z" fill="#272932"/>
</svg>
