<svg viewBox="0 0 24 24" fill="none" xmlns="http://www.w3.org/2000/svg">
<path fill-rule="evenodd" clip-rule="evenodd" d="M4.20708 12.5C3.31618 12.5 2.87001 11.4229 3.49998 10.7929L11.2929 3C11.6834 2.60948 12.3166 2.60947 12.7071 3L20.5 10.7929C21.1299 11.4229 20.6838 12.5 19.7929 12.5L16.3571 12.5L16.3571 21C16.3571 21.2761 16.1333 21.5 15.8571 21.5C15.581 21.5 15.3571 21.2761 15.3571 21L15.3571 12.5C15.3571 11.9477 15.8048 11.5 16.3571 11.5L19.7929 11.5L12 3.70711L4.20708 11.5L7.64283 11.5C8.19512 11.5 8.64283 11.9477 8.64283 12.5L8.64283 21C8.64283 21.2761 8.41898 21.5 8.14283 21.5C7.86669 21.5 7.64283 21.2761 7.64283 21L7.64283 12.5L4.20708 12.5Z" fill="#272932"/>
</svg>
