<svg width="30" height="28" viewBox="0 0 30 28" fill="none" xmlns="http://www.w3.org/2000/svg">
<path fill-rule="evenodd" clip-rule="evenodd" d="M10.5954 0C10.9899 0 11.3097 0.31871 11.3097 0.71186V3.19447H16.4575C16.4627 3.19441 16.4679 3.19441 16.4732 3.19447H20.4823C20.8768 3.19447 21.1966 3.51318 21.1966 3.90633C21.1966 4.29947 20.8768 4.61819 20.4823 4.61819H17.0841C17.0285 4.93292 16.9422 5.35429 16.8101 5.86538C16.5093 7.03006 15.971 8.66169 15.0186 10.5593C14.2712 12.0486 13.2699 13.6993 11.931 15.4147C13.0902 16.8312 14.2963 18.0838 15.397 18.8173C15.7249 19.0358 15.813 19.4779 15.5937 19.8048C15.3744 20.1316 14.9308 20.2193 14.6029 20.0008C13.4177 19.211 12.1753 17.9403 11.0101 16.5405C9.02256 18.861 6.40147 21.2595 2.94771 23.5068C2.61739 23.7218 2.17479 23.6292 1.95912 23.3C1.74346 22.9708 1.8364 22.5297 2.16672 22.3147C5.60695 20.0762 8.17926 17.6915 10.1018 15.4062C9.53983 14.6785 9.00648 13.9417 8.51898 13.2409C7.65194 11.9944 6.91014 10.832 6.38518 9.98148C6.12255 9.55596 5.91381 9.20787 5.7704 8.96558C5.69868 8.84443 5.64327 8.74968 5.6056 8.68489L5.56257 8.61059L5.55136 8.59111L5.54757 8.58451C5.5475 8.58438 5.5472 8.58386 6.16774 8.23132L5.54757 8.58451C5.35221 8.24296 5.47129 7.80759 5.814 7.61288C6.15671 7.41819 6.59289 7.53722 6.78826 7.87875C6.78825 7.87874 6.78827 7.87876 6.78826 7.87875L6.79124 7.88394L6.80121 7.90127L6.84166 7.97111C6.87757 8.03286 6.9311 8.1244 7.00082 8.2422C7.14029 8.47783 7.34448 8.81834 7.60198 9.23555C8.1173 10.0705 8.84463 11.2101 9.69302 12.4298C10.1139 13.0348 10.5599 13.6527 11.0207 14.2588C12.1917 12.721 13.0751 11.2493 13.741 9.92247C14.6431 8.12489 15.148 6.58923 15.4267 5.51043C15.5163 5.16349 15.5825 4.8639 15.631 4.61819H0.714281C0.319795 4.61819 0 4.29947 0 3.90633C0 3.51318 0.319795 3.19447 0.714281 3.19447H9.88113V0.71186C9.88113 0.31871 10.2009 0 10.5954 0ZM16.4489 3.90482C15.7546 3.84425 15.7546 3.84389 15.7546 3.84358L16.4489 3.90482ZM22.5947 13.5036L19.127 21.5786H26.0592L22.5947 13.5036ZM27.7649 21.9331L23.7238 12.5141L23.7216 12.5089C23.6259 12.2908 23.4686 12.1048 23.2685 11.9741C23.0684 11.8433 22.8343 11.7735 22.5948 11.7735C22.3552 11.7735 22.1211 11.8433 21.921 11.9741C21.7209 12.1048 21.5636 12.2908 21.468 12.5089L17.4075 21.9642C17.3918 21.9944 17.3783 22.0259 17.367 22.0584L15.2415 27.0079C15.0863 27.3693 15.2545 27.7877 15.6172 27.9424C15.9798 28.0971 16.3996 27.9295 16.5549 27.568L18.5156 23.0023H26.67L28.6288 27.5678C28.7839 27.9293 29.2036 28.0971 29.5664 27.9425C29.9291 27.7879 30.0974 27.3696 29.9423 27.0081L27.8334 22.0926C27.817 22.0363 27.7939 21.9828 27.7649 21.9331Z" fill="#272932"/>
</svg>
