<svg width="24" height="24" viewBox="0 0 24 24" fill="none" xmlns="http://www.w3.org/2000/svg">
<path fill-rule="evenodd" clip-rule="evenodd" d="M12.5 19.7929C12.5 20.6838 11.4229 21.13 10.7929 20.5L3 12.7071C2.60948 12.3166 2.60947 11.6834 3 11.2929L10.7929 3.50002C11.4229 2.87006 12.5 3.31623 12.5 4.20713L12.5 7.64288L21 7.64288C21.2761 7.64288 21.5 7.86674 21.5 8.14288C21.5 8.41902 21.2761 8.64288 21 8.64288L12.5 8.64288C11.9477 8.64288 11.5 8.19516 11.5 7.64288L11.5 4.20713L3.70711 12L11.5 19.7929L11.5 16.3572C11.5 15.8049 11.9477 15.3572 12.5 15.3572L21 15.3572C21.2761 15.3572 21.5 15.581 21.5 15.8572C21.5 16.1333 21.2761 16.3572 21 16.3572L12.5 16.3572L12.5 19.7929Z" fill="#272932"/>
</svg>
