<svg viewBox="0 0 32 32" fill="none" xmlns="http://www.w3.org/2000/svg">
<g clip-path="url(#clip0_6306_1778)">
<path d="M16 0C7.5168 0 0 7.55343 0 16.024C0 24.4946 7.5168 32 16 32C24.4832 32 32 24.5616 32 16.091C32 7.62037 24.4832 0 16 0ZM21.6257 17.7239C21.8116 17.9029 22 18.0807 22.1801 18.2655C22.5851 18.681 23.3258 19.468 23.5833 19.9195C23.5953 19.9407 23.6073 19.961 23.6182 19.9827C23.7542 20.2112 23.7862 20.3885 23.719 20.5211C23.607 20.7416 23.223 20.8502 23.0918 20.8598H20.6918C20.5254 20.8598 20.1766 20.8167 19.7542 20.5259C19.4294 20.2991 19.1094 19.9268 18.7974 19.5642C18.3318 19.0242 17.9286 18.5577 17.5222 18.5577C17.4706 18.5576 17.4193 18.5657 17.3702 18.5816C17.063 18.6807 16.6694 19.1184 16.6694 20.2847C16.6694 20.6489 16.3814 20.8582 16.1782 20.8582H15.079C14.7046 20.8582 12.7542 20.7272 11.0262 18.9076C8.91103 16.6789 7.00703 12.2088 6.99103 12.1672C6.87103 11.8781 7.11903 11.7231 7.38943 11.7231H9.81343C10.1366 11.7231 10.2422 11.9196 10.3158 12.0937C10.4022 12.2966 10.719 13.1034 11.239 14.0109C12.0822 15.4903 12.599 16.091 13.0134 16.091C13.0911 16.09 13.1674 16.0703 13.2358 16.0334C13.7766 15.7331 13.6758 13.808 13.6518 13.4086C13.6518 13.3335 13.6502 12.5475 13.3734 12.1704C13.2806 12.0426 13.1572 11.9518 13.0313 11.8875C12.8569 11.7984 12.7759 11.5726 12.951 11.485C13.3222 11.2997 13.991 11.2726 14.655 11.2726H15.0246C15.7446 11.2821 15.9302 11.3285 16.191 11.394C16.719 11.5202 16.7302 11.8605 16.6838 13.0251C16.6694 13.3558 16.655 13.7297 16.655 14.1706C16.655 14.2665 16.6502 14.3687 16.6502 14.4774C16.6342 15.0701 16.615 15.7427 17.0342 16.0191C17.0889 16.0533 17.1521 16.0716 17.2166 16.0718C17.3622 16.0718 17.8006 16.0718 18.9878 14.038C19.3076 13.4663 19.5908 12.8749 19.8358 12.2676C19.9067 12.0919 19.9546 11.8807 20.1174 11.7838C20.1788 11.7525 20.2469 11.7366 20.3158 11.7375H23.1654C23.4758 11.7375 23.6886 11.7838 23.7286 11.9036C23.799 12.0937 23.7158 12.6737 22.415 14.4326L21.8342 15.1979C20.7514 16.6151 20.6629 16.7969 21.6257 17.7239Z" fill="#9EB4FF"/>
</g>
<defs>
<clipPath id="clip0_6306_1778">
<rect width="32" height="32" rx="16" fill="white"/>
</clipPath>
</defs>
</svg>
