<svg width="44" height="44" viewBox="0 0 44 44" fill="none" xmlns="http://www.w3.org/2000/svg">
<path fill-rule="evenodd" clip-rule="evenodd" d="M35 14.2222C35 11.289 35 9.82245 34.0481 8.91122C33.0962 8 31.5641 8 28.5 8H15.5C12.4359 8 10.9038 8 9.9519 8.91122C9 9.82245 9 11.289 9 14.2222V32.1111C9 32.3664 9.02569 32.6159 9.07474 32.8574C9.43834 34.6482 11.0855 36 13.0625 36H28.5C31.5641 36 33.0962 36 34.0481 35.0888C35 34.1776 35 32.711 35 29.7778V14.2222ZM10.5 30.1229V32.1111C10.5 33.3694 11.5849 34.5 13.0625 34.5H28.5C30.0727 34.5 31.1077 34.4971 31.8747 34.3984C32.6049 34.3044 32.8622 34.1475 33.0108 34.0052C33.1503 33.8717 33.3017 33.6515 33.3956 32.9829C33.4965 32.2642 33.5 31.2886 33.5 29.7778V28.5298C33.0951 28.6911 32.6489 28.7895 32.1619 28.8522C31.2289 28.9723 30.0401 28.9722 28.5533 28.9722H13.0625C12.018 28.9722 11.1023 29.4247 10.5 30.1229ZM33.5 26.7968V14.2222C33.5 12.7114 33.4965 11.7358 33.3956 11.0171C33.3017 10.3485 33.1503 10.1283 33.0108 9.99478C32.8622 9.85247 32.6049 9.69562 31.8747 9.60163C31.1077 9.50292 30.0727 9.5 28.5 9.5H15.5C13.9273 9.5 12.8923 9.50292 12.1253 9.60163C11.3951 9.69562 11.1378 9.85247 10.9892 9.99478C10.8497 10.1283 10.6983 10.3485 10.6044 11.0171C10.5035 11.7358 10.5 12.7114 10.5 14.2222V28.1847C11.2454 27.7324 12.1259 27.4722 13.0625 27.4722H28.5C30.0524 27.4722 31.1444 27.4708 31.9704 27.3645C32.753 27.2637 33.1895 27.08 33.5 26.7968ZM16.5832 18.3703C16.8696 18.071 17.3444 18.0607 17.6436 18.3471L19.7446 20.3583C20.0892 20.6881 20.6608 20.6881 21.0054 20.3583L26.3564 15.236C26.6556 14.9496 27.1304 14.9599 27.4168 15.2592C27.7032 15.5584 27.6928 16.0331 27.3936 16.3196L22.0427 21.4418C21.1181 22.3269 19.6319 22.3269 18.7073 21.4418L16.6064 19.4307C16.3072 19.1442 16.2968 18.6695 16.5832 18.3703Z" fill="#272932"/>
</svg>
