<svg viewBox="0 0 32 32" fill="none" xmlns="http://www.w3.org/2000/svg">
<g clip-path="url(#clip0_6306_1780)">
<rect width="32" height="32" rx="16" fill="white"/>
<path fill-rule="evenodd" clip-rule="evenodd" d="M16.001 0C24.8316 0 32.001 7.16938 32.001 16C32.001 24.8306 24.8316 32 16.001 32C7.17035 32 0.000976562 24.8306 0.000976562 16C0.000976562 7.16938 7.17035 0 16.001 0ZM25.5832 11.1861C25.3532 10.3256 24.6755 9.648 23.815 9.418C22.2552 9 16.001 9 16.001 9C16.001 9 9.74679 9 8.18691 9.418C7.3266 9.648 6.64879 10.3256 6.41879 11.1861C6.00098 12.7458 6.00098 16.0001 6.00098 16.0001C6.00098 16.0001 6.00098 19.2543 6.41879 20.8139C6.64879 21.6744 7.3266 22.3523 8.18691 22.5822C9.74679 23 16.001 23 16.001 23C16.001 23 22.2552 23 23.815 22.5822C24.6755 22.3523 25.3532 21.6744 25.5832 20.8139C26.001 19.2543 26.001 16.0001 26.001 16.0001C26.001 16.0001 26.001 12.7458 25.5832 11.1861ZM14.0009 19.0002V13.0001L19.197 16.0001L14.0009 19.0002Z" fill="#9EB4FF"/>
</g>
<defs>
<clipPath id="clip0_6306_1780">
<rect width="32" height="32" rx="16" fill="white"/>
</clipPath>
</defs>
</svg>
