<svg width="24" height="24" viewBox="0 0 24 24" fill="none" xmlns="http://www.w3.org/2000/svg">
<rect width="24" height="24" rx="12" fill="white"/>
<path d="M19.009 8.33684C18.9249 8.01399 18.7608 7.71966 18.533 7.48316C18.3053 7.24665 18.0219 7.07623 17.711 6.98885C16.5728 6.6665 11.992 6.6665 11.992 6.6665C11.992 6.6665 7.41103 6.67626 6.27286 6.99861C5.96196 7.08599 5.67853 7.25642 5.45079 7.49294C5.22305 7.72945 5.05895 8.0238 4.97483 8.34666C4.63056 10.4467 4.49701 13.6468 4.98429 15.6628C5.06841 15.9857 5.23252 16.28 5.46025 16.5165C5.68799 16.753 5.97142 16.9234 6.28231 17.0108C7.42049 17.3332 12.0014 17.3332 12.0014 17.3332C12.0014 17.3332 16.5822 17.3332 17.7203 17.0108C18.0312 16.9235 18.3147 16.753 18.5424 16.5165C18.7702 16.28 18.9343 15.9857 19.0184 15.6628C19.3815 13.5598 19.4934 10.3617 19.009 8.33684Z" fill="#FF0000"/>
<path d="M10.534 14.2855L14.3341 11.9998L10.534 9.7141V14.2855Z" fill="white"/>
</svg>
