<svg width="32" height="32" viewBox="0 0 32 32" fill="none" xmlns="http://www.w3.org/2000/svg">
<path fill-rule="evenodd" clip-rule="evenodd" d="M3 7.85909C3 7.38463 3.40294 7 3.9 7H29.1C29.5971 7 30 7.38463 30 7.85909C30 8.33355 29.5971 8.71818 29.1 8.71818H3.9C3.40294 8.71818 3 8.33355 3 7.85909ZM3 16.45C3 15.9755 3.40294 15.5909 3.9 15.5909H29.1C29.5971 15.5909 30 15.9755 30 16.45C30 16.9245 29.5971 17.3091 29.1 17.3091H3.9C3.40294 17.3091 3 16.9245 3 16.45ZM3 25.0409C3 24.5664 3.40294 24.1818 3.9 24.1818H29.1C29.5971 24.1818 30 24.5664 30 25.0409C30 25.5154 29.5971 25.9 29.1 25.9H3.9C3.40294 25.9 3 25.5154 3 25.0409Z" fill="#272932"/>
</svg>
