<svg width="24" height="24" viewBox="0 0 24 24" fill="none" xmlns="http://www.w3.org/2000/svg">
<path fill-rule="evenodd" clip-rule="evenodd" d="M7.94516 2.5H16.0548C16.6635 2.49999 17.1546 2.49999 17.5586 2.53766C17.9781 2.57677 18.3396 2.65888 18.6839 2.84314C19.0282 3.02741 19.2971 3.28269 19.5624 3.61006C19.8178 3.92531 20.0902 4.33395 20.4278 4.84039L20.6099 5.11341C20.6236 5.13407 20.6372 5.15445 20.6507 5.17459C21.0118 5.71594 21.2508 6.07434 21.3756 6.48629C21.5003 6.89823 21.5002 7.32905 21.5 7.97978C21.5 8.00398 21.5 8.0285 21.5 8.05332V16.2373C21.5 17.337 21.5 18.2132 21.4077 18.9001C21.3123 19.6091 21.1105 20.1908 20.6506 20.6506C20.1907 21.1105 19.6091 21.3124 18.9001 21.4077C18.2132 21.5 17.337 21.5 16.2373 21.5H7.76271C6.66298 21.5 5.78679 21.5 5.09992 21.4077C4.39092 21.3124 3.80924 21.1105 3.34938 20.6506C2.88953 20.1908 2.68764 19.6091 2.59232 18.9001C2.49997 18.2132 2.49998 17.337 2.49999 16.2373L2.49999 8.05332C2.49999 8.0285 2.49999 8.00398 2.49998 7.97978C2.49981 7.32904 2.4997 6.89823 2.62443 6.48629C2.74915 6.07435 2.98822 5.71595 3.34932 5.1746C3.36275 5.15446 3.37636 5.13407 3.39013 5.11341L3.57216 4.84036C3.90977 4.33393 4.18219 3.9253 4.43762 3.61006C4.70288 3.28269 4.97174 3.02741 5.31605 2.84314C5.66035 2.65888 6.02189 2.57677 6.44142 2.53766C6.84541 2.49999 7.33652 2.49999 7.94516 2.5ZM3.49999 9.5V16.2C3.49999 17.3455 3.50106 18.1543 3.5834 18.7668C3.66382 19.3649 3.8134 19.7004 4.05649 19.9435C4.29958 20.1866 4.63506 20.3362 5.23317 20.4166C5.84566 20.4989 6.65449 20.5 7.79999 20.5H16.2C17.3455 20.5 18.1543 20.4989 18.7668 20.4166C19.3649 20.3362 19.7004 20.1866 19.9435 19.9435C20.1866 19.7004 20.3362 19.3649 20.4166 18.7668C20.4989 18.1543 20.5 17.3455 20.5 16.2V9.5H15.5V14.0463C15.5 14.8546 14.6181 15.354 13.9249 14.9381L12 13.7831L10.0751 14.938C9.38189 15.354 8.49999 14.8546 8.49999 14.0463V9.5H3.49999ZM3.49999 8.5V8.05332C3.49999 7.30282 3.50493 7.02904 3.58152 6.77607C3.65811 6.5231 3.80587 6.29257 4.22218 5.66811L4.39106 5.41479C4.7449 4.88403 4.9919 4.51443 5.21458 4.23961C5.43075 3.97283 5.60159 3.82453 5.78791 3.72482C5.97422 3.6251 6.19238 3.56522 6.53426 3.53334C6.88645 3.5005 7.33098 3.5 7.96888 3.5H16.0311C16.669 3.5 17.1135 3.5005 17.4657 3.53334C17.8076 3.56522 18.0258 3.6251 18.2121 3.72482C18.3984 3.82453 18.5692 3.97283 18.7854 4.23961C19.0081 4.51443 19.2551 4.88403 19.6089 5.41479L19.7778 5.66811C20.1941 6.29257 20.3419 6.5231 20.4185 6.77607C20.4951 7.02904 20.5 7.30282 20.5 8.05332V8.5H3.49999ZM9.49999 9.5V14.0463C9.49999 14.0581 9.50266 14.0634 9.50454 14.0665C9.50725 14.071 9.51236 14.0766 9.52029 14.0811C9.52821 14.0856 9.53562 14.0871 9.54084 14.0871C9.54447 14.0871 9.55044 14.0866 9.56057 14.0806L11.5884 12.8639C11.8417 12.7119 12.1582 12.7119 12.4116 12.8639L14.4394 14.0806C14.4495 14.0866 14.4555 14.0871 14.4591 14.0871C14.4644 14.0871 14.4718 14.0856 14.4797 14.0811C14.4876 14.0766 14.4927 14.071 14.4954 14.0665C14.4973 14.0634 14.5 14.0581 14.5 14.0463V9.5H9.49999Z" fill="#272932" stroke="#272932" stroke-width="0.5"/>
</svg>
