<svg width="24" height="24" viewBox="0 0 24 24" fill="none" xmlns="http://www.w3.org/2000/svg">
<path fill-rule="evenodd" clip-rule="evenodd" d="M13.1422 4.28818C12.6935 4.05296 12.1893 4.05296 11.7406 4.28818L3.11053 8.81229C3.10802 8.81974 3.10526 8.83189 3.10526 8.84786C3.10526 8.86382 3.10802 8.87598 3.11053 8.88343L11.7406 13.4075C12.1893 13.6428 12.6935 13.6428 13.1422 13.4075L21.7723 8.88343C21.7748 8.87598 21.7776 8.86382 21.7776 8.84786C21.7776 8.83189 21.7748 8.81974 21.7723 8.81229L13.1422 4.28818ZM21.7882 8.8206C21.7881 8.82057 21.7881 8.82053 21.788 8.8205L21.7882 8.8206ZM11.2298 3.30227C11.9986 2.89924 12.8842 2.89924 13.653 3.30227L22.299 7.8347C22.5606 7.97184 22.7235 8.19256 22.8088 8.42733C22.9259 8.52926 23 8.67985 23 8.84786V14.4018C23 14.7088 22.7526 14.9576 22.4474 14.9576C22.1422 14.9576 21.8947 14.7088 21.8947 14.4018V10.073L19.41 11.3755C19.4474 11.4505 19.4685 11.5352 19.4685 11.6248V18.5672C19.4685 18.6061 19.4644 18.645 19.4563 18.6831L18.9159 18.5672C19.4563 18.6831 19.4562 18.6836 19.4561 18.6842L19.4559 18.6854L19.4553 18.6879L19.454 18.6938L19.4504 18.7087C19.4477 18.72 19.444 18.7339 19.4394 18.7504C19.4301 18.7832 19.4168 18.826 19.3981 18.8773C19.3608 18.98 19.3022 19.1168 19.2123 19.2758C19.0318 19.5952 18.728 19.999 18.2262 20.3936C17.2195 21.1852 15.469 21.9 12.4414 21.9C9.4139 21.9 7.66339 21.1852 6.65667 20.3936C6.1549 19.999 5.85105 19.5952 5.67052 19.2758C5.58062 19.1168 5.52204 18.98 5.48474 18.8773C5.46609 18.826 5.45275 18.7832 5.44348 18.7504C5.43884 18.7339 5.43521 18.72 5.43243 18.7087L5.42889 18.6938L5.42757 18.6879L5.42701 18.6854L5.42675 18.6842C5.42663 18.6836 5.42652 18.6831 5.967 18.5672L5.42652 18.6831C5.41844 18.645 5.41437 18.6061 5.41437 18.5672V11.6248C5.41437 11.5352 5.43546 11.4505 5.47291 11.3755L2.58385 9.86102L2.83925 9.36807L2.58385 9.86102C2.16612 9.64204 2 9.20993 2 8.84786C2 8.48578 2.16612 8.05368 2.58385 7.83469L11.2298 3.30227ZM6.51963 11.9243V18.4867C6.52064 18.4896 6.52171 18.4926 6.52284 18.4957C6.54072 18.5449 6.5741 18.625 6.63135 18.7263C6.74511 18.9276 6.95627 19.218 7.33738 19.5177C8.09641 20.1145 9.58311 20.7882 12.4414 20.7882C15.2997 20.7882 16.7865 20.1145 17.5455 19.5177C17.9266 19.218 18.1378 18.9276 18.2515 18.7263C18.3088 18.625 18.3421 18.5449 18.36 18.4957C18.3612 18.4926 18.3622 18.4896 18.3632 18.4867V11.9243L13.653 14.3935C12.8842 14.7965 11.9986 14.7965 11.2298 14.3934L6.51963 11.9243Z" fill="#272932" stroke="#272932" stroke-width="0.5" stroke-linecap="round" stroke-linejoin="round"/>
</svg>
