<svg width="32" height="32" viewBox="0 0 32 32" fill="none" xmlns="http://www.w3.org/2000/svg">
<path fill-rule="evenodd" clip-rule="evenodd" d="M5.58889 16C5.58889 15.6601 5.8644 15.3846 6.20427 15.3846L16.0323 15.3846L16.0323 5.55658C16.0323 5.21671 16.3078 4.94119 16.6477 4.94119C16.9876 4.94119 17.2631 5.21671 17.2631 5.55658L17.2631 15.3846L27.0911 15.3846C27.431 15.3846 27.7065 15.6601 27.7065 16C27.7065 16.3399 27.431 16.6154 27.0911 16.6154L17.2631 16.6154L17.2631 26.4434C17.2631 26.7833 16.9876 27.0588 16.6477 27.0588C16.3078 27.0588 16.0323 26.7833 16.0323 26.4434L16.0323 16.6154L6.20427 16.6154C5.8644 16.6154 5.58889 16.3399 5.58889 16Z" fill="#272932"/>
</svg>
