<svg width="24" height="24" viewBox="0 0 24 24" fill="none" xmlns="http://www.w3.org/2000/svg">
<path fill-rule="evenodd" clip-rule="evenodd" d="M12 3.5C9.67337 3.5 7.84121 5.26495 7.84121 7.37768C7.84121 9.4904 9.67337 11.2554 12 11.2554C14.3265 11.2554 16.1587 9.4904 16.1587 7.37768C16.1587 5.26495 14.3265 3.5 12 3.5ZM6.84121 7.37768C6.84121 4.65495 9.18062 2.5 12 2.5C14.8193 2.5 17.1587 4.65495 17.1587 7.37768C17.1587 10.1004 14.8193 12.2554 12 12.2554C9.18062 12.2554 6.84121 10.1004 6.84121 7.37768ZM6.08999 17.0502C7.79797 16.1265 9.87501 15.633 12 15.633C14.1249 15.633 16.2019 16.1265 17.9099 17.0502C19.6166 17.9731 20.8844 19.2891 21.4673 20.8223C21.5654 21.0804 21.4358 21.3692 21.1776 21.4674C20.9195 21.5655 20.6307 21.4358 20.5326 21.1777C20.0538 19.9184 18.9821 18.7668 17.4342 17.9298C15.8877 17.0935 13.9772 16.633 12 16.633C10.0227 16.633 8.11217 17.0935 6.56567 17.9298C5.01781 18.7668 3.9461 19.9184 3.46731 21.1777C3.36918 21.4358 3.08038 21.5655 2.82226 21.4674C2.56414 21.3692 2.43446 21.0804 2.53259 20.8223C3.11553 19.2891 4.38335 17.9731 6.08999 17.0502Z" fill="#272932" stroke="#272932" stroke-width="0.3" stroke-linecap="round"/>
</svg>
