<svg width="32" height="32" viewBox="0 0 32 32" fill="none" xmlns="http://www.w3.org/2000/svg">
<path d="M4.67418 23.7312C4.30184 23.7312 4 23.4293 4 23.057V9.33333C4 8.59695 4.59695 8 5.33333 8H8.76611C9.81403 8 10.6889 8.20227 11.3907 8.60682C12.0973 9.00624 12.6285 9.56185 12.9842 10.2736C13.3448 10.9803 13.525 11.792 13.525 12.7086C13.525 13.6252 13.3448 14.4343 12.9842 15.1359C12.6285 15.8374 12.0997 16.3853 11.3979 16.7796C10.6961 17.1739 9.82605 17.3711 8.78774 17.3711H5.34836L5.33333 16L8.75169 16.0576C9.52081 16.0576 10.1601 15.9219 10.6697 15.6505C11.184 15.3791 11.5662 14.9925 11.8161 14.4906C12.0709 13.9888 12.1983 13.3948 12.1983 12.7086C12.1983 12.0224 12.0709 11.4233 11.8161 10.9112C11.5614 10.394 11.1768 9.99456 10.6625 9.71291C10.1529 9.43127 9.50879 9.29045 8.73006 9.29045H5.34836V23.057C5.34836 23.4293 5.04652 23.7312 4.67418 23.7312ZM10.6625 17.1009L13.6291 22.7233C13.865 23.184 13.5304 23.7312 13.0129 23.7312C12.752 23.7312 12.5133 23.5845 12.3954 23.3519L9.33333 17.3333L10.6625 17.1009Z" fill="#272932"/>
<path d="M26.6516 8.67418C26.6516 8.30184 26.9535 8 27.3258 8C27.6982 8 28 8.30184 28 8.67418V18.4157C28 19.486 27.7645 20.4436 27.2934 21.2885C26.8223 22.1283 26.1661 22.7915 25.3249 23.278C24.4885 23.7593 23.5151 24 22.4047 24C21.2991 24 20.3257 23.7568 19.4845 23.2703C18.6432 22.7838 17.9871 22.1207 17.516 21.2808C17.0449 20.441 16.8094 19.486 16.8094 18.4157V8.67418C16.8094 8.30184 17.1112 8 17.4836 8C17.8559 8 18.1577 8.30184 18.1577 8.67418V18.3159C18.1577 19.1506 18.3332 19.8957 18.6841 20.5511C19.035 21.2015 19.5277 21.7136 20.1622 22.0874C20.8016 22.4612 21.549 22.6481 22.4047 22.6481C23.2603 22.6481 24.0078 22.4612 24.6471 22.0874C25.2865 21.7136 25.7792 21.2015 26.1253 20.5511C26.4762 19.8957 26.6516 19.1506 26.6516 18.3159V8.67418Z" fill="#272932"/>
</svg>
