<svg width="32" height="32" viewBox="0 0 32 32" fill="none" xmlns="http://www.w3.org/2000/svg">
<path fill-rule="evenodd" clip-rule="evenodd" d="M14.2667 5.33333C9.33292 5.33333 5.33333 9.33292 5.33333 14.2667C5.33333 19.2004 9.33292 23.2 14.2667 23.2C16.6846 23.2 18.8782 22.2394 20.4866 20.6789C20.4879 20.6777 20.4892 20.6764 20.4905 20.6751C22.1617 19.0518 23.2 16.7805 23.2 14.2667C23.2 9.33292 19.2004 5.33333 14.2667 5.33333ZM21.8925 21.1407C23.534 19.3209 24.5333 16.9105 24.5333 14.2667C24.5333 8.59654 19.9368 4 14.2667 4C8.59654 4 4 8.59654 4 14.2667C4 19.9368 8.59654 24.5333 14.2667 24.5333C16.813 24.5333 19.1428 23.6063 20.9371 22.0714L28.2016 29.1443C28.4654 29.4012 28.8875 29.3955 29.1443 29.1317C29.4012 28.8679 29.3955 28.4459 29.1317 28.189L21.8925 21.1407Z" fill="#272932" stroke="#272932" stroke-linecap="round"/>
</svg>
