<svg width="25" height="24" viewBox="0 0 25 24" fill="none" xmlns="http://www.w3.org/2000/svg">
<path fill-rule="evenodd" clip-rule="evenodd" d="M20.5 7C20.5 5.11438 20.5 4.17157 19.9142 3.58579C19.3284 3 18.3856 3 16.5 3H8.5C6.61438 3 5.67157 3 5.08579 3.58579C4.5 4.17157 4.5 5.11438 4.5 7V18.5C4.5 18.6704 4.51704 18.8368 4.54952 18.9976C4.78022 20.1399 5.78967 21 7 21H16.5C18.3856 21 19.3284 21 19.9142 20.4142C20.5 19.8284 20.5 18.8856 20.5 17V7ZM5.5 17.1771V18.5C5.5 19.3284 6.17157 20 7 20H16.5C17.4711 20 18.0988 19.9979 18.5613 19.9357C18.995 19.8774 19.131 19.7832 19.2071 19.7071C19.2832 19.631 19.3774 19.495 19.4357 19.0613C19.4979 18.5988 19.5 17.9711 19.5 17V16.2498C19.2727 16.3331 19.0262 16.3867 18.7612 16.4223C18.1832 16.5 17.4483 16.5 16.5366 16.5H7C6.40265 16.5 5.86647 16.7619 5.5 17.1771ZM19.5 15.1166V7C19.5 6.02892 19.4979 5.40121 19.4357 4.9387C19.3774 4.50496 19.2832 4.36902 19.2071 4.29289C19.131 4.21677 18.995 4.12262 18.5613 4.06431C18.0988 4.00212 17.4711 4 16.5 4H8.5C7.52892 4 6.90121 4.00212 6.4387 4.06431C6.00496 4.12262 5.86902 4.21677 5.79289 4.29289C5.71677 4.36902 5.62262 4.50496 5.56431 4.9387C5.50212 5.40121 5.5 6.02892 5.5 7V15.9013C5.94126 15.6461 6.45357 15.5 7 15.5H16.5C17.4569 15.5 18.1244 15.4989 18.6279 15.4312C19.0658 15.3724 19.3193 15.2698 19.5 15.1166ZM9.14645 9.64645C9.34171 9.45118 9.65829 9.45118 9.85355 9.64645L11.1464 10.9393C11.3417 11.1346 11.6583 11.1346 11.8536 10.9393L15.1464 7.64645C15.3417 7.45118 15.6583 7.45118 15.8536 7.64645C16.0488 7.84171 16.0488 8.15829 15.8536 8.35355L12.5607 11.6464C11.9749 12.2322 11.0251 12.2322 10.4393 11.6464L9.14645 10.3536C8.95118 10.1583 8.95118 9.84171 9.14645 9.64645Z" fill="#272932"/>
<path d="M20.5 12C20.5 13.8856 20.5 14.8284 19.9142 15.4142C19.3284 16 18.3856 16 16.5 16H7C5.61929 16 4.5 17.1193 4.5 18.5M4.5 18.5C4.5 18.6704 4.51704 18.8368 4.54952 18.9976C4.78022 20.1399 5.78967 21 7 21H16.5C18.3856 21 19.3284 21 19.9142 20.4142C20.5 19.8284 20.5 18.8856 20.5 17V7C20.5 5.11438 20.5 4.17157 19.9142 3.58579C19.3284 3 18.3856 3 16.5 3H8.5C6.61438 3 5.67157 3 5.08579 3.58579C4.5 4.17157 4.5 5.11438 4.5 7V18.5ZM9.5 10L10.7929 11.2929C11.1834 11.6834 11.8166 11.6834 12.2071 11.2929L15.5 8M5.5 18.5V17.1771C5.86647 16.7619 6.40265 16.5 7 16.5H16.5366C17.4483 16.5 18.1832 16.5 18.7612 16.4223C19.0262 16.3867 19.2727 16.3331 19.5 16.2498V17C19.5 17.9711 19.4979 18.5988 19.4357 19.0613C19.3774 19.495 19.2832 19.631 19.2071 19.7071C19.131 19.7832 18.995 19.8774 18.5613 19.9357C18.0988 19.9979 17.4711 20 16.5 20H7C6.17157 20 5.5 19.3284 5.5 18.5ZM19.5 15.1166C19.3193 15.2698 19.0658 15.3724 18.6279 15.4312C18.1244 15.4989 17.4569 15.5 16.5 15.5H7C6.45357 15.5 5.94126 15.6461 5.5 15.9013V7C5.5 6.02892 5.50212 5.40121 5.56431 4.9387C5.62262 4.50496 5.71677 4.36902 5.79289 4.29289C5.86902 4.21677 6.00496 4.12262 6.4387 4.06431C6.90121 4.00212 7.52892 4 8.5 4H16.5C17.4711 4 18.0988 4.00212 18.5613 4.06431C18.995 4.12262 19.131 4.21677 19.2071 4.29289C19.2832 4.36902 19.3774 4.50496 19.4357 4.9387C19.4979 5.40121 19.5 6.02892 19.5 7V15.1166ZM9.85355 9.64645C9.65829 9.45118 9.34171 9.45118 9.14645 9.64645C8.95118 9.84171 8.95118 10.1583 9.14645 10.3536L10.4393 11.6464C11.0251 12.2322 11.9749 12.2322 12.5607 11.6464L15.8536 8.35355C16.0488 8.15829 16.0488 7.84171 15.8536 7.64645C15.6583 7.45118 15.3417 7.45118 15.1464 7.64645L11.8536 10.9393C11.6583 11.1346 11.3417 11.1346 11.1464 10.9393L9.85355 9.64645Z" stroke="#272932" stroke-width="0.5" stroke-linecap="round"/>
</svg>
