<svg width="30" height="28" viewBox="0 0 30 28" fill="none" xmlns="http://www.w3.org/2000/svg">
<path d="M29.9856 13.6171C29.9876 13.5923 29.9876 13.5675 29.9856 13.5427C29.9856 13.539 29.9856 13.536 29.9856 13.5323C29.9765 13.5066 29.9651 13.4817 29.9516 13.4579C29.9396 13.4266 29.9241 13.3966 29.9054 13.3686C29.9054 13.3649 29.9054 13.3604 29.8994 13.3575C28.1604 11.1896 29.913 8.32906 29.9311 8.29856C29.9372 8.28814 29.9379 8.27699 29.9432 8.26657C29.9518 8.24719 29.9591 8.22732 29.9652 8.20705C29.9838 8.157 29.9932 8.10411 29.9931 8.05082C29.9931 8.03743 30.0007 8.02627 29.9999 8.01288C29.9992 7.99949 29.9916 7.99651 29.9901 7.98759C29.9816 7.92026 29.9579 7.85568 29.9206 7.79862C29.9206 7.7949 29.9206 7.78969 29.9145 7.78597C29.8779 7.73461 29.8311 7.69108 29.7769 7.65801C29.7678 7.65281 29.758 7.65281 29.7489 7.6476C29.7399 7.64239 29.7376 7.6357 29.7308 7.63272L13.4495 0.04437C13.3734 0.00928437 13.2892 -0.00540824 13.2054 0.00177612C13.1216 0.00896049 13.0413 0.0377671 12.9724 0.0852873L1.08321 8.39007C1.08321 8.39007 1.08321 8.39453 1.07792 8.39676C1.02894 8.43137 0.987322 8.4751 0.955438 8.52547C0.870002 8.66012 -1.02623 11.752 0.799688 14.3841C0.346044 15.2419 -0.841745 17.9551 0.985681 20.2338C1.031 20.2904 1.08895 20.336 1.15504 20.367L17.4371 27.9554C17.5002 27.9846 17.5691 27.9999 17.6389 28C17.7253 27.998 17.8094 27.9722 17.8816 27.9256C17.8915 27.9204 17.9028 27.9256 17.9119 27.9167L29.7951 19.6067C29.8003 19.603 29.8079 19.6067 29.8132 19.6007C29.8954 19.5349 29.952 19.4432 29.9735 19.3411C29.9773 19.327 29.9848 19.3143 29.9871 19.3009C29.9897 19.2715 29.9897 19.2418 29.9871 19.2124C29.988 19.1802 29.9854 19.1481 29.9795 19.1164C29.9746 19.104 29.9691 19.0918 29.9629 19.08C29.9509 19.0371 29.9326 18.9963 29.9085 18.9587C29.9047 18.9535 29.8979 18.9513 29.8941 18.9461C28.1551 16.7782 29.9077 13.9184 29.9259 13.8872C29.9259 13.8872 29.9259 13.8797 29.9304 13.876C29.944 13.8489 29.9546 13.8205 29.9621 13.7912C29.9735 13.7673 29.9826 13.7423 29.9894 13.7168C29.9898 13.7126 29.9898 13.7083 29.9894 13.7041C29.9911 13.6751 29.9898 13.6459 29.9856 13.6171ZM17.7554 26.8781C16.5887 24.978 17.7365 22.7231 17.9897 22.273L28.4319 14.9748C28.0931 16.1027 27.9381 17.6665 28.8651 19.1149L17.7554 26.8781ZM1.56256 9.38548L16.9864 16.5721C16.588 17.3837 15.9173 19.1484 16.5267 20.9094L1.65556 13.9787C0.386872 12.2869 1.15882 10.212 1.56256 9.38548ZM17.7554 21.2947C16.5789 19.3768 17.7554 17.0988 17.9965 16.6777L28.4303 9.38697C28.0909 10.5155 27.9366 12.0816 28.8666 13.5308L17.7554 21.2947ZM13.2877 1.00184L28.5884 8.1334L17.589 15.82L2.28839 8.68839L13.2877 1.00184ZM1.66161 19.5725C0.384604 17.8837 1.15882 15.8066 1.55954 14.9726L16.9834 22.1592C16.5834 22.9776 15.9151 24.7392 16.5298 26.4987L1.66161 19.5725Z" fill="#272932"/>
<path d="M1.66161 19.5725C0.384604 17.8837 1.15882 15.8066 1.55954 14.9726L16.9834 22.1592C16.5834 22.9776 15.9151 24.7392 16.5298 26.4987L1.66161 19.5725Z" fill="#FAFAFA"/>
<path d="M17.7554 26.8781C16.5887 24.978 17.7365 22.7231 17.9897 22.273L28.4319 14.9748C28.0931 16.1027 27.9381 17.6665 28.8651 19.1149L17.7554 26.8781Z" fill="#FAFAFA"/>
<path d="M17.7554 21.2947C16.5789 19.3768 17.7554 17.0988 17.9965 16.6777L28.4303 9.38697C28.0909 10.5155 27.9366 12.0816 28.8666 13.5308L17.7554 21.2947Z" fill="#FAFAFA"/>
<path d="M1.56256 9.38548L16.9864 16.5721C16.588 17.3837 15.9173 19.1484 16.5267 20.9094L1.65556 13.9787C0.386872 12.2869 1.15882 10.212 1.56256 9.38548Z" fill="#6C8DFF"/>
<path d="M13.2877 1.00184L28.5884 8.1334L17.589 15.82L2.28839 8.68839L13.2877 1.00184Z" fill="#9EB4FF"/>
<path fill-rule="evenodd" clip-rule="evenodd" d="M10.4981 7.03385C10.5954 6.8447 10.8302 6.76904 11.0225 6.86487L16.5112 9.60093C16.606 9.64822 16.72 9.63847 16.8051 9.57577L19.32 7.72383C19.4926 7.59678 19.7371 7.63141 19.8662 7.80118C19.9953 7.97094 19.9601 8.21155 19.7876 8.3386L17.2727 10.1905C16.9499 10.4282 16.5181 10.4652 16.1585 10.2859L10.6698 7.54984C10.4776 7.45402 10.4007 7.223 10.4981 7.03385Z" fill="#272932"/>
</svg>
